<svg xmlns="http://www.w3.org/2000/svg" xmlns:xlink="http://www.w3.org/1999/xlink" width="120" height="120" viewBox="0 0 120 120">
    <defs>
        <circle id="a" cx="34.5" cy="34.5" r="34.5"/>
    </defs>
    <g fill="none" fill-rule="evenodd">
        <path fill="#0A4E8E" d="M60 103.882l-5.878 3.272 1.123-6.93-4.756-4.908 6.572-1.01L60 88l2.939 6.305 6.572 1.011-4.756 4.908 1.123 6.93zM39 103.882l-5.878 3.272 1.123-6.93-4.756-4.908 6.572-1.01L39 88l2.939 6.305 6.572 1.011-4.756 4.908 1.123 6.93zM102 103.882l-5.878 3.272 1.123-6.93-4.756-4.908 6.572-1.01L102 88l2.939 6.305 6.572 1.011-4.756 4.908 1.123 6.93zM18 103.882l-5.878 3.272 1.123-6.93-4.756-4.908 6.572-1.01L18 88l2.939 6.305 6.572 1.011-4.756 4.908 1.123 6.93zM81 103.882l-5.878 3.272 1.123-6.93-4.756-4.908 6.572-1.01L81 88l2.939 6.305 6.572 1.011-4.756 4.908 1.123 6.93z"/>
        <ellipse cx="60" cy="111.375" fill="#EDEFF8" rx="54.875" ry="2.625"/>
        <g transform="translate(26 9)">
            <mask id="b" fill="#fff">
                <use xlink:href="#a"/>
            </mask>
            <use fill="#2180EA" fill-rule="nonzero" stroke="#2180EA" stroke-width="5" xlink:href="#a"/>
            <g fill="#FFF" mask="url(#b)">
                <path fill-opacity=".1" d="M34.65 68.75V0C15.513 0 0 15.39 0 34.375S15.513 68.75 34.65 68.75z"/>
                <g fill-rule="nonzero">
                    <path d="M57.924 66.7s6.254-6.153 3.431-4.866c-.793-.579-2.1-8.631-6.825-11.235-3.152-1.152-7.63-1.393-10.5-3.125L34.842 64.14 25.13 47.474c-3.15 1.736-6.475 2.778-9.975 3.125-5.25.52-7.092 9.546-7.875 10.14-2.823-1.265-.017 20.551 4.2 14.339L57.924 66.7zM25.538 36.208a11.45 11.45 0 0 0 7.11 8.733 7.732 7.732 0 0 0 5.227 0 11.679 11.679 0 0 0 7.13-8.733c.544 0 1.255-.809 2.092-3.526 1.066-3.693 0-4.253-1.025-4.15.175-.494.315-1 .418-1.514 1.506-9.625-1.484-12.84-6.147-10.766-.709-1.094-12.588-4.149-15.892 0-3.304 4.15-.187 11.77 0 12.26-.983 0-2.09.456-1.045 4.149.815 2.738 1.526 3.485 2.132 3.547z"/>
                </g>
            </g>
        </g>
    </g>
</svg>
