<svg xmlns="http://www.w3.org/2000/svg" width="120" height="120" viewBox="0 0 120 120">
    <g fill="none" fill-rule="evenodd">
        <ellipse cx="59.875" cy="109.625" fill="#EDEFF8" rx="54.875" ry="2.625"/>
        <path fill="#2180EA" fill-rule="nonzero" d="M55.462 29.103L45.17 13.282h34.908l-10.29 15.82c15.249.383 27.502 13.923 27.502 30.571V85.69a9.9 9.9 0 0 0 .91 4.187l4.831 8.445c.498.877.76 1.886.758 2.916-.01 3.023-2.264 5.47-5.048 5.481H26.508c-2.784-.012-5.038-2.458-5.048-5.48-.003-1.031.26-2.04.758-2.917l4.831-8.445a9.892 9.892 0 0 0 .91-4.187V59.673c0-16.648 12.253-30.188 27.503-30.57z"/>
        <path fill="#FFF" fill-opacity=".1" fill-rule="nonzero" d="M62.969 15.75H51c-.288 0 2.712 4.917 9 14.75-15 1-29.334 13-29.334 27.625.458 18.5.458 29 0 31.5-.687 3.75-7.904 12-6.53 13.875 1.375 1.875 38.833.75 38.489.75-.23 0-.115-29.5.344-88.5z"/>
        <path fill="#FFF" fill-rule="nonzero" d="M72.723 61.2v-1.568c-.013-4.54-3.722-8.22-8.298-8.232h-1.58v-4.9h-4.94v4.9h-1.58c-4.584-.015-8.31 3.658-8.325 8.205-.012 3.452 2.148 6.544 5.41 7.744l4.495 1.666v9.335h-1.58c-1.855 0-3.359-1.492-3.359-3.332V73.45h-4.939v1.568c.013 4.54 3.722 8.22 8.298 8.232h8.1c4.584.015 8.31-3.658 8.325-8.205.012-3.452-2.148-6.544-5.41-7.744l-4.495-1.666V56.3h1.58c1.855 0 3.359 1.492 3.359 3.332V61.2h4.939zM65.61 71.882a3.383 3.383 0 0 1 2.173 3.136c0 1.84-1.504 3.332-3.358 3.332h-1.58v-7.497l2.765 1.03zm-7.704-8.085l-2.766-1.029a3.383 3.383 0 0 1-2.173-3.136c0-1.84 1.504-3.332 3.358-3.332h1.58v7.497z"/>
        <g fill-rule="nonzero">
            <path fill="#0A4E8E" d="M105.571 113H76.43A2.433 2.433 0 0 1 74 110.562V63.438A2.433 2.433 0 0 1 76.429 61h29.142A2.433 2.433 0 0 1 108 63.438v47.124a2.433 2.433 0 0 1-2.429 2.438z"/>
            <path fill="#FFF" d="M103.023 65.837H78.977a.804.804 0 0 0-.802.806v8.062c0 .446.36.807.802.807h24.046a.804.804 0 0 0 .802-.807v-8.062a.804.804 0 0 0-.802-.806z"/>
            <path fill="#042A58" d="M93.684 73.093c-.66 0-1.193-.36-1.193-.806v-3.225c0-.446.534-.806 1.193-.806.66 0 1.193.36 1.193.806v3.225c0 .445-.533.806-1.193.806zM97.263 73.093c-.66 0-1.193-.36-1.193-.806v-3.225c0-.446.534-.806 1.193-.806.66 0 1.193.36 1.193.806v3.225c0 .445-.533.806-1.193.806zM100.842 73.093c-.66 0-1.193-.36-1.193-.806v-3.225c0-.446.534-.806 1.193-.806.66 0 1.193.36 1.193.806v3.225c0 .445-.533.806-1.193.806z"/>
            <path fill="#FFF" d="M93.46 91.837h-4.92a.826.826 0 0 1-.82-.831v-4.989c0-.459.367-.831.82-.831h4.92c.453 0 .82.372.82.831v4.989c0 .459-.367.831-.82.831zM85.11 91.837h-4.921a.826.826 0 0 1-.82-.831v-4.989c0-.459.367-.831.82-.831h4.92c.454 0 .82.372.82.831v4.989c0 .459-.366.831-.82.831zM101.811 91.837h-4.92a.826.826 0 0 1-.82-.831v-4.989c0-.459.366-.831.82-.831h4.92c.453 0 .82.372.82.831v4.989c0 .459-.367.831-.82.831zM93.46 100.302h-4.92a.826.826 0 0 1-.82-.831v-4.988c0-.46.367-.832.82-.832h4.92c.453 0 .82.372.82.832v4.988c0 .46-.367.831-.82.831zM85.11 100.302h-4.921a.826.826 0 0 1-.82-.831v-4.988c0-.46.367-.832.82-.832h4.92c.454 0 .82.372.82.832v4.988c0 .46-.366.831-.82.831zM101.811 100.302h-4.92a.826.826 0 0 1-.82-.831v-4.988c0-.46.366-.832.82-.832h4.92c.453 0 .82.372.82.832v4.988c0 .46-.367.831-.82.831zM93.46 108.163h-4.92a.826.826 0 0 1-.82-.832v-4.988c0-.46.367-.831.82-.831h4.92c.453 0 .82.372.82.831v4.988c0 .46-.367.832-.82.832zM85.11 108.163h-4.921a.826.826 0 0 1-.82-.832v-4.988c0-.46.367-.831.82-.831h4.92c.454 0 .82.372.82.831v4.988c0 .46-.366.832-.82.832zM101.811 108.163h-4.92a.826.826 0 0 1-.82-.832v-4.988c0-.46.366-.831.82-.831h4.92c.453 0 .82.372.82.831v4.988c0 .46-.367.832-.82.832z"/>
        </g>
    </g>
</svg>
