<svg xmlns="http://www.w3.org/2000/svg" width="120" height="120" viewBox="0 0 120 120">
    <g fill="none" fill-rule="evenodd">
        <ellipse cx="60" cy="111.375" fill="#EDEFF8" rx="39.75" ry="2.625"/>
        <g fill-rule="nonzero">
            <path fill="#2180EA" d="M59.115 9.408L24.24 21.844a3.75 3.75 0 0 0-2.49 3.532V55.59c0 17.158 7.599 33.705 21.356 44.307 4.869 3.753 10.611 6.982 17.269 8.918 6.658-1.936 12.399-5.165 17.269-8.918C91.4 89.295 99 72.748 99 55.59V25.376c0-1.585-.997-3-2.49-3.532L61.635 9.408a3.75 3.75 0 0 0-2.52 0z"/>
            <path fill="#FFF" fill-opacity=".174" d="M60.75 106.992c-6.12-1.867-11.41-4.914-15.907-8.447C31.899 88.383 24.75 72.522 24.75 56.075V24.579l36-13.079v95.492z"/>
        </g>
        <path fill="#FFF" fill-rule="nonzero" d="M70.625 54.797v-7.734c0-5.685-4.597-10.313-10.25-10.313-5.652 0-10.25 4.628-10.25 10.313v7.734c-2.83 0-5.125 2.309-5.125 5.156v12.89C45 75.693 47.295 78 50.125 78h20.5c2.83 0 5.125-2.308 5.125-5.156V59.953c0-2.847-2.295-5.156-5.125-5.156zm-8.969 12.495v4.263c0 .712-.573 1.289-1.28 1.289a1.284 1.284 0 0 1-1.282-1.29v-4.262c-.752-.448-1.281-1.239-1.281-2.183a2.57 2.57 0 0 1 2.562-2.578 2.57 2.57 0 0 1 2.563 2.578c0 .944-.53 1.735-1.282 2.183zM65.5 54.797H55.25v-7.734c0-2.845 2.298-5.157 5.125-5.157 2.825 0 5.125 2.312 5.125 5.157v7.734z"/>
        <path fill="#0A4E8E" fill-rule="nonzero" d="M90.964 94.354l-4.173.005.017-14.362c4.016-1.208 6.96-4.888 6.97-9.296.003-5.375-4.353-9.731-9.725-9.724-5.38.006-9.746 4.373-9.753 9.752-.005 4.404 2.936 8.08 6.945 9.274l-.032 28.277a2.78 2.78 0 0 0 2.778 2.779 2.799 2.799 0 0 0 2.785-2.785l4.173-.005a1.395 1.395 0 0 0 1.393-1.393l.004-2.782c.001-.77-.62-1.391-1.39-1.39l-4.173.006v-2.786l4.178-.002a1.395 1.395 0 0 0 1.392-1.393l.004-2.782a1.393 1.393 0 0 0-1.393-1.393zm-11.1-23.632a4.191 4.191 0 0 1 4.183-4.182 4.17 4.17 0 0 1 4.167 4.168 4.201 4.201 0 0 1-4.182 4.182 4.169 4.169 0 0 1-4.168-4.168z"/>
    </g>
</svg>
