<svg xmlns="http://www.w3.org/2000/svg" width="120" height="120" viewBox="0 0 120 120">
    <g fill="none" fill-rule="evenodd">
        <g fill-rule="nonzero">
            <path fill="#2180EA" d="M26.943 33.106L7.854 73.146l-2.708-1.292 21.911-45.96 20.817 47.504-2.748 1.204z"/>
            <path fill="#2180EA" d="M47.259 71.25H5.49c-.962 0-1.74.776-1.74 1.732 0 10.505 10.149 19.052 22.624 19.052 12.474 0 22.624-8.547 22.624-19.052 0-.956-.778-1.732-1.74-1.732z"/>
            <path fill="#FFF" fill-opacity=".1" d="M26.698 89h-.095C15.656 89 6.75 82.832 6.75 75.25c0-.69.683-1.25 1.527-1.25h18.42v15z"/>
        </g>
        <g fill-rule="nonzero">
            <path fill="#2180EA" d="M92.943 33.106l-19.089 40.04-2.708-1.292 21.911-45.96 20.817 47.504-2.748 1.204z"/>
            <path fill="#2180EA" d="M113.259 71.25H71.49c-.962 0-1.74.776-1.74 1.732 0 10.505 10.149 19.052 22.624 19.052 12.474 0 22.624-8.547 22.624-19.052 0-.956-.778-1.732-1.74-1.732z"/>
            <path fill="#FFF" fill-opacity=".1" d="M92.698 89h-.095C81.656 89 72.75 82.832 72.75 75.25c0-.69.683-1.25 1.527-1.25h18.42v15z"/>
        </g>
        <path fill="#0A4E8E" fill-rule="nonzero" d="M13.842 21.954a1.5 1.5 0 0 1 2.316-1.908C20.565 25.397 24.238 28 27 28c1.705 0 5.097-1.446 15.484-6.356l.626-.296C52.768 16.79 57.196 15 60 15c2.804 0 7.232 1.79 16.89 6.348l.626.296C87.903 26.554 91.296 28 93 28c2.761 0 6.435-2.603 10.842-7.954a1.5 1.5 0 1 1 2.316 1.908C101.23 27.936 96.905 31 93 31c-2.42 0-5.382-1.262-16.766-6.644l-.625-.295C66.62 19.817 62.121 18 60 18c-2.121 0-6.619 1.817-15.61 6.061l-.624.295C32.382 29.738 29.42 31 27 31c-3.905 0-8.231-3.064-13.158-9.046z"/>
        <g transform="translate(2.25 10)">
            <ellipse cx="57.75" cy="101.375" fill="#EDEFF8" rx="57.75" ry="2.625"/>
            <g fill-rule="nonzero" transform="translate(19.5)">
                <path fill="#2180EA" d="M36 90.917V11h5v79.917"/>
                <path fill="#0A4E8E" d="M38.541 85.25c-7.713 0-13.99 6.28-13.99 14a1.749 1.749 0 1 0 3.498 0h20.985a1.749 1.749 0 1 0 3.497 0c0-7.72-6.276-14-13.99-14z"/>
                <path fill="#0A4E8E" d="M59.526 101H17.557a1.749 1.749 0 0 1-1.749-1.75c0-.966.782-1.75 1.749-1.75h41.969c.967 0 1.749.784 1.749 1.75s-.782 1.75-1.75 1.75z"/>
                <ellipse cx="5.316" cy="19.25" fill="#0A4E8E" rx="5.246" ry="5.25"/>
                <ellipse cx="71.184" cy="19.25" fill="#0A4E8E" rx="5.246" ry="5.25"/>
                <ellipse cx="38.541" cy="7" fill="#0A4E8E" rx="6.995" ry="7"/>
            </g>
        </g>
    </g>
</svg>
