<svg xmlns="http://www.w3.org/2000/svg" xmlns:xlink="http://www.w3.org/1999/xlink" width="120" height="120" viewBox="0 0 120 120">
    <defs>
        <circle id="a" cx="16.5" cy="16.5" r="16.5"/>
        <circle id="c" cx="34.5" cy="34.5" r="34.5"/>
    </defs>
    <g fill="none" fill-rule="evenodd">
        <circle cx="99.5" cy="91.5" r="9.5" fill="#0A4E8E"/>
        <path fill="#0A4E8E" fill-rule="nonzero" d="M67.96 53.652l-1.92-2.304 12-10 1.92 2.304zM73 85.885L73.824 83l24.5 7-.824 2.885z"/>
        <ellipse cx="60" cy="111.375" fill="#EDEFF8" rx="54.875" ry="2.625"/>
        <g transform="translate(74 15)">
            <mask id="b" fill="#fff">
                <use xlink:href="#a"/>
            </mask>
            <use fill="#0A4E8E" fill-rule="nonzero" stroke="#0A4E8E" stroke-width="5" xlink:href="#a"/>
            <g fill="#FFF" mask="url(#b)">
                <path fill-opacity=".1" d="M16.5 33V0C7.387 0 0 7.387 0 16.5S7.387 33 16.5 33z"/>
                <g fill-rule="nonzero">
                    <path d="M27.583 31.056s2.978-2.953 1.634-2.336c-.378-.278-1-4.143-3.25-5.393-1.501-.552-3.634-.668-5-1.5l-4.376 8-4.624-8a12.186 12.186 0 0 1-4.75 1.5c-2.5.25-3.377 4.583-3.75 4.868-1.344-.608-.008 9.864 2 6.882l22.116-4.021zM12.161 16.42a5.486 5.486 0 0 0 3.386 4.192 3.654 3.654 0 0 0 2.489 0 5.596 5.596 0 0 0 3.395-4.192c.26 0 .598-.388.996-1.693.508-1.772 0-2.041-.488-1.991.084-.238.15-.48.2-.727.716-4.62-.708-6.164-2.928-5.168-.338-.525-5.994-1.991-7.568 0-1.573 1.992-.089 5.65 0 5.885-.468 0-.995.219-.497 1.991.388 1.315.726 1.673 1.015 1.703z"/>
                </g>
            </g>
        </g>
        <g transform="translate(11 38)">
            <mask id="d" fill="#fff">
                <use xlink:href="#c"/>
            </mask>
            <use fill="#2180EA" fill-rule="nonzero" stroke="#2180EA" stroke-width="5" xlink:href="#c"/>
            <g fill="#FFF" mask="url(#d)">
                <path fill-opacity=".1" d="M34.65 68.75V0C15.513 0 0 15.39 0 34.375S15.513 68.75 34.65 68.75z"/>
                <g fill-rule="nonzero">
                    <path d="M57.924 66.7s6.254-6.153 3.431-4.866c-.793-.579-2.1-8.631-6.825-11.235-3.152-1.152-7.63-1.393-10.5-3.125L34.842 64.14 25.13 47.474c-3.15 1.736-6.475 2.778-9.975 3.125-5.25.52-7.092 9.546-7.875 10.14-2.823-1.265-.017 20.551 4.2 14.339L57.924 66.7zM25.538 36.208a11.45 11.45 0 0 0 7.11 8.733 7.732 7.732 0 0 0 5.227 0 11.679 11.679 0 0 0 7.13-8.733c.544 0 1.255-.809 2.092-3.526 1.066-3.693 0-4.253-1.025-4.15.175-.494.315-1 .418-1.514 1.506-9.625-1.484-12.84-6.147-10.766-.709-1.094-12.588-4.149-15.892 0-3.304 4.15-.187 11.77 0 12.26-.983 0-2.09.456-1.045 4.149.815 2.738 1.526 3.485 2.132 3.547z"/>
                </g>
            </g>
        </g>
    </g>
</svg>
