<svg xmlns="http://www.w3.org/2000/svg" xmlns:xlink="http://www.w3.org/1999/xlink" width="1000" height="252" viewBox="0 0 1000 252">
    <defs>
        <path id="a" d="M0 0h1000v252H0z"/>
    </defs>
    <g fill="none" fill-rule="evenodd">
        <mask id="b" fill="#fff">
            <use xlink:href="#a"/>
        </mask>
        <use fill="#FFF" xlink:href="#a"/>
        <g mask="url(#b)">
            <g fill-rule="nonzero" transform="translate(60 217)">
                <ellipse cx="13.941" cy="14.486" fill="#D1D4EB" rx="10.653" ry="10.668" transform="rotate(-22.5 13.941 14.486)"/>
                <path fill="#5B3939" d="M15.515 38.541h-2.979v-21.68c0-.802.688-1.49 1.49-1.49.801 0 1.489.688 1.489 1.49v21.68z"/>
            </g>
            <g fill-rule="nonzero">
                <path fill="#D1D4EB" d="M411.885 166.398l-11.689-1.265-50.308 1.15V77.055H327.084V88.9h-22.805V257.12H446.264v-108.66h-34.38zM970.835 147.695l-15.988.816V125h-38.852v25.494l-15.495 1.7v-32.491h-25.72V110H856.099v9.703h-18.683v32.49L795 167.975v89.544h120.995l55.967-3.835H999V91h-28.165z" opacity=".397"/>
                <path fill="#1DA2DB" d="M356.334 95.092h33.418v161.043h-33.418z"/>
                <path fill="#1DA2DB" d="M365.331 86.718h15.424v9.018h-15.424zM368.544 81.565h8.997v5.153h-8.997z"/>
                <path fill="#1DA2DB" d="M372.4 94.448l.75-38.006.536 38.006z"/>
                <path fill="#FFF" d="M371.115 106.687h3.856v3.865h-3.856zM371.115 118.282h3.856v3.865h-3.856zM371.115 129.878h3.856v3.865h-3.856zM371.115 140.829h3.856v3.865h-3.856zM371.115 152.424h3.856v3.865h-3.856zM371.115 164.019h3.856v3.865h-3.856zM371.115 174.97h3.856v3.865h-3.856zM371.115 186.565h3.856v3.865h-3.856zM371.115 198.16h3.856v3.865h-3.856z"/>
                <path fill="#D1D4EB" d="M553.912 127.846H528.82v38.535h-36.903V121.205h-45.61v136.014H588.291V109.908h-34.379z" opacity=".397"/>
                <path fill="#D1D4EB" d="M691.44 141.48l-25.092-10.959V97.67h-36.904v43.81-1.494H583.835v117.556H725.82V110.23h-34.38z" opacity=".397"/>
                <g fill="#EDEFF8">
                    <path d="M36 254.566h14.668V185L36 190.864zM-10 254.566H4.668V185L-10 190.864zM67.96 185.648H51v69.566h30.827V173l-13.867 7.014z"/>
                    <path d="M21.96 185.648H5v69.566h45.5V173H35.826l-13.866 7.014z"/>
                </g>
                <path fill="#D3F1FE" d="M166.68 101.85l-19.023-28.056c.916-.23 1.718-1.15 1.718-2.185a2.18 2.18 0 0 0-2.177-2.184h-.458V50.337h-2.98v19.088h-.229c-1.26 0-2.177 1.035-2.177 2.184 0 1.035.802 1.955 1.833 2.185l-16.502 28.056v58.183H98.61v82.214h32.431v-2.875h3.667v2.875h2.407v-2.875h3.667v2.875h2.75v-2.875h3.667v2.875h24.295V172.68l-4.699 2.415V101.85h-.114z"/>
                <path fill="#D3F1FE" d="M208.049 172.68l-14.669 5.865v-5.864h-22.002v69.566h66.007V172.68z"/>
                <path fill="#D1D4EB" d="M736.145 106.687h58.444v152.93h-58.444z" opacity=".397"/>
            </g>
            <path fill="#FFF" fill-rule="nonzero" d="M659.779 225.834h-53.712 53.712z"/>
            <path fill="#0A4E8E" fill-rule="nonzero" d="M758.678 149.372v-53.68h-39.493v53.68h-10.532v59.773h59.64v-59.773z"/>
            <path fill="#2180EA" fill-rule="nonzero" d="M760.738 146.958V93.622c-4.922-.804-10.302-4.827-13.85-11.035-1.146-2.069-2.061-4.253-2.634-6.322h-12.592c-.572 2.3-1.488 4.483-2.747 6.782-3.434 5.977-8.586 9.886-13.394 10.92v53.106h-8.356V255.7h62.044V147.073h-8.47v-.115zm-37.776 43.68h-10.99v-11.724c0-3.104 2.52-5.633 5.61-5.633 2.976 0 5.38 2.414 5.38 5.403v11.955zm0-21.15h-10.99v-11.84c0-3.103 2.52-5.632 5.61-5.632 2.976 0 5.38 2.414 5.38 5.403v12.07zm14.31 21.15h-10.99v-11.84a5.507 5.507 0 0 1 5.495-5.517 5.507 5.507 0 0 1 5.494 5.518v11.84zm0-21.15h-10.99v-11.84a5.507 5.507 0 0 1 5.495-5.517 5.507 5.507 0 0 1 5.494 5.517v11.84zm14.309 21.15h-10.99v-11.724c0-3.104 2.519-5.633 5.61-5.633 2.976 0 5.38 2.414 5.38 5.403v11.955zm0-21.15h-10.99v-11.84a5.507 5.507 0 0 1 5.495-5.517 5.507 5.507 0 0 1 5.495 5.517v11.84zm14.309 21.15H754.9v-11.724c0-3.104 2.519-5.633 5.61-5.633 2.976 0 5.38 2.414 5.38 5.403v11.955zm0-21.15H754.9v-11.84a5.507 5.507 0 0 1 5.495-5.517 5.507 5.507 0 0 1 5.495 5.517v11.84z"/>
            <path fill="#000" fill-rule="nonzero" d="M748.948 85.576c-.687-.92-1.488-1.954-2.06-3.104-1.146-2.069-2.061-4.253-2.634-6.322h-12.592c-.572 2.3-1.488 4.483-2.747 6.782-.573.92-1.145 1.84-1.717 2.644h21.75z" opacity=".15"/>
            <path fill="#0A4E8E" fill-rule="nonzero" d="M739.56 67.184c-.343-.46-.8-.804-1.373-.804-.572 0-1.145.345-1.488.804-2.404 3.909-7.097 7.472-7.097 10.346 0 1.15.343 2.299.915 3.218h15.225c.573-.92.916-2.069.916-3.218.115-2.874-4.579-6.437-7.097-10.346z"/>
            <path fill="#2180EA" fill-rule="nonzero" d="M707.165 199.72h62.045v48.967h-62.045z" opacity=".15"/>
            <path fill="#000" fill-rule="nonzero" d="M707.165 199.72h62.045v3.792h-62.045z" opacity=".15"/>
            <path fill="#042A58" fill-rule="nonzero" d="M753.641 221.1c0-8.851-7.212-16.093-16.026-16.093-8.815 0-16.026 7.242-16.026 16.093v34.484h32.052V221.1z"/>
            <g stroke="#D4E5E6" stroke-linecap="round" stroke-width="1.5">
                <path d="M733.837 227.422v5.747M741.392 227.422v5.747"/>
            </g>
            <path fill="#0A4E8E" fill-rule="nonzero" d="M737.615 205.007h-1.03v50.462h2.175v-50.462h-1.145z"/>
            <path fill="#2180EA" fill-rule="nonzero" d="M701.784 248.802h72.576v6.782h-72.576z"/>
            <path fill="#042A58" fill-rule="nonzero" d="M704.761 146.153h66.051v1.954h-66.05z"/>
            <g stroke="#2180EA" stroke-linecap="round">
                <path d="M722.848 157.419c0-2.99-2.404-5.403-5.38-5.403-2.977 0-5.38 2.414-5.38 5.403v12.07h10.76v-12.07zM717.468 152.016v17.472M711.973 164.086h10.76M711.973 159.143h10.76"/>
            </g>
            <g stroke="#2180EA" stroke-linecap="round">
                <path d="M737.157 157.419c0-2.99-2.404-5.403-5.38-5.403-2.977 0-5.38 2.414-5.38 5.403v12.07h10.76v-12.07zM731.777 152.13v17.358M726.282 164.2h10.76M726.282 159.143h10.76"/>
            </g>
            <g fill="#0A4E8E" fill-rule="nonzero">
                <path d="M729.258 124.314c-2.518 0-4.579 2.069-4.579 4.597v9.771h9.273v-9.77c0-2.53-2.175-4.598-4.694-4.598zM747.116 124.314c-2.518 0-4.579 2.069-4.579 4.597v9.771h9.273v-9.77c0-2.53-2.175-4.598-4.694-4.598zM729.487 103.738c-2.518 0-4.579 2.069-4.579 4.598v9.77h9.273v-9.77c0-2.53-2.06-4.598-4.694-4.598zM747.345 103.738c-2.518 0-4.579 2.069-4.579 4.598v9.77h9.272v-9.77c0-2.53-2.06-4.598-4.693-4.598z"/>
            </g>
            <g stroke="#2180EA" stroke-linecap="round">
                <path d="M734.066 129.026c0-2.299-2.079-4.253-4.808-4.253-2.599 0-4.808 1.84-4.808 4.253v9.311h9.486v-9.31h.13z"/>
                <path stroke-width=".75" d="M729.258 124.888v13.45M725.023 134.199h8.356M725.023 130.29h8.356"/>
            </g>
            <g stroke="#2180EA" stroke-linecap="round">
                <path d="M751.58 129.026c0-2.299-1.93-4.253-4.464-4.253-2.534 0-4.464 1.84-4.464 4.253v9.311h8.808v-9.31h.12z"/>
                <path stroke-width=".75" d="M747.116 124.888v13.45M742.88 134.199h8.357M742.88 130.29h8.357"/>
            </g>
            <g stroke="#2180EA" stroke-linecap="round">
                <path d="M734.18 108.336c0-2.3-2.029-4.253-4.693-4.253-2.537 0-4.693 1.839-4.693 4.253v9.31h9.26v-9.31h.127zM729.487 104.198v13.563M725.252 113.623h8.356M725.252 109.715h8.356"/>
            </g>
            <g stroke="#2180EA" stroke-linecap="round">
                <path d="M752.267 108.336c0-2.3-2.128-4.253-4.922-4.253-2.66 0-4.922 1.839-4.922 4.253v9.31h9.711v-9.31h.133zM747.345 104.198v13.563M743.11 113.623h8.356M743.11 109.715h8.356"/>
            </g>
            <g stroke="#2180EA" stroke-linecap="round">
                <path d="M751.466 157.419c0-2.99-2.404-5.403-5.38-5.403s-5.38 2.414-5.38 5.403v12.07h10.76v-12.07zM746.086 152.016v17.472M740.591 164.086h10.76M740.591 159.143h10.76"/>
            </g>
            <g stroke="#2180EA" stroke-linecap="round">
                <path d="M765.775 157.533c0-2.988-2.404-5.402-5.38-5.402s-5.38 2.414-5.38 5.402v12.07h10.76v-12.07zM760.395 152.13v17.358M754.9 164.2h10.76M754.9 159.143h10.76"/>
            </g>
            <g stroke="#2180EA" stroke-linecap="round" stroke-width=".75">
                <path d="M722.962 178.569c0-2.989-2.404-5.403-5.38-5.403s-5.38 2.414-5.38 5.403v12.07h10.76v-12.07zM717.582 173.281v17.358M712.087 185.35h10.76M712.087 180.293h10.76"/>
            </g>
            <g stroke="#2180EA" stroke-linecap="round" stroke-width=".75">
                <path d="M737.157 178.569c0-2.989-2.404-5.403-5.38-5.403-2.977 0-5.38 2.414-5.38 5.403v12.07h10.76v-12.07zM731.777 173.281v17.358M726.282 185.35h10.875M726.282 180.293h10.875"/>
            </g>
            <g stroke="#2180EA" stroke-linecap="round" stroke-width=".75">
                <path d="M751.58 178.569c0-2.989-2.403-5.403-5.38-5.403-2.976 0-5.38 2.414-5.38 5.403v12.07h10.76v-12.07zM746.086 173.281v17.358M740.706 185.35h10.76M740.706 180.293h10.76"/>
            </g>
            <g stroke="#2180EA" stroke-linecap="round" stroke-width=".75">
                <path d="M765.89 178.684c0-2.989-2.404-5.403-5.38-5.403-2.977 0-5.38 2.414-5.38 5.403v12.07h10.76v-12.07zM760.51 173.281v17.472M755.015 185.35h10.76M755.015 180.408h10.76"/>
            </g>
            <path fill="#042A58" fill-rule="nonzero" d="M704.761 193.972h66.051v5.747h-66.05z"/>
            <path fill="#FFF" fill-rule="nonzero" d="M715.899 88.988v55.863h-3.793V88.988z"/>
            <path fill="#000" fill-rule="nonzero" d="M715.521 140.406h45.217v6.437h-45.217zM711.973 98.68h52.658v3.333h-52.658z" opacity=".15"/>
            <path fill="#FFF" fill-rule="nonzero" d="M717.468 88.91c0 1.954-1.603 3.563-3.55 3.563-1.945 0-3.548-1.61-3.548-3.563 0-1.955 1.603-3.564 3.549-3.564s3.549 1.61 3.549 3.564zM764.327 89.097v55.863h-3.793V89.097z"/>
            <path fill="#FFF" fill-rule="nonzero" d="M765.89 88.91c0 1.954-1.603 3.563-3.549 3.563s-3.549-1.61-3.549-3.563c0-1.955 1.603-3.564 3.55-3.564 1.945 0 3.548 1.61 3.548 3.564z"/>
            <path stroke="#FFF" stroke-linecap="round" stroke-width="2" d="M730.289 80.288h15.453"/>
            <path fill="#5B3939" fill-rule="nonzero" d="M710.484 94.427h55.291v4.368h-55.29z"/>
            <g fill-rule="nonzero">
                <path fill="#D3F1FE" d="M605.173 175.39h105.52v78.88h-105.52z"/>
                <path fill="#EFFAFF" d="M605.173 196.349h105.062v57.807H605.173zM605.173 183.452h105.062v5.873H605.173z"/>
                <g fill="#1DA2DB">
                    <path d="M619.051 203.373h5.85v12.32h-5.85zM629.373 203.373h5.85v12.32h-5.85zM639.811 203.373h5.85v12.32h-5.85zM650.248 203.373h5.85v12.32h-5.85zM660.686 203.373h5.85v12.32h-5.85zM671.008 203.373h5.85v12.32h-5.85zM681.446 203.373h5.85v12.32h-5.85zM691.883 203.373h5.85v12.32h-5.85zM619.051 218.689h5.85v12.32h-5.85zM629.373 218.689h5.85v12.32h-5.85zM639.811 218.689h5.85v12.32h-5.85zM650.248 218.689h5.85v12.32h-5.85zM660.686 218.689h5.85v12.32h-5.85zM671.008 218.689h5.85v12.32h-5.85zM681.446 218.689h5.85v12.32h-5.85zM691.883 218.689h5.85v12.32h-5.85zM619.051 234.004h5.85v12.32h-5.85zM629.373 234.004h5.85v12.32h-5.85zM639.811 234.004h5.85v12.32h-5.85zM650.248 234.004h5.85v12.32h-5.85zM660.686 234.004h5.85v12.32h-5.85zM671.008 234.004h5.85v12.32h-5.85zM681.446 234.004h5.85v12.32h-5.85zM691.883 234.004h5.85v12.32h-5.85z"/>
                </g>
                <path fill="#2F86C5" d="M601.732 236.077h-50.926v-93.39l50.926-10.593z"/>
                <path fill="#59CFFA" d="M550.806 138.773V254.27h54.481V125.069l-54.48 13.704zm40.374-4.837h6.537v6.564h-6.537v-6.564zm0 10.94h6.537v6.563h-6.537v-6.563zm0 10.94h6.537v6.563h-6.537v-6.564zm0 11.054h6.537v6.564h-6.537v-6.564zm-26.495 50.322h-6.538v-6.564h6.538v6.564zm0-10.825h-6.538v-6.563h6.538v6.563zm0-11.054h-6.538v-6.564h6.538v6.564zm0-10.94h-6.538v-6.564h6.538v6.564zm0-10.94h-6.538v-6.563h6.538v6.564zm0-11.054h-6.538v-6.564h6.538v6.564zm0-10.94h-6.538v-6.563h6.538v6.563zm11.24 76.692h-6.538v-6.564h6.538v6.564zm0-10.94h-6.538v-6.563h6.538v6.564zm0-10.824h-6.538v-6.563h6.538v6.563zm0-11.054h-6.538v-6.564h6.538v6.564zm0-10.94h-6.538v-6.564h6.538v6.564zm0-10.94h-6.538v-6.563h6.538v6.564zm0-11.054h-6.538v-6.564h6.538v6.564zm0-10.94h-6.538v-6.563h6.538v6.563zm4.014-6.563h6.538v6.563h-6.538v-6.563zm6.653 83.255h-6.538v-6.564h6.538v6.564zm0-10.94h-6.538v-6.563h6.538v6.564zm0-10.824h-6.538v-6.563h6.538v6.563zm0-11.054h-6.538v-6.564h6.538v6.564zm0-10.94h-6.538v-6.564h6.538v6.564zm.23-10.94h-6.539v-6.563h6.538v6.564zm0-11.054h-6.539v-6.564h6.538v6.564zm4.128 15.43h6.538v6.564h-6.538v-6.564zm6.882 50.322h-6.538v-6.564h6.538v6.564zm0-10.94h-6.538v-6.563h6.538v6.564zm0-10.824h-6.538v-6.563h6.538v6.563zm0-11.054h-6.538v-6.564h6.538v6.564z"/>
                <path fill="#1DA2DB" d="M605.173 174.009h108.732v3.224H605.173z"/>
            </g>
            <g>
                <path fill="#2180EA" fill-rule="nonzero" d="M838.863 169.12h64.892v86.785h-64.892z"/>
                <path fill="#000" fill-rule="nonzero" d="M838.863 169.12h64.892v7.462h-64.892z" opacity=".21"/>
                <path fill="#D3F1FE" fill-rule="nonzero" d="M852.9 186.454h36.933v18.252H852.9z"/>
                <path stroke="#2180EA" stroke-width="2" d="M852.9 186.225h36.933v18.252H852.9z"/>
                <g stroke="#2180EA" stroke-width="2">
                    <path d="M864.866 186.225v18.252M877.867 186.225v18.252"/>
                </g>
                <path fill="#042A58" fill-rule="nonzero" d="M850.484 205.166h41.65v3.444h-41.65z"/>
                <path fill="#D3F1FE" fill-rule="nonzero" d="M852.9 219.745h36.933v18.252H852.9z"/>
                <path stroke="#2180EA" stroke-width="2" d="M852.9 219.745h36.933v18.252H852.9z"/>
                <g stroke="#2180EA" stroke-width="2">
                    <path d="M864.866 219.745v18.252M877.867 219.745v18.252"/>
                </g>
                <path fill="#042A58" fill-rule="nonzero" d="M850.484 238.687h41.65v3.444h-41.65z"/>
                <path fill="#0A4E8E" fill-rule="nonzero" d="M836.562 171.416v-4.591h69.61v4.591z"/>
                <path fill="#000" fill-rule="nonzero" d="M893.86 211.365h-40.845l-2.301-2.755h41.42zM893.285 244.655h-39.12l-1.725-2.87h38.544z" opacity=".21"/>
            </g>
            <path stroke="#2180EA" stroke-width="2" d="M851.823 227.147h41.793"/>
            <g>
                <path fill="#2180EA" fill-rule="nonzero" d="M483.093 255.664h-30.36V217.82l30.36-12.576z"/>
                <path stroke="#042A58" stroke-linecap="round" stroke-width="4" d="M452.848 217.898l30.36-12.576"/>
                <path fill="#2180EA" fill-rule="nonzero" d="M483.208 179.94h56.466v75.916h-56.466z"/>
                <path fill="#000" fill-rule="nonzero" d="M483.208 179.94h56.466v6.46h-56.466z" opacity=".21"/>
                <path fill="#D3F1FE" fill-rule="nonzero" d="M495.399 194.823h32.086v15.922h-32.086z"/>
                <path stroke="#2180EA" d="M495.399 194.823h32.086v15.922h-32.086z"/>
                <g stroke="#2180EA" stroke-width="2">
                    <path d="M505.864 194.823v15.922M527.992 200.275h-32.776M517.019 194.823v15.922"/>
                </g>
                <path fill="#042A58" fill-rule="nonzero" d="M493.329 211.322h36.226v3h-36.226z"/>
                <path fill="#D3F1FE" fill-rule="nonzero" d="M495.399 224.128h32.086v15.922h-32.086z"/>
                <path stroke="#2180EA" d="M495.399 224.128h32.086v15.922h-32.086z"/>
                <g stroke="#2180EA" stroke-width="2">
                    <path d="M505.864 224.128v15.922M517.019 224.128v15.922"/>
                </g>
                <path fill="#042A58" fill-rule="nonzero" d="M493.329 240.627h36.226v3h-36.226z"/>
                <path stroke="#2180EA" stroke-width="2" d="M527.992 230.55h-32.776"/>
                <path stroke="#042A58" stroke-linecap="square" stroke-width="4" d="M483.208 179.94h56.466"/>
                <path fill="#000" fill-rule="nonzero" d="M533.694 219.283H497.47l-4.14-4.962h36.225zM533.694 248.472H497.47l-4.14-4.846h36.225z" opacity=".21"/>
                <path fill="#EFFAFF" fill-rule="nonzero" d="M461.243 223.783h13.57v13.614h-13.57z"/>
                <path stroke="#2180EA" d="M461.243 223.783h13.57v13.614h-13.57z"/>
            </g>
            <g>
                <path stroke="#2180EA" stroke-width="2" d="M459.802 231.012h15.44M468.255 221.994v15.984"/>
                <path fill="#1DA2DB" fill-rule="nonzero" d="M362.76 217.485v38.65h90.616v-38.65H362.76zm72.177 31.297h-4.141v-4.173h4.141v4.173zm0-6.955h-4.141v-4.173h4.141v4.173zm0-7.054h-4.141V230.6h4.141v4.173zm0-7.054h-4.141v-4.173h4.141v4.173zm7.1 21.063h-4.142v-4.173h4.141v4.173zm0-6.955h-4.142v-4.173h4.141v4.173zm0-7.054h-4.142V230.6h4.141v4.173zm0-7.054h-4.142v-4.173h4.141v4.173zm6.803 21.063h-4.141v-4.173h4.14v4.173zm0-6.955h-4.141v-4.173h4.14v4.173zm0-7.054h-4.141V230.6h4.14v4.173zm0-7.054h-4.141v-4.173h4.14v4.173z"/>
                <path fill="#042A58" fill-rule="nonzero" d="M362.761 252.27h90.615v3.865h-90.615z"/>
                <path fill="#59CFFA" fill-rule="nonzero" d="M421.885 219.417l16.71-29.632 16.708 29.632z"/>
                <g fill-rule="nonzero">
                    <path fill="#042A58" d="M402.41 236.084c0-5.037-4.022-9.186-9.123-9.186-5.1 0-9.122 4.05-9.122 9.186v19.557h18.146v-19.557h.098z"/>
                    <path fill="#1DA2DB" d="M393.287 226.997h-.588v28.644h1.177v-28.644h-.589z"/>
                </g>
                <path fill="#0A4E8E" fill-rule="nonzero" d="M405.667 228.939h13.27v13.588h-13.27z"/>
                <path fill="#1DA2DB" fill-rule="nonzero" d="M418.115 229.78v11.905H406.49V229.78h11.625zm1.01-1.035H405.48v13.975h13.647v-13.975z"/>
                <path stroke="#1DA2DB" stroke-width="2" d="M406.454 235.683h11.696M412.351 229.08v13.528"/>
                <path fill="#0A4E8E" fill-rule="nonzero" d="M421.296 244.238h-13.27l-2.358-1.711h13.269z" opacity=".3"/>
                <g>
                    <path fill="#0A4E8E" fill-rule="nonzero" d="M367.456 228.939h13.27v13.588h-13.27z"/>
                    <path fill="#1DA2DB" fill-rule="nonzero" d="M379.827 229.859v11.748h-11.473V229.86h11.473zm.997-1.022h-13.467v13.792h13.467v-13.792z"/>
                    <path stroke="#1DA2DB" stroke-width="2" d="M368.242 235.683h11.697M374.14 229.08v12.44"/>
                    <path fill="#0A4E8E" fill-rule="nonzero" d="M383.084 244.238h-13.27l-2.358-1.711h13.269z" opacity=".3"/>
                </g>
                <path fill="#042A58" fill-rule="nonzero" d="M419.516 205.245H363.3l-6.966 14.172h70.05z"/>
            </g>
            <g>
                <path stroke="#2180EA" stroke-width="2" d="M1009.468 229.227h15.44M1017.92 220.209v15.984"/>
                <path fill="#1DA2DB" fill-rule="nonzero" d="M912.427 215.7v38.65h90.614V215.7h-90.614zm72.176 31.297h-4.141v-4.173h4.14v4.173zm0-6.955h-4.141v-4.173h4.14v4.173zm0-7.054h-4.141v-4.173h4.14v4.173zm0-7.055h-4.141v-4.173h4.14v4.173zm7.1 21.064h-4.142v-4.173h4.141v4.173zm0-6.955h-4.142v-4.173h4.141v4.173zm0-7.054h-4.142v-4.173h4.141v4.173zm0-7.055h-4.142v-4.173h4.141v4.173zm6.803 21.064h-4.142v-4.173h4.142v4.173zm0-6.955h-4.142v-4.173h4.142v4.173zm0-7.054h-4.142v-4.173h4.142v4.173zm0-7.055h-4.142v-4.173h4.142v4.173z"/>
                <path fill="#042A58" fill-rule="nonzero" d="M912.427 253.485h90.615v3.865h-90.615z"/>
                <path fill="#59CFFA" fill-rule="nonzero" d="M971.551 217.632L988.261 188l16.708 29.632z"/>
                <g fill-rule="nonzero">
                    <path fill="#042A58" d="M952.075 234.299c0-5.038-4.022-9.186-9.122-9.186s-9.123 4.05-9.123 9.186v19.557h18.147v-19.557h.098z"/>
                    <path fill="#1DA2DB" d="M942.953 225.212h-.589v28.644h1.177v-28.644h-.588z"/>
                </g>
                <path fill="#0A4E8E" fill-rule="nonzero" d="M955.333 227.153h13.269v13.588h-13.269z"/>
                <path fill="#1DA2DB" fill-rule="nonzero" d="M967.78 227.995V239.9h-11.625v-11.905h11.626zm1.011-1.035h-13.647v13.975h13.647V226.96z"/>
                <path stroke="#1DA2DB" stroke-width="2" d="M956.12 233.897h11.696M962.017 227.294v13.529"/>
                <path fill="#0A4E8E" fill-rule="nonzero" d="M970.961 242.453h-13.269l-2.359-1.711h13.27z" opacity=".3"/>
                <g>
                    <path fill="#0A4E8E" fill-rule="nonzero" d="M917.122 227.153h13.27v13.588h-13.27z"/>
                    <path fill="#1DA2DB" fill-rule="nonzero" d="M929.493 228.073v11.749H918.02v-11.749h11.473zm.997-1.021h-13.468v13.791h13.468v-13.791z"/>
                    <path stroke="#1DA2DB" stroke-width="2" d="M917.908 233.897h11.696M923.805 227.294v12.441"/>
                    <path fill="#0A4E8E" fill-rule="nonzero" d="M932.75 242.453h-13.27l-2.358-1.711h13.269z" opacity=".3"/>
                </g>
                <path fill="#042A58" fill-rule="nonzero" d="M969.182 203.46h-56.216L906 217.632h70.05z"/>
            </g>
            <g fill-rule="nonzero" transform="translate(524.71 204.601)">
                <ellipse cx="15.883" cy="16.033" fill="#D1D4EB" rx="15.607" ry="15.575"/>
                <path fill="#5B3939" d="M18.178 51.19h-4.36V19.583c0-1.145.917-2.176 2.18-2.176 1.262 0 2.18.916 2.18 2.176V51.19z"/>
            </g>
            <g fill-rule="nonzero" transform="translate(882.028 193.65)">
                <ellipse cx="14.48" cy="21.164" fill="#7184C8" rx="14.326" ry="21.005"/>
                <path fill="#3D2626" d="M16.64 62.026h-4.32v-31.68c0-1.147.909-2.18 2.16-2.18 1.25 0 2.16.918 2.16 2.18v31.68z"/>
            </g>
            <g fill-rule="nonzero" transform="translate(579.336 193.65)">
                <ellipse cx="14.48" cy="21.164" fill="#7184C8" rx="14.326" ry="21.005"/>
                <path fill="#3D2626" d="M16.64 62.026h-4.32v-31.68c0-1.147.909-2.18 2.16-2.18 1.25 0 2.16.918 2.16 2.18v31.68z"/>
            </g>
            <g fill-rule="nonzero" transform="translate(932.798 193.65)">
                <ellipse cx="14.593" cy="21.234" fill="#7184C8" rx="14.326" ry="21.005"/>
                <path fill="#3D2626" d="M16.754 62.21h-4.321V30.532c0-1.147.91-2.18 2.16-2.18 1.251 0 2.16.918 2.16 2.18v31.68z"/>
            </g>
            <g fill-rule="nonzero" transform="translate(902.593 204.601)">
                <ellipse cx="16.066" cy="15.918" fill="#D1D4EB" rx="15.672" ry="15.575"/>
                <path fill="#5B3939" d="M18.371 51.076h-4.379V19.468c0-1.145.922-2.176 2.19-2.176 1.267 0 2.19.917 2.19 2.176v31.608z"/>
            </g>
            <g fill-rule="nonzero" transform="translate(599.901 204.601)">
                <ellipse cx="16.066" cy="15.918" fill="#D1D4EB" rx="15.672" ry="15.575"/>
                <path fill="#5B3939" d="M18.371 51.076h-4.379V19.468c0-1.145.922-2.176 2.19-2.176 1.267 0 2.19.917 2.19 2.176v31.608z"/>
            </g>
            <g fill-rule="nonzero" transform="translate(860.82 216.196)">
                <ellipse cx="15.08" cy="15.562" fill="#7184C8" rx="10.625" ry="10.612" transform="rotate(-50.653 15.08 15.562)"/>
                <path fill="#5B3939" d="M16.68 39.482h-2.97V17.915c0-.798.686-1.483 1.485-1.483.8 0 1.486.685 1.486 1.483v21.567z"/>
            </g>
            <g fill-rule="nonzero" transform="translate(747.713 216.196)">
                <ellipse cx="15.08" cy="15.562" fill="#D1D4EB" rx="10.625" ry="10.612" transform="rotate(-50.653 15.08 15.562)"/>
                <path fill="#5B3939" d="M16.68 39.482h-2.97V17.915c0-.798.686-1.483 1.485-1.483.8 0 1.486.685 1.486 1.483v21.567z"/>
            </g>
            <g fill-rule="nonzero" transform="translate(943.723 216.84)">
                <ellipse cx="14.079" cy="14.595" fill="#D1D4EB" rx="10.758" ry="10.748" transform="rotate(-22.5 14.079 14.595)"/>
                <path fill="#5B3939" d="M15.668 38.832H12.66V16.99c0-.809.694-1.502 1.504-1.502s1.504.693 1.504 1.502v21.843z"/>
            </g>
            <g>
                <path fill="#59CFFA" fill-rule="nonzero" d="M774.863 199.792h77.901v56.185h-77.9z"/>
                <path stroke="#0A4E8E" stroke-linecap="square" stroke-width="5" d="M774.863 199.792h77.902"/>
                <path fill="#1DA2DB" fill-rule="nonzero" d="M783.226 227.884h36.43v28.092h-36.43zM829.509 210.226h13.518v13.53h-13.518zM806.597 210.226h13.518v13.53h-13.518zM783.684 210.226h13.518v13.53h-13.518zM829.509 233.962h13.518v13.53h-13.518z"/>
                <path fill="#0A4E8E" fill-rule="nonzero" d="M794.224 232.24h15.58v23.62h-15.58z"/>
                <path fill="#FFF" fill-rule="nonzero" d="M798.005 245.313c0 .688-.573 1.261-1.26 1.261-.688 0-1.26-.573-1.26-1.261s.572-1.261 1.26-1.261c.687.114 1.26.573 1.26 1.26z"/>
            </g>
            <g stroke="#59CFFA" stroke-width="2">
                <path d="M828.045 217.485h15.44M836.498 208.466v15.984"/>
            </g>
            <g stroke="#59CFFA" stroke-width="2">
                <path d="M804.91 217.485h15.439M813.362 208.466v15.984"/>
            </g>
            <g stroke="#59CFFA" stroke-width="2">
                <path d="M782.416 217.485h15.44M790.869 208.466v15.984"/>
            </g>
            <g stroke="#59CFFA" stroke-width="2">
                <path d="M828.045 240.675h15.44M836.498 231.656v15.984"/>
            </g>
            <path fill="#59CFFA" fill-rule="nonzero" d="M27 140.703v115.498h54.48V127L27 140.703zm40.373-4.836h6.538v6.563h-6.538v-6.563zm0 10.94h6.538v6.563h-6.538v-6.564zm0 10.939h6.538v6.564h-6.538v-6.564zm0 11.054h6.538v6.564h-6.538V168.8zm-26.495 50.322h-6.537v-6.563h6.537v6.563zm0-10.824h-6.537v-6.564h6.537v6.564zm0-11.055h-6.537v-6.563h6.537v6.563zm0-10.94h-6.537v-6.563h6.537v6.564zm0-10.939h-6.537V168.8h6.537v6.564zm0-11.054h-6.537v-6.564h6.537v6.564zm0-10.94h-6.537v-6.564h6.537v6.564zm11.24 76.692h-6.537v-6.564h6.538v6.564zm0-10.94h-6.537v-6.563h6.538v6.563zm0-10.824h-6.537v-6.564h6.538v6.564zm0-11.055h-6.537v-6.563h6.538v6.563zm0-10.94h-6.537v-6.563h6.538v6.564zm0-10.939h-6.537V168.8h6.538v6.564zm0-11.054h-6.537v-6.564h6.538v6.564zm0-10.94h-6.537v-6.564h6.538v6.564zm4.015-6.564h6.538v6.564h-6.538v-6.564zm6.652 83.256h-6.537v-6.564h6.537v6.564zm0-10.94h-6.537v-6.563h6.537v6.563zm0-10.824h-6.537v-6.564h6.537v6.564zm0-11.055h-6.537v-6.563h6.537v6.563zm0-10.94h-6.537v-6.563h6.537v6.564zm.23-10.939h-6.538V168.8h6.538v6.564zm0-11.054h-6.538v-6.564h6.538v6.564zm4.129 15.43h6.537v6.564h-6.537v-6.564zm6.882 50.322h-6.538v-6.564h6.538v6.564zm0-10.94h-6.538v-6.563h6.538v6.563zm0-10.824h-6.538v-6.564h6.538v6.564zm0-11.055h-6.538v-6.563h6.538v6.563z"/>
            <g>
                <g fill="#2180EA" fill-rule="nonzero">
                    <path d="M81.283 46.621h71.132v208.642H81.283z"/>
                    <path d="M152.415 46.621h28.019v208.642h-28.019z"/>
                </g>
                <g stroke="#EFFAFF" stroke-width="2.5" opacity=".569">
                    <path d="M88.17 41.476v213.882M97.604 41.476v213.882M107.038 41.476v213.882M116.566 41.476v213.882M126 41.476v213.882M135.528 41.476v213.882M144.962 41.476v213.882"/>
                </g>
                <g stroke="#EFFAFF" stroke-width="2.5" opacity=".569">
                    <path d="M156.85 41.476v213.882M166.283 41.476v213.882M175.811 41.476v213.882"/>
                </g>
                <g stroke="#F2EFE4" opacity=".4">
                    <path d="M81.283 61.197h71.132M81.283 83.586h71.132M81.283 105.88h71.132M81.283 128.172h71.132M81.283 150.56h71.132M81.283 172.854h71.132M81.283 195.147h71.132M81.283 217.536h71.132M81.283 239.83h71.132"/>
                </g>
                <g stroke="#CBC8BF">
                    <path d="M180.34 61.197h-27.925M180.34 83.586h-27.925M180.34 105.88h-27.925M180.34 128.172h-27.925M180.34 150.56h-27.925M180.34 172.854h-27.925M180.34 195.147h-27.925" opacity=".4"/>
                    <path d="M180.34 217.536h-27.925M180.34 239.83h-27.925"/>
                </g>
            </g>
            <g>
                <g fill="#2180EA" fill-rule="nonzero">
                    <path d="M-71.717 83.621H-.585v208.642h-71.132zM-.585 83.621h28.019v208.642H-.585z"/>
                </g>
                <g stroke="#EFFAFF" stroke-width="2.5" opacity=".569">
                    <path d="M-64.83 78.476v213.882M-55.396 78.476v213.882M-45.962 78.476v213.882M-36.434 78.476v213.882M-27 78.476v213.882M-17.472 78.476v213.882M-8.038 78.476v213.882"/>
                </g>
                <g stroke="#EFFAFF" stroke-width="2.5" opacity=".569">
                    <path d="M3.85 78.476v213.882M13.283 78.476v213.882M22.811 78.476v213.882"/>
                </g>
                <g stroke="#F2EFE4" opacity=".4">
                    <path d="M-71.717 98.197H-.585M-71.717 120.586H-.585M-71.717 142.88H-.585M-71.717 165.172H-.585M-71.717 187.56H-.585M-71.717 209.854H-.585M-71.717 232.147H-.585M-71.717 254.536H-.585M-71.717 276.83H-.585"/>
                </g>
                <g stroke="#CBC8BF">
                    <path d="M27.34 98.197H-.585M27.34 120.586H-.585M27.34 142.88H-.585M27.34 165.172H-.585M27.34 187.56H-.585M27.34 209.854H-.585M27.34 232.147H-.585" opacity=".4"/>
                    <path d="M27.34 254.536H-.585M27.34 276.83H-.585"/>
                </g>
            </g>
            <g fill-rule="nonzero" transform="translate(39 194)">
                <ellipse cx="14.52" cy="21" fill="#7184C8" rx="14.366" ry="20.842"/>
                <path fill="#3D2626" d="M16.686 61.544h-4.332V30.111c0-1.139.912-2.164 2.166-2.164s2.166.911 2.166 2.164v31.433z"/>
            </g>
            <g fill-rule="nonzero">
                <path fill="#59CFFA" d="M147.691 96.792h70.914V246.64h-70.914z"/>
                <path fill="#D3F1FE" d="M181.312 92.59v-6.494h-22.226v6.494h-15.068v162.837h74.775V92.59h-37.481zm-25.899 50.045h-4.803v-4.871h4.803v4.87zm0-9.646h-4.803v-4.871h4.803v4.87zm0-9.742h-4.803v-4.775h4.803v4.775zm0-9.646h-4.803v-4.87h4.803v4.87zm0-9.646h-4.803v-4.87h4.803v4.87zm9.512 142.685h-4.803v-94.36h4.803v94.36zm0-104.005h-4.803v-4.871h4.803v4.87zm0-9.646h-4.803v-4.871h4.803v4.87zm0-9.742h-4.803v-4.775h4.803v4.775zm0-9.646h-4.803v-4.87h4.803v4.87zm0-9.646h-4.803v-4.87h4.803v4.87zm9.606 142.685h-4.803v-94.36h4.803v94.36zm0-104.005h-4.803v-4.871h4.803v4.87zm0-9.646h-4.803v-4.871h4.803v4.87zm0-9.742h-4.803v-4.775h4.803v4.775zm0-9.646h-4.803v-4.87h4.803v4.87zm0-9.646h-4.803v-4.87h4.803v4.87zm9.512 142.685h-4.803v-94.36h4.803v94.36zm0-104.005h-4.803v-4.871h4.803v4.87zm0-9.646h-4.803v-4.871h4.803v4.87zm0-9.742h-4.803v-4.775h4.803v4.775zm0-9.646h-4.803v-4.87h4.803v4.87zm0-9.646h-4.803v-4.87h4.803v4.87zm9.511 38.68h-4.802v-4.871h4.802v4.87zm0-9.646h-4.802v-4.871h4.802v4.87zm0-9.742h-4.802v-4.775h4.802v4.775zm0-9.646h-4.802v-4.87h4.802v4.87zm0-9.646h-4.802v-4.87h4.802v4.87zm9.606 38.68h-4.803v-4.871h4.803v4.87zm0-9.646h-4.803v-4.871h4.803v4.87zm0-9.742h-4.803v-4.775h4.803v4.775zm0-9.646h-4.803v-4.87h4.803v4.87zm0-9.646h-4.803v-4.87h4.803v4.87zm9.512 38.68h-4.803v-4.871h4.803v4.87zm0-9.646h-4.803v-4.871h4.803v4.87zm0-9.742h-4.803v-4.775h4.803v4.775zm0-9.646h-4.803v-4.87h4.803v4.87zm0-9.646h-4.803v-4.87h4.803v4.87z"/>
            </g>
            <g fill-rule="nonzero">
                <path fill="#2180EA" d="M257.857 78H294.5v39.841h-36.643z"/>
                <path fill="#2180EA" d="M245 101.776h25.071V256H245z"/>
                <path fill="#2180EA" d="M263.643 94.708H308V256h-44.357z"/>
                <path fill="#000" d="M268.143 94.708h3.214V256h-3.214zM274.571 94.708h3.214V256h-3.214zM281 94.708h3.214V256H281zM248.214 101.776h2.571v125.307h-2.571zM253.357 101.776h2.571v125.307h-2.571zM258.5 101.776h2.571v125.307H258.5zM287.429 94.708h3.214V256h-3.214zM294.5 94.708h3.214V256H294.5zM300.929 94.708h3.214V256h-3.214z" opacity=".13"/>
            </g>
            <g fill-rule="nonzero">
                <path fill="#0A4E8E" d="M244.69 50h-29.905 29.905z" opacity=".397"/>
                <path fill="#042A58" d="M252.57 128.912V59.938h-45.19v68.974h-8.07v92.125H261.4v-92.125z"/>
                <path fill="#0A4E8E" d="M253.804 123.863v-66.02h-49.462v66.02h-9.21v132.042h67.786V123.863h-9.114zm-47.943 88.028h-4.747v-81.264h4.747v81.264zm7.974 0h-4.746v-81.264h4.746v81.264zm0-89.647h-4.746v-60.4h4.746v60.4zm7.975 89.647h-4.747v-45.634h4.747v45.634zm4.367-93.649h-4.747v-4.763h4.747v4.763zm0-8.002h-4.747v-4.764h4.747v4.764zm7.975 97.65h-4.747v-4.764h4.747v4.764zm0-8.003h-4.747v-4.763h4.747v4.763zm0-8.002h-4.747v-4.764h4.747v4.764zm0-8.003h-4.747v-4.763h4.747v4.763zm.19-65.64h-4.747v-4.763h4.747v4.763zm0-8.002h-4.747v-4.764h4.747v4.764zm0-8.003h-4.747v-4.763h4.747v4.763zm3.038-36.773h4.747v4.763h-4.747v-4.763zm0 8.002h4.747v4.764h-4.747v-4.764zm0 8.003h4.747v4.763h-4.747V81.47zm0 8.002h4.747v4.764h-4.747V89.47zm0 8.003h4.747v4.763h-4.747v-4.763zm0 8.002h4.747v4.764h-4.747v-4.764zm0 8.003h4.747v4.763h-4.747v-4.763zm4.936 94.41h-4.746v-4.763h4.746v4.764zm0-8.002h-4.746v-4.763h4.746v4.763zm0-8.002h-4.746v-4.764h4.746v4.764zm0-8.003h-4.746v-4.763h4.746v4.763zm7.785 24.008h-4.747v-4.764h4.747v4.764zm0-8.003h-4.747v-4.763h4.747v4.763zm0-8.002h-4.747v-4.764h4.747v4.764zm0-8.003h-4.747v-4.763h4.747v4.763zm0-8.003h-4.747v-4.763h4.747v4.763zm0-8.002h-4.747v-4.763h4.747v4.763zm0-8.003h-4.747v-4.763h4.747v4.763zm0-8.002h-4.747v-4.763h4.747v4.763zm0-8.003h-4.747v-4.763h4.747v4.763zm0-8.002h-4.747v-4.764h4.747v4.764zm.19-17.625h-4.747v-4.763h4.747v4.763zm0-8.002h-4.747v-4.764h4.747v4.764zm0-8.003h-4.747v-4.763h4.747v4.763zm0-8.002h-4.747V89.47h4.747v4.764zm0-8.003h-4.747V81.47h4.747v4.763zm0-8.002h-4.747v-4.764h4.747v4.764zm0-8.003h-4.747v-4.763h4.747v4.763zm7.975 137.663h-4.747v-4.764h4.747v4.764zm0-8.003h-4.747v-4.763h4.747v4.763zm0-8.002h-4.747v-4.764h4.747v4.764zm0-8.003h-4.747v-4.763h4.747v4.763zm0-8.003h-4.747v-4.763h4.747v4.763zm0-8.002h-4.747v-4.763h4.747v4.763zm0-8.003h-4.747v-4.763h4.747v4.763zm0-8.002h-4.747v-4.763h4.747v4.763zm0-8.003h-4.747v-4.763h4.747v4.763zm0-8.002h-4.747v-4.764h4.747v4.764z"/>
                <path fill="#042A58" d="M192.19 241.138h74.43v14.767h-74.43z"/>
                <path fill="#000" d="M204.342 57.842h49.462v66.021h-49.462z" opacity=".3"/>
            </g>
            <g fill-rule="nonzero">
                <path fill="#D3F1FE" d="M323.204 145.541h20.237V256H308V145.541h15.204zm20.356 0H361V256h-17.44V145.541z"/>
                <path fill="#1DA2DB" d="M314.463 148.752h1.939v105.963h-1.939zM318.988 148.752h1.939v105.963h-1.939zM344.841 148.752h1.939v105.963h-1.939zM349.366 148.752h1.939v105.963h-1.939zM353.244 148.752h1.939v105.963h-1.939z"/>
                <path fill="#1DA2DB" d="M325.451 254.716h15.512V148.752h-15.512v105.964zm2.473-104.106h10.566v102.248h-10.566V150.61z" opacity=".8"/>
                <path fill="#1DA2DB" d="M329.976 250.862h6.463v-98.899h-6.463v98.9zm2.3-96.575h2.082v94.252h-2.082v-94.252z" opacity=".8"/>
                <path fill="#4D4D4D" d="M326.098 125.633h15.512v19.266h-15.512z"/>
                <path fill="#59CFFA" d="M321.873 125.653V116h23.962v9.653h10.64v19.888h-45.243v-19.888h10.64z"/>
            </g>
            <g fill-rule="nonzero" transform="translate(234 194)">
                <ellipse cx="14.52" cy="21" fill="#7184C8" rx="14.366" ry="20.842"/>
                <path fill="#3D2626" d="M16.686 61.544h-4.332V30.111c0-1.139.912-2.164 2.166-2.164s2.166.911 2.166 2.164v31.433z"/>
            </g>
            <g fill-rule="nonzero" transform="translate(255 205)">
                <ellipse cx="16" cy="15.753" fill="#D1D4EB" rx="15.607" ry="15.413"/>
                <path fill="#5B3939" d="M18.295 50.547h-4.36v-31.28c0-1.134.917-2.154 2.18-2.154 1.262 0 2.18.907 2.18 2.154v31.28z"/>
            </g>
            <g fill-rule="nonzero" transform="translate(72 205)">
                <ellipse cx="16" cy="15.753" fill="#D1D4EB" rx="15.607" ry="15.413"/>
                <path fill="#5B3939" d="M18.295 50.547h-4.36v-31.28c0-1.134.917-2.154 2.18-2.154 1.262 0 2.18.907 2.18 2.154v31.28z"/>
            </g>
        </g>
    </g>
</svg>
