<svg xmlns="http://www.w3.org/2000/svg" width="1476" height="629" viewBox="0 0 1476 629">
    <g fill="none" fill-rule="evenodd">
        <path fill="#D1D4EB" fill-rule="nonzero" d="M110.368 429.686h66.382V295.71l39.13-64.605c-2.445-.53-4.347-2.648-4.347-5.03 0-2.649 2.174-5.032 5.163-5.032h.543v-43.952h7.066v43.952h1.086c2.718 0 5.164 2.119 5.164 5.031 0 2.383-1.903 4.501-4.077 5.03l45.109 64.606h.272v168.662l11.141-5.56V619h-57.609v-6.62h-8.695V619h-6.522v-6.62h-8.695V619h-5.707v-6.62h-8.696V619H110.174v-.236H37.271V458.575h40.217v-12.974l32.88-16.15v.235zM1.38 618.8V472.115l34.782-13.503V618.8H1.38zM604.439 481.402l-18.188-1.968-78.281 1.789V342.427h-35.485v18.423H437v261.672h220.934V453.499h-53.495zM1403.174 458.13l-14.9-1.611-64.132 1.465V393.53h-29.071v15.093H1266v50.54l-66 24.549v139.286h247V435.272h-43.826z" opacity=".397"/>
        <path fill="#1DA2DB" fill-rule="nonzero" d="M518 390.484h52v227h-52z"/>
        <g fill="#2180EA" fill-rule="nonzero">
            <path d="M89.439 295.05h110.255V620.8H89.439z"/>
            <path d="M199.693 295.05h43.429V620.8h-43.429z"/>
        </g>
        <g stroke="#EFFAFF" stroke-width="2.5" opacity=".569">
            <path d="M100.113 287.018v333.93M114.736 287.018v333.93M129.358 287.018v333.93M144.127 287.018v333.93M158.75 287.018v333.93M173.519 287.018v333.93M188.142 287.018v333.93"/>
        </g>
        <g stroke="#EFFAFF" stroke-width="2.5" opacity=".569">
            <path d="M206.566 287.018v333.93M221.189 287.018v333.93M235.958 287.018v333.93"/>
        </g>
        <g stroke="#F2EFE4" opacity=".4">
            <path d="M89.439 317.808h110.254M89.439 352.763h110.254M89.439 387.569h110.254M89.439 422.375h110.254M89.439 457.33h110.254M89.439 492.136h110.254M89.439 526.942h110.254M89.439 561.896h110.254M89.439 596.702h110.254"/>
        </g>
        <g stroke="#CBC8BF">
            <path d="M242.976 317.808h-43.283M242.976 352.763h-43.283M242.976 387.569h-43.283M242.976 422.375h-43.283M242.976 457.33h-43.283M242.976 492.136h-43.283M242.976 526.942h-43.283" opacity=".4"/>
            <path d="M242.976 561.896h-43.283M242.976 596.702h-43.283"/>
        </g>
        <g fill-rule="nonzero" transform="translate(24 523.752)">
            <ellipse cx="22.531" cy="32.921" fill="#7184C8" rx="22.292" ry="32.673"/>
            <path fill="#3D2626" d="M25.892 96.481H19.17V47.204c0-1.785 1.416-3.392 3.362-3.392 1.946 0 3.361 1.428 3.361 3.392v49.277z"/>
        </g>
        <g fill-rule="nonzero" transform="translate(57 559.825)">
            <ellipse cx="21.907" cy="22.703" fill="#D1D4EB" rx="16.74" ry="16.719" transform="rotate(-22.5 21.907 22.703)"/>
            <path fill="#5B3939" d="M24.38 60.404H19.7V26.427c0-1.259 1.08-2.337 2.34-2.337 1.26 0 2.34 1.078 2.34 2.337v33.977z"/>
        </g>
        <g fill-rule="nonzero">
            <path fill="#59CFFA" d="M193.758 373.208h110.626v233.175H193.758z"/>
            <path fill="#D3F1FE" d="M246.206 366.67v-10.106h-34.671v10.106h-23.507v253.386h116.65V366.67h-58.472zm-40.401 77.873h-7.493v-7.58h7.493v7.58zm0-15.01h-7.493v-7.58h7.493v7.58zm0-15.158h-7.493v-7.431h7.493v7.43zm0-15.01h-7.493v-7.58h7.493v7.58zm0-15.01h-7.493v-7.58h7.493v7.58zm14.838 222.028h-7.492v-146.83h7.492v146.83zm0-161.84h-7.492v-7.58h7.492v7.58zm0-15.01h-7.492v-7.58h7.492v7.58zm0-15.158h-7.492v-7.431h7.492v7.43zm0-15.01h-7.492v-7.58h7.492v7.58zm0-15.01h-7.492v-7.58h7.492v7.58zm14.985 222.028h-7.492v-146.83h7.492v146.83zm0-161.84h-7.492v-7.58h7.492v7.58zm0-15.01h-7.492v-7.58h7.492v7.58zm0-15.158h-7.492v-7.431h7.492v7.43zm0-15.01h-7.492v-7.58h7.492v7.58zm0-15.01h-7.492v-7.58h7.492v7.58zm14.839 222.028h-7.493v-146.83h7.493v146.83zm0-161.84h-7.493v-7.58h7.493v7.58zm0-15.01h-7.493v-7.58h7.493v7.58zm0-15.158h-7.493v-7.431h7.493v7.43zm0-15.01h-7.493v-7.58h7.493v7.58zm0-15.01h-7.493v-7.58h7.493v7.58zm14.838 60.188h-7.493v-7.58h7.493v7.58zm0-15.01h-7.493v-7.58h7.493v7.58zm0-15.158h-7.493v-7.431h7.493v7.43zm0-15.01h-7.493v-7.58h7.493v7.58zm0-15.01h-7.493v-7.58h7.493v7.58zm14.985 60.188h-7.492v-7.58h7.492v7.58zm0-15.01h-7.492v-7.58h7.492v7.58zm0-15.158h-7.492v-7.431h7.492v7.43zm0-15.01h-7.492v-7.58h7.492v7.58zm0-15.01h-7.492v-7.58h7.492v7.58zm14.838 60.188h-7.492v-7.58h7.492v7.58zm0-15.01h-7.492v-7.58h7.492v7.58zm0-15.158h-7.492v-7.431h7.492v7.43zm0-15.01h-7.492v-7.58h7.492v7.58zm0-15.01h-7.492v-7.58h7.492v7.58z"/>
        </g>
        <g fill-rule="nonzero">
            <path fill="#2180EA" d="M365 343.39h57v62.124h-57z"/>
            <path fill="#2180EA" d="M345 380.464h39v240.484h-39z"/>
            <path fill="#2180EA" d="M374 369.441h69v251.506h-69z"/>
            <path fill="#000" d="M381 369.441h5v251.506h-5zM391 369.441h5v251.506h-5zM401 369.441h5v251.506h-5zM350 380.464h4v195.393h-4zM358 380.464h4v195.393h-4zM366 380.464h4v195.393h-4zM411 369.441h5v251.506h-5zM422 369.441h5v251.506h-5zM432 369.441h5v251.506h-5z" opacity=".13"/>
        </g>
        <g fill-rule="nonzero">
            <path fill="#0A4E8E" d="M297.241 237.058h46.253v74.876h-46.253z" opacity=".397"/>
            <path fill="#042A58" d="M355.681 422.763v-107.56h-16.152v-70.42h-38.911v70.42h-14.83v107.56h-12.482v143.662h96.03V422.763z"/>
            <path fill="#0A4E8E" d="M357.59 414.89V311.934h-14.096v-74.877h-15.271v-86.315h-4.993v86.315h-9.838v-73.836H308.4v73.836h-11.16v74.877H281.09v102.954h-14.243V620.8h104.84v-205.91H357.59zm-74.152 137.272h-7.342V425.437h7.342v126.725zm12.334 0h-7.342V425.437h7.342v126.725zm0-139.798h-7.342v-94.19h7.342v94.19zm12.334 139.798h-7.341V481h7.341v71.162zm6.755-146.038h-7.342v-7.428h7.342v7.428zm0-12.48h-7.342v-7.427h7.342v7.428zm12.334 152.279h-7.342v-7.428h7.342v7.428zm0-12.48h-7.342v-7.428h7.342v7.428zm0-12.479h-7.342v-7.428h7.342v7.428zm0-12.48h-7.342v-7.427h7.342v7.428zm.294-102.36h-7.342v-7.428h7.342v7.428zm0-12.48h-7.342v-7.427h7.342v7.428zm0-12.479h-7.342v-7.428h7.342v7.428zm0-119.742h-7.342v-7.428h7.342v7.428zm4.698 17.53h7.342v7.429h-7.342v-7.429zm0 12.48h7.342v7.428h-7.342v-7.428zm0 12.48h7.342v7.427h-7.342v-7.428zm0 19.907h7.342v7.428h-7.342v-7.428zm0 12.48h7.342v7.427h-7.342V336.3zm0 12.479h7.342v7.428h-7.342v-7.428zm0 12.479h7.342v7.428h-7.342v-7.428zm0 12.48h7.342v7.427h-7.342v-7.428zm0 12.479h7.342v7.428h-7.342v-7.428zm0 12.479h7.342v7.428h-7.342v-7.428zm7.636 147.227h-7.342v-7.428h7.342v7.428zm0-12.48h-7.342v-7.428h7.342v7.428zm0-12.479h-7.342v-7.428h7.342v7.428zm0-12.48h-7.342v-7.427h7.342v7.428zm12.04 37.439h-7.341v-7.428h7.341v7.428zm0-12.48h-7.341v-7.428h7.341v7.428zm0-12.479h-7.341v-7.428h7.341v7.428zm0-12.48h-7.341v-7.427h7.341v7.428zm0-12.479h-7.341v-7.428h7.341v7.428zm0-12.479h-7.341v-7.428h7.341v7.428zm0-12.48h-7.341v-7.428h7.341v7.429zm0-12.479h-7.341v-7.428h7.341v7.428zm0-12.48h-7.341v-7.427h7.341v7.428zm0-12.479h-7.341v-7.428h7.341v7.428zm.294-27.484h-7.342v-7.428h7.342v7.428zm0-12.48h-7.342v-7.427h7.342v7.428zm0-12.479h-7.342v-7.428h7.342v7.428zm0-12.479h-7.342v-7.428h7.342v7.428zm0-12.48h-7.342v-7.427h7.342v7.428zm0-12.479h-7.342V336.3h7.342v7.428zm0-12.479h-7.342v-7.428h7.342v7.428zm12.334 214.675h-7.342v-7.428h7.342v7.428zm0-12.48h-7.342v-7.428h7.342v7.428zm0-12.479h-7.342v-7.428h7.342v7.428zm0-12.48h-7.342v-7.427h7.342v7.428zm0-12.479h-7.342v-7.428h7.342v7.428zm0-12.479h-7.342v-7.428h7.342v7.428zm0-12.48h-7.342v-7.428h7.342v7.429zm0-12.479h-7.342v-7.428h7.342v7.428zm0-12.48h-7.342v-7.427h7.342v7.428zm0-12.479h-7.342v-7.428h7.342v7.428z"/>
            <path fill="#042A58" d="M262.294 597.772h115.119v23.027H262.294z"/>
            <path fill="#000" d="M281.089 311.935h76.501V414.89h-76.501z" opacity=".3"/>
        </g>
        <g fill-rule="nonzero">
            <path fill="#D3F1FE" d="M465.524 448.6h31.31v172.348H442V448.6h23.524zm31.493 0H524v172.348h-26.983V448.6z"/>
            <path fill="#1DA2DB" d="M452 453.611h3v165.333h-3zM459 453.611h3v165.333h-3zM499 453.611h3v165.333h-3zM506 453.611h3v165.333h-3zM512 453.611h3v165.333h-3z"/>
            <path fill="#1DA2DB" d="M469 618.944h24V453.61h-24v165.333zm3.826-162.435h16.348v159.537h-16.348V456.509z" opacity=".8"/>
            <path fill="#1DA2DB" d="M476 612.931h10v-154.31h-10v154.31zm3.56-150.684H482.78v147.059h-3.221v-147.06z" opacity=".8"/>
            <path fill="#4D4D4D" d="M470 417.538h24v30.06h-24z"/>
            <path fill="#59CFFA" d="M463.464 417.57v-15.062h37.072v15.062H517v31.03h-70v-31.03h16.464z"/>
        </g>
        <g fill-rule="nonzero" transform="translate(328 523.752)">
            <ellipse cx="22.531" cy="32.921" fill="#7184C8" rx="22.292" ry="32.673"/>
            <path fill="#3D2626" d="M25.892 96.481H19.17V47.204c0-1.785 1.416-3.392 3.362-3.392 1.946 0 3.361 1.428 3.361 3.392v49.277z"/>
        </g>
        <g fill-rule="nonzero" transform="translate(360 540.786)">
            <ellipse cx="25" cy="24.761" fill="#D1D4EB" rx="24.386" ry="24.227"/>
            <path fill="#5B3939" d="M28.586 79.449h-6.814V30.283A3.393 3.393 0 0 1 25.18 26.9c1.973 0 3.407 1.425 3.407 3.384V79.45z"/>
        </g>
        <g fill-rule="nonzero" transform="translate(76 540.786)">
            <ellipse cx="25" cy="24.761" fill="#D1D4EB" rx="24.386" ry="24.227"/>
            <path fill="#5B3939" d="M28.586 79.449h-6.814V30.283A3.393 3.393 0 0 1 25.18 26.9c1.973 0 3.407 1.425 3.407 3.384V79.45z"/>
        </g>
        <g fill-rule="nonzero">
            <path fill="#1DA2DB" d="M532 377.458h24v14.028h-24zM537 369.442h14v8.016h-14z"/>
            <path fill="#1DA2DB" d="M543 389.482l1.167-59.12.833 59.12z"/>
            <path fill="#FFF" d="M541 408.52h6v6.012h-6zM541 426.556h6v6.012h-6zM541 444.593h6v6.012h-6zM541 461.627h6v6.012h-6zM541 479.663h6v6.012h-6zM541 497.7h6v6.012h-6zM541 514.734h6v6.012h-6zM541 532.77h6v6.012h-6zM541 550.806h6v6.012h-6z"/>
        </g>
        <path fill="#D1D4EB" fill-rule="nonzero" d="M825.439 421.432h-39.045v59.942H728.97v-70.271H658v211.57h220.934V393.53h-53.495z" opacity=".397"/>
        <path fill="#D1D4EB" fill-rule="nonzero" d="M1039.439 442.64l-39.045-17.045v-51.103H942.97v68.149-2.326H872v182.86h220.934V394.03h-53.495zM1109 388.52h90.941v237.884H1109z" opacity=".397"/>
        <g fill="#FFF" fill-rule="nonzero">
            <path d="M990.172 572.961h-83.578 83.578z"/>
        </g>
        <g>
            <path fill="#0A4E8E" fill-rule="nonzero" d="M1144.063 454.263v-83.332h-61.454v83.332h-16.387v92.79h92.803v-92.79z"/>
            <path fill="#2180EA" fill-rule="nonzero" d="M1147.269 450.516V367.72c-7.66-1.25-16.032-7.495-21.553-17.131-1.782-3.212-3.207-6.602-4.097-9.814h-19.594c-.89 3.569-2.316 6.959-4.275 10.528-5.344 9.279-13.36 15.346-20.84 16.952v82.44h-13.004v168.63h96.544v-168.63h-13.181v-.178zm-58.782 67.809h-17.1v-18.202c0-4.818 3.92-8.743 8.729-8.743 4.63 0 8.372 3.747 8.372 8.386v18.559zm0-32.834h-17.1v-18.38c0-4.818 3.92-8.743 8.729-8.743 4.63 0 8.372 3.747 8.372 8.386v18.737zm22.266 32.834h-17.1v-18.38c0-4.818 3.919-8.565 8.55-8.565s8.55 3.747 8.55 8.565v18.38zm0-32.834h-17.1v-18.38c0-4.818 3.919-8.565 8.55-8.565s8.55 3.747 8.55 8.565v18.38zm22.266 32.834h-17.1v-18.202c0-4.818 3.918-8.743 8.728-8.743 4.631 0 8.372 3.747 8.372 8.386v18.559zm0-32.834h-17.1v-18.38c0-4.818 3.918-8.565 8.55-8.565 4.631 0 8.55 3.747 8.55 8.565v18.38zm22.265 32.834h-17.1v-18.202c0-4.818 3.92-8.743 8.729-8.743 4.63 0 8.371 3.747 8.371 8.386v18.559zm0-32.834h-17.1v-18.38c0-4.818 3.92-8.565 8.55-8.565 4.632 0 8.55 3.747 8.55 8.565v18.38z"/>
            <path fill="#000" fill-rule="nonzero" d="M1128.922 355.228c-1.069-1.428-2.316-3.034-3.206-4.818-1.782-3.212-3.207-6.603-4.097-9.815h-19.594c-.89 3.57-2.316 6.96-4.275 10.528-.89 1.428-1.781 2.855-2.672 4.105h33.844z" opacity=".15"/>
            <path fill="#0A4E8E" fill-rule="nonzero" d="M1114.316 326.677c-.535-.714-1.247-1.25-2.138-1.25-.89 0-1.781.536-2.316 1.25-3.74 6.067-11.043 11.598-11.043 16.06 0 1.784.534 3.568 1.425 4.996h23.69a9.606 9.606 0 0 0 1.425-4.996c.178-4.462-7.125-9.993-11.043-16.06z"/>
            <path fill="#2180EA" fill-rule="nonzero" d="M1063.906 532.422h96.544v76.017h-96.544z" opacity=".15"/>
            <path fill="#000" fill-rule="nonzero" d="M1063.906 532.422h96.544v5.889h-96.544z" opacity=".15"/>
            <path fill="#042A58" fill-rule="nonzero" d="M1136.225 565.612c0-13.74-11.222-24.982-24.938-24.982-13.715 0-24.937 11.242-24.937 24.982v53.533h49.875v-53.533z"/>
            <g stroke="#D4E5E6" stroke-linecap="round" stroke-width="1.5">
                <path d="M1105.41 575.426v8.923M1117.166 575.426v8.923"/>
            </g>
            <path fill="#0A4E8E" fill-rule="nonzero" d="M1111.287 540.63h-1.603v78.336h3.385V540.63h-1.782z"/>
            <path fill="#2180EA" fill-rule="nonzero" d="M1055.534 608.617h112.931v10.528h-112.931z"/>
            <path fill="#042A58" fill-rule="nonzero" d="M1060.166 449.267h102.778v3.034h-102.778z"/>
            <g stroke="#2180EA" stroke-linecap="round">
                <path d="M1088.31 466.754c0-4.639-3.741-8.386-8.372-8.386-4.632 0-8.372 3.747-8.372 8.386v18.737h16.743v-18.737zM1079.938 458.368v27.123M1071.388 477.104h16.743M1071.388 469.431h16.743"/>
            </g>
            <g stroke="#2180EA" stroke-linecap="round">
                <path d="M1110.575 466.754c0-4.639-3.74-8.386-8.372-8.386-4.631 0-8.372 3.747-8.372 8.386v18.737h16.744v-18.737zM1102.203 458.546v26.945M1093.653 477.283h16.744M1093.653 469.431h16.744"/>
            </g>
            <g fill="#0A4E8E" fill-rule="nonzero">
                <path d="M1098.284 415.363c-3.918 0-7.125 3.212-7.125 7.138v15.167h14.428v-15.167c0-3.926-3.384-7.138-7.303-7.138zM1126.072 415.363c-3.919 0-7.125 3.212-7.125 7.138v15.167h14.428v-15.167c0-3.926-3.384-7.138-7.303-7.138zM1098.64 383.422c-3.918 0-7.124 3.212-7.124 7.137v15.168h14.428v-15.168c0-3.925-3.207-7.137-7.303-7.137zM1126.428 383.422c-3.919 0-7.125 3.212-7.125 7.137v15.168h14.428v-15.168c0-3.925-3.206-7.137-7.303-7.137z"/>
            </g>
            <g stroke="#2180EA" stroke-linecap="round">
                <path d="M1105.766 422.679c0-3.569-3.236-6.602-7.482-6.602-4.044 0-7.48 2.855-7.48 6.602v14.454h14.76v-14.454h.202z"/>
                <path stroke-width=".75" d="M1098.284 416.255v20.878M1091.694 430.709h13.003M1091.694 424.642h13.003"/>
            </g>
            <g stroke="#2180EA" stroke-linecap="round">
                <path d="M1133.019 422.679c0-3.569-3.004-6.602-6.947-6.602s-6.947 2.855-6.947 6.602v14.454h13.706v-14.454h.188z"/>
                <path stroke-width=".75" d="M1126.072 416.255v20.878M1119.481 430.709h13.003M1119.481 424.642h13.003"/>
            </g>
            <g stroke="#2180EA" stroke-linecap="round">
                <path d="M1105.944 390.56c0-3.57-3.158-6.603-7.303-6.603-3.948 0-7.304 2.855-7.304 6.602v14.454h14.41V390.56h.197zM1098.64 384.135v21.057M1092.05 398.768h13.003M1092.05 392.7h13.003"/>
            </g>
            <g stroke="#2180EA" stroke-linecap="round">
                <path d="M1134.088 390.56c0-3.57-3.313-6.603-7.66-6.603-4.14 0-7.66 2.855-7.66 6.602v14.454h15.112V390.56h.208zM1126.428 384.135v21.057M1119.838 398.768h13.003M1119.838 392.7h13.003"/>
            </g>
            <g stroke="#2180EA" stroke-linecap="round">
                <path d="M1132.84 466.754c0-4.639-3.74-8.386-8.371-8.386-4.632 0-8.372 3.747-8.372 8.386v18.737h16.744v-18.737zM1124.469 458.368v27.123M1115.919 477.104h16.743M1115.919 469.431h16.743"/>
            </g>
            <g stroke="#2180EA" stroke-linecap="round">
                <path d="M1155.106 466.933c0-4.64-3.74-8.387-8.372-8.387-4.63 0-8.371 3.747-8.371 8.387v18.736h16.743v-18.736zM1146.734 458.546v26.945M1138.184 477.283h16.744M1138.184 469.431h16.744"/>
            </g>
            <g stroke="#2180EA" stroke-linecap="round" stroke-width=".75">
                <path d="M1088.487 499.588c0-4.64-3.74-8.387-8.371-8.387-4.632 0-8.372 3.748-8.372 8.387v18.737h16.743v-18.737zM1080.116 491.38v26.945M1071.566 510.116h16.743M1071.566 502.265h16.743"/>
            </g>
            <g stroke="#2180EA" stroke-linecap="round" stroke-width=".75">
                <path d="M1110.575 499.588c0-4.64-3.74-8.387-8.372-8.387-4.631 0-8.372 3.748-8.372 8.387v18.737h16.744v-18.737zM1102.203 491.38v26.945M1093.653 510.116h16.922M1093.653 502.265h16.922"/>
            </g>
            <g stroke="#2180EA" stroke-linecap="round" stroke-width=".75">
                <path d="M1133.019 499.588c0-4.64-3.74-8.387-8.372-8.387-4.631 0-8.372 3.748-8.372 8.387v18.737h16.744v-18.737zM1124.469 491.38v26.945M1116.097 510.116h16.744M1116.097 502.265h16.744"/>
            </g>
            <g stroke="#2180EA" stroke-linecap="round" stroke-width=".75">
                <path d="M1155.284 499.766c0-4.64-3.74-8.386-8.372-8.386-4.63 0-8.371 3.747-8.371 8.386v18.737h16.743v-18.737zM1146.912 491.38v27.123M1138.362 510.116h16.744M1138.362 502.443h16.744"/>
            </g>
            <path fill="#042A58" fill-rule="nonzero" d="M1060.166 523.499h102.778v8.922h-102.778z"/>
            <path fill="#FFF" fill-rule="nonzero" d="M1077.49 360.422v86.925h-5.89v-86.925z"/>
            <path fill="#000" fill-rule="nonzero" d="M1076.909 440.345h70.359v9.993h-70.359zM1071.387 375.57h81.938v5.175h-81.938z" opacity=".15"/>
            <path fill="#FFF" fill-rule="nonzero" d="M1079.938 360.402c0 3.034-2.494 5.532-5.522 5.532s-5.522-2.498-5.522-5.532c0-3.033 2.494-5.531 5.522-5.531s5.522 2.498 5.522 5.531zM1152.846 360.591v86.925h-5.889v-86.925z"/>
            <path fill="#FFF" fill-rule="nonzero" d="M1155.284 360.402c0 3.034-2.493 5.532-5.522 5.532-3.028 0-5.521-2.498-5.521-5.532 0-3.033 2.493-5.531 5.522-5.531 3.028 0 5.521 2.498 5.521 5.531z"/>
            <path stroke="#FFF" stroke-linecap="round" stroke-width="2" d="M1099.888 347.02h24.046"/>
            <path fill="#5B3939" fill-rule="nonzero" d="M1069.072 368.968h86.034v6.781h-86.034z"/>
        </g>
        <g fill-rule="nonzero">
            <path fill="#D3F1FE" d="M905.202 494.655h164.194v122.451H905.202z"/>
            <path fill="#EFFAFF" d="M905.202 527.189h163.481v89.738H905.202zM905.202 507.168h163.481v9.117H905.202z"/>
            <g fill="#1DA2DB">
                <path d="M926.797 538.094h9.102v19.127h-9.102zM942.86 538.094h9.101v19.127h-9.102zM959.1 538.094h9.102v19.127H959.1zM975.341 538.094h9.102v19.127h-9.102zM991.582 538.094h9.102v19.127h-9.102zM1007.645 538.094h9.102v19.127h-9.102zM1023.886 538.094h9.102v19.127h-9.102zM1040.127 538.094h9.102v19.127h-9.102zM926.797 561.87h9.102v19.127h-9.102zM942.86 561.87h9.101v19.127h-9.102zM959.1 561.87h9.102v19.127H959.1zM975.341 561.87h9.102v19.127h-9.102zM991.582 561.87h9.102v19.127h-9.102zM1007.645 561.87h9.102v19.127h-9.102zM1023.886 561.87h9.102v19.127h-9.102zM1040.127 561.87h9.102v19.127h-9.102zM926.797 585.645h9.102v19.127h-9.102zM942.86 585.645h9.101v19.127h-9.102zM959.1 585.645h9.102v19.127H959.1zM975.341 585.645h9.102v19.127h-9.102zM991.582 585.645h9.102v19.127h-9.102zM1007.645 585.645h9.102v19.127h-9.102zM1023.886 585.645h9.102v19.127h-9.102zM1040.127 585.645h9.102v19.127h-9.102z"/>
            </g>
            <path fill="#2F86C5" d="M899.848 588.862h-79.242V443.887l79.242-16.446z"/>
            <path fill="#59CFFA" d="M820.606 437.809v179.297h84.775v-200.57l-84.775 21.273zm62.822-7.508h10.173v10.19h-10.173V430.3zm0 16.982h10.173v10.19h-10.173v-10.19zm0 16.982h10.173v10.19h-10.173v-10.19zm0 17.162h10.173v10.189h-10.173v-10.19zm-41.227 78.118h-10.173v-10.19h10.173v10.19zm0-16.803h-10.173v-10.19h10.173v10.19zm0-17.161h-10.173v-10.19h10.173v10.19zm0-16.983h-10.173v-10.19h10.173v10.19zm0-16.982h-10.173v-10.19h10.173v10.19zm0-17.161h-10.173v-10.19h10.173v10.19zm0-16.982h-10.173v-10.19h10.173v10.19zm17.49 119.054H849.52v-10.189h10.173v10.19zm0-16.982H849.52v-10.19h10.173v10.19zm0-16.803H849.52v-10.19h10.173v10.19zm0-17.161H849.52v-10.19h10.173v10.19zm0-16.983H849.52v-10.19h10.173v10.19zm0-16.982H849.52v-10.19h10.173v10.19zm0-17.161H849.52v-10.19h10.173v10.19zm0-16.982H849.52v-10.19h10.173v10.19zm6.247-10.19h10.173v10.19h-10.173v-10.19zm10.352 129.244h-10.173v-10.189h10.173v10.19zm0-16.982h-10.173v-10.19h10.173v10.19zm0-16.803h-10.173v-10.19h10.173v10.19zm0-17.161h-10.173v-10.19h10.173v10.19zm0-16.983h-10.173v-10.19h10.173v10.19zm.357-16.982h-10.173v-10.19h10.173v10.19zm0-17.161h-10.173v-10.19h10.173v10.19zm6.425 23.954h10.172v10.19h-10.172v-10.19zm10.708 78.118h-10.173v-10.189h10.173v10.19zm0-16.982h-10.173v-10.19h10.173v10.19zm0-16.803h-10.173v-10.19h10.173v10.19zm0-17.161h-10.173v-10.19h10.173v10.19z"/>
            <path fill="#1DA2DB" d="M905.202 492.51h169.192v5.005H905.202z"/>
        </g>
        <g>
            <path fill="#2180EA" fill-rule="nonzero" d="M1268.834 484.921h100.974v134.723h-100.974z"/>
            <path fill="#000" fill-rule="nonzero" d="M1268.834 484.921h100.974v11.583h-100.974z" opacity=".21"/>
            <path fill="#D3F1FE" fill-rule="nonzero" d="M1290.676 511.829h57.469v28.335h-57.469z"/>
            <path stroke="#2180EA" stroke-width="2" d="M1290.676 511.473h57.469v28.335h-57.47z"/>
            <g stroke="#2180EA" stroke-width="2">
                <path d="M1309.295 511.473v28.335M1329.526 511.473v28.335"/>
            </g>
            <path fill="#042A58" fill-rule="nonzero" d="M1286.916 540.877h64.81v5.346h-64.81z"/>
            <path fill="#D3F1FE" fill-rule="nonzero" d="M1290.676 563.51h57.469v28.334h-57.47z"/>
            <path stroke="#2180EA" stroke-width="2" d="M1290.676 563.51h57.469v28.334h-57.47z"/>
            <g stroke="#2180EA" stroke-width="2">
                <path d="M1309.295 563.509v28.335M1329.526 563.509v28.335"/>
            </g>
            <path fill="#042A58" fill-rule="nonzero" d="M1286.916 592.912h64.81v5.346h-64.81z"/>
            <path fill="#0A4E8E" fill-rule="nonzero" d="M1265.253 488.485v-7.129h108.315v7.129z"/>
            <path fill="#000" fill-rule="nonzero" d="M1354.411 550.5h-63.556l-3.58-4.277h64.45zM1353.516 602.18h-60.87l-2.686-4.456h59.975z" opacity=".21"/>
        </g>
        <path stroke="#2180EA" stroke-width="2" d="M1289 575h65.03"/>
        <g>
            <path fill="#2180EA" fill-rule="nonzero" d="M715.242 619.269H668v-58.747L715.242 541z"/>
            <path stroke="#042A58" stroke-linecap="round" stroke-width="4" d="M668.179 560.642l47.242-19.523"/>
            <path fill="#2180EA" fill-rule="nonzero" d="M715.421 501.716h87.863v117.851h-87.863z"/>
            <path fill="#000" fill-rule="nonzero" d="M715.421 501.716h87.863v10.03h-87.863z" opacity=".21"/>
            <path fill="#D3F1FE" fill-rule="nonzero" d="M734.39 524.82h49.926v24.717H734.39z"/>
            <path stroke="#2180EA" d="M734.39 524.82h49.926v24.717H734.39z"/>
            <g stroke="#2180EA" stroke-width="2">
                <path d="M750.674 524.82v24.717M785.106 533.284h-51M768.032 524.82v24.717"/>
            </g>
            <path fill="#042A58" fill-rule="nonzero" d="M731.169 550.433h56.368v4.657h-56.368z"/>
            <path fill="#D3F1FE" fill-rule="nonzero" d="M734.39 570.314h49.926v24.716H734.39z"/>
            <path stroke="#2180EA" d="M734.39 570.314h49.926v24.716H734.39z"/>
            <g stroke="#2180EA" stroke-width="2">
                <path d="M750.674 570.313v24.717M768.032 570.313v24.717"/>
            </g>
            <path fill="#042A58" fill-rule="nonzero" d="M731.169 595.926h56.368v4.657h-56.368z"/>
            <path stroke="#2180EA" stroke-width="2" d="M785.106 580.284h-51"/>
            <path stroke="#042A58" stroke-linecap="square" stroke-width="4" d="M715.421 501.716h87.863"/>
            <path fill="#000" fill-rule="nonzero" d="M793.979 562.791H737.61l-6.443-7.701h56.369zM793.979 608.104H737.61l-6.443-7.522h56.369z" opacity=".21"/>
            <path fill="#EFFAFF" fill-rule="nonzero" d="M681.242 569.776h21.116v21.134h-21.116z"/>
            <path stroke="#2180EA" d="M681.242 569.776h21.116v21.134h-21.116z"/>
        </g>
        <g>
            <path stroke="#2180EA" stroke-width="2" d="M679 581h24.025M692.153 567v24.813"/>
            <path fill="#1DA2DB" fill-rule="nonzero" d="M528 560v60h141v-60H528zm112.309 48.586h-6.444v-6.478h6.444v6.478zm0-10.797h-6.444v-6.478h6.444v6.478zm0-10.951h-6.444v-6.478h6.444v6.478zm0-10.951h-6.444v-6.478h6.444v6.478zm11.047 32.7h-6.444v-6.479h6.444v6.478zm0-10.798h-6.444v-6.478h6.444v6.478zm0-10.951h-6.444v-6.478h6.444v6.478zm0-10.951h-6.444v-6.478h6.444v6.478zm10.586 32.7h-6.444v-6.479h6.444v6.478zm0-10.798h-6.444v-6.478h6.444v6.478zm0-10.951h-6.444v-6.478h6.444v6.478zm0-10.951h-6.444v-6.478h6.444v6.478z"/>
            <path fill="#042A58" fill-rule="nonzero" d="M528 614h141v6H528z"/>
            <path fill="#59CFFA" fill-rule="nonzero" d="M620 563l26-46 26 46z"/>
            <g fill-rule="nonzero">
                <path fill="#042A58" d="M589.695 588.873c0-7.82-6.258-14.26-14.195-14.26s-14.195 6.287-14.195 14.26v30.36h28.237v-30.36h.153z"/>
                <path fill="#1DA2DB" d="M575.5 574.767h-.916v44.466h1.832v-44.466h-.916z"/>
            </g>
            <path fill="#0A4E8E" fill-rule="nonzero" d="M594.765 577.781h20.647v21.094h-20.647z"/>
            <path fill="#1DA2DB" fill-rule="nonzero" d="M614.133 579.088v18.48h-18.09v-18.48h18.09zm1.573-1.607H594.47v21.694h21.235v-21.694z"/>
            <path stroke="#1DA2DB" stroke-width="2" d="M595.988 588.25h18.2M605.165 578v21"/>
            <path fill="#0A4E8E" fill-rule="nonzero" d="M619.082 601.531h-20.647l-3.67-2.656h20.647z" opacity=".3"/>
            <g>
                <path fill="#0A4E8E" fill-rule="nonzero" d="M535.306 577.781h20.647v21.094h-20.647z"/>
                <path fill="#1DA2DB" fill-rule="nonzero" d="M554.555 579.21v18.237h-17.851V579.21h17.851zm1.553-1.587H535.15v21.41h20.957v-21.41z"/>
                <path stroke="#1DA2DB" stroke-width="2" d="M536.53 588.25h18.2M545.706 578v19.313"/>
                <path fill="#0A4E8E" fill-rule="nonzero" d="M559.624 601.531h-20.648l-3.67-2.656h20.647z" opacity=".3"/>
            </g>
            <path fill="#042A58" fill-rule="nonzero" d="M616.314 541h-87.475L518 563h109z"/>
        </g>
        <g fill-rule="nonzero" transform="translate(780 540)">
            <ellipse cx="24.714" cy="24.889" fill="#D1D4EB" rx="24.286" ry="24.178"/>
            <path fill="#5B3939" d="M28.286 79.467H21.5V30.4c0-1.778 1.429-3.378 3.393-3.378 1.964 0 3.393 1.422 3.393 3.378v49.067z"/>
        </g>
        <g fill-rule="nonzero" transform="translate(1336 523)">
            <ellipse cx="22.531" cy="32.855" fill="#7184C8" rx="22.292" ry="32.607"/>
            <path fill="#3D2626" d="M25.892 96.287H19.17V47.11c0-1.782 1.416-3.385 3.362-3.385 1.946 0 3.361 1.425 3.361 3.385v49.178z"/>
        </g>
        <g fill-rule="nonzero" transform="translate(865 523)">
            <ellipse cx="22.531" cy="32.855" fill="#7184C8" rx="22.292" ry="32.607"/>
            <path fill="#3D2626" d="M25.892 96.287H19.17V47.11c0-1.782 1.416-3.385 3.362-3.385 1.946 0 3.361 1.425 3.361 3.385v49.178z"/>
        </g>
        <g fill-rule="nonzero" transform="translate(1415 523)">
            <ellipse cx="22.708" cy="32.964" fill="#7184C8" rx="22.292" ry="32.607"/>
            <path fill="#3D2626" d="M26.07 96.575h-6.724V47.396c0-1.781 1.416-3.385 3.362-3.385 1.946 0 3.361 1.425 3.361 3.385v49.179z"/>
        </g>
        <g fill-rule="nonzero" transform="translate(1368 540)">
            <ellipse cx="25" cy="24.711" fill="#D1D4EB" rx="24.386" ry="24.178"/>
            <path fill="#5B3939" d="M28.586 79.289h-6.814V30.222a3.39 3.39 0 0 1 3.407-3.378c1.973 0 3.407 1.423 3.407 3.378V79.29z"/>
        </g>
        <g fill-rule="nonzero" transform="translate(897 540)">
            <ellipse cx="25" cy="24.711" fill="#D1D4EB" rx="24.386" ry="24.178"/>
            <path fill="#5B3939" d="M28.586 79.289h-6.814V30.222a3.39 3.39 0 0 1 3.407-3.378c1.973 0 3.407 1.423 3.407 3.378V79.29z"/>
        </g>
        <g fill-rule="nonzero" transform="translate(1303 558)">
            <ellipse cx="23.465" cy="24.158" fill="#7184C8" rx="16.533" ry="16.474" transform="rotate(-50.653 23.465 24.158)"/>
            <path fill="#5B3939" d="M25.956 61.291h-4.623v-33.48c0-1.24 1.067-2.302 2.311-2.302 1.245 0 2.312 1.062 2.312 2.302v33.48z"/>
        </g>
        <g fill-rule="nonzero" transform="translate(1127 558)">
            <ellipse cx="23.465" cy="24.158" fill="#D1D4EB" rx="16.533" ry="16.474" transform="rotate(-50.653 23.465 24.158)"/>
            <path fill="#5B3939" d="M25.956 61.291h-4.623v-33.48c0-1.24 1.067-2.302 2.311-2.302 1.245 0 2.312 1.062 2.312 2.302v33.48z"/>
        </g>
        <g fill-rule="nonzero" transform="translate(1432 559)">
            <ellipse cx="21.907" cy="22.657" fill="#D1D4EB" rx="16.74" ry="16.686" transform="rotate(-22.5 21.907 22.657)"/>
            <path fill="#5B3939" d="M24.38 60.282H19.7V26.374c0-1.256 1.08-2.333 2.34-2.333 1.26 0 2.34 1.077 2.34 2.333v33.908z"/>
        </g>
        <g>
            <path fill="#59CFFA" fill-rule="nonzero" d="M1169.248 532.534h121.217v87.22h-121.217z"/>
            <path stroke="#0A4E8E" stroke-linecap="square" stroke-width="5" d="M1169.248 532.534h121.217"/>
            <path fill="#1DA2DB" fill-rule="nonzero" d="M1182.261 576.144h56.687v43.61h-56.687zM1254.278 548.732h21.035v21.004h-21.035zM1218.626 548.732h21.035v21.004h-21.035zM1182.974 548.732h21.035v21.004h-21.035zM1254.278 585.578h21.035v21.004h-21.035z"/>
            <path fill="#0A4E8E" fill-rule="nonzero" d="M1199.374 582.908h24.243v36.668h-24.243z"/>
            <path fill="#FFF" fill-rule="nonzero" d="M1205.257 603.2a1.977 1.977 0 0 1-1.961 1.958c-1.07 0-1.961-.89-1.961-1.958s.891-1.958 1.96-1.958c1.07.178 1.962.89 1.962 1.958z"/>
            <g stroke="#59CFFA" stroke-width="2">
                <path d="M1252 560h24.025M1265.153 546v24.813"/>
            </g>
            <g stroke="#59CFFA" stroke-width="2">
                <path d="M1216 560h24.025M1229.153 546v24.813"/>
            </g>
            <g stroke="#59CFFA" stroke-width="2">
                <path d="M1181 560h24.025M1194.153 546v24.813"/>
            </g>
            <g stroke="#59CFFA" stroke-width="2">
                <path d="M1252 596h24.025M1265.153 582v24.813"/>
            </g>
        </g>
        <path fill="#FFF" d="M0 613h1442v16H0z"/>
        <path fill="#FFF" fill-rule="nonzero" d="M1375.758 61.923c-2.027 0-4.04.312-5.967.925-3.968-15.463-19.786-25.057-35.733-21.671-1.637-20.88-17.929-37.83-39.156-40.741-21.227-2.911-41.666 9.004-49.123 28.636a39.808 39.808 0 0 0-21.517-6.24c-1.372-.001-2.743.067-4.107.205-5.829-12.296-18.647-19.97-32.509-19.46-13.86.51-26.053 9.102-30.919 21.792-10.147-6.455-23.293-6.235-33.208.554-9.916 6.79-14.611 18.787-11.862 30.307h-10.354a11.44 11.44 0 0 0-7.993 3.234 10.914 10.914 0 0 0-3.31 7.808v.24h95.51c0 .857.246 1.714.456 2.537h-13.724c-8.278 0-14.988 6.556-14.988 14.642V85h237.248c1.329-5.599-.033-11.484-3.699-15.98-3.665-4.496-9.232-7.11-15.115-7.097h.07zM1412.202 177.882c-1.242 0-2.477.191-3.658.566-2.433-9.46-12.131-15.329-21.909-13.258-1.003-12.773-10.992-23.143-24.006-24.924-13.015-1.78-25.547 5.51-30.119 17.52a24.447 24.447 0 0 0-13.192-3.819c-.841 0-1.682.042-2.518.126-3.574-7.522-11.433-12.217-19.932-11.905-8.498.312-15.973 5.569-18.957 13.332-6.221-3.949-14.28-3.815-20.36.34-6.08 4.153-8.958 11.492-7.273 18.54h-6.348c-1.838 0-3.6.711-4.9 1.978a6.67 6.67 0 0 0-2.03 4.777v.146h58.559c0 .525.15 1.05.28 1.553h-8.415c-5.076 0-9.19 4.01-9.19 8.957V192h145.46c.815-3.425-.02-7.026-2.267-9.776s-5.66-4.35-9.268-4.342h.043zM405.09 80.864c-2.519 0-5.021.408-7.416 1.209-4.93-20.194-24.586-32.722-44.402-28.301C351.238 26.506 330.993 4.37 304.616.569c-26.377-3.801-51.776 11.759-61.042 37.396-7.946-5.338-17.241-8.172-26.737-8.15-1.705 0-3.408.089-5.104.269-7.242-16.058-23.17-26.078-40.395-25.413-17.225.665-32.375 11.887-38.421 28.458-12.61-8.43-28.944-8.143-41.266.724S73.495 58.386 76.911 73.43H64.046c-3.725 0-7.297 1.52-9.931 4.223C51.48 80.357 50 84.025 50 87.85v.314h118.683c0 1.119.305 2.239.567 3.313h-17.054c-10.287 0-18.625 8.56-18.625 19.121V111h294.81c1.651-7.312-.041-14.997-4.596-20.868-4.555-5.871-11.472-9.285-18.783-9.268h.087z" opacity=".522"/>
    </g>
</svg>
