<svg xmlns="http://www.w3.org/2000/svg" xmlns:xlink="http://www.w3.org/1999/xlink" width="369" height="232" viewBox="0 0 369 232">
    <defs>
        <path id="a" d="M171.6 231c94.772 0 171.6-59.098 171.6-132S257.95-40.7 177.1 32.45C117.15-1.65 0 26.098 0 99s76.828 132 171.6 132z"/>
    </defs>
    <g fill="none" fill-rule="evenodd">
        <path fill="#EDEFF8" fill-rule="nonzero" d="M237.785 72.81a33.294 33.294 0 0 0-.838-2.053 42.235 42.235 0 0 0-1-2.059 46.496 46.496 0 0 0-1.12-1.975c-.536-.848-.856-1.38-1.242-1.891-.635-.869-.988-1.345-1.354-1.794-.131-.16-.269-.315-.406-.476-.347-.413-.7-.826-1.066-1.226-.177-.189-.36-.364-.537-.553-.34-.357-.654-.7-1.04-1.05-.222-.21-.458-.407-.687-.617-.327-.294-.654-.595-.994-.875-.34-.28-.582-.449-.87-.7a11.514 11.514 0 0 0-.91-.701c-.313-.224-.758-.512-1.144-.764-.242-.16-.484-.329-.733-.483a31.622 31.622 0 0 0-1.963-1.107c-3.13-16.815-16.84-28.979-32.853-29.152-.872 0-1.744.026-2.617.077a31.587 31.587 0 0 0-5.017.77c-.816.192-1.62.426-2.414.701-4.291-11.286-13.85-19.29-25.115-21.03-11.265-1.74-22.546 3.047-29.64 12.576-13.548-10.27-31.083-12.34-46.395-5.475-15.312 6.864-26.238 21.694-28.909 39.236a30.094 30.094 0 0 0-6.908-.89c-1.08 0-2.146.042-3.2.14-.359 0-.7.105-1.059.154-.687.092-1.38.176-2.054.316-.419.084-.83.21-1.243.308-.589.147-1.184.287-1.766.47-.439.14-.87.307-1.309.468-.53.197-1.066.386-1.583.603-.517.217-.883.413-1.308.623-.425.21-.962.462-1.433.7-.47.239-.876.512-1.308.778-.432.266-.87.54-1.309.827-.438.287-.857.616-1.308.938-.451.322-.772.596-1.151.904-.38.308-.838.7-1.243 1.1-.406.399-.655.637-1.008.966-.353.33-.804.826-1.19 1.26-.386.435-.59.701-.87 1.01-.386.462-.76.938-1.126 1.4-.248.336-.49.7-.732 1.03-.36.525-.707 1.05-1.04 1.597-.203.336-.4.7-.596 1.03-.196.329-.3.504-.438.763C5.52 72.099.079 80.533 0 89.97c-.111 12.734 9.4 34.902 21.261 35.021.308 0 .602 0 .903-.042 7.561 6.27 17.362 8.548 26.671 6.2 3.674 11.784 13.01 20.523 24.408 22.847 11.399 2.325 23.08-2.128 30.544-11.64 6.177 8.181 15.519 12.878 25.345 12.741 9.826-.137 19.05-5.091 25.027-13.442a19.29 19.29 0 0 0 6.058-.19c1.957.437 3.948.672 5.946.701 10.498.104 20.378-5.301 26.45-14.47 9.777 5.675 21.61 5.492 31.23-.484a20.024 20.024 0 0 0 9.813 2.71c11.775.12 21.431-21.79 21.542-34.44.09-11.075-7.247-20.627-17.414-22.673z"/>
        <path fill="#EDEFF8" d="M243.1 5.5h125.4v150.054H243.1z"/>
        <path fill="#FFF" fill-rule="nonzero" d="M323.331 87.46H265.177v48.62H347.306V87.46z"/>
        <path fill="#EDEFF8" fill-rule="nonzero" d="M279.09 124.474h-11.263v7.473h74.725v-7.473z" opacity=".9"/>
        <path fill="#EDEFF8" fill-rule="nonzero" d="M274.774 114.78h-6.947v7.472h9.282v-7.472zM270.458 102.442h-2.631v7.472H305.41v-7.472z"/>
        <path fill="#D1D4EB" fill-rule="nonzero" d="M323.703 90.985h-55.876V98.458h64.554v-7.473z"/>
        <g fill-rule="nonzero">
            <path fill="#FFF" d="M302.268 49.564l-1.465 4.005-6.98 21.553c-14.9-4.537-22.303-19.043-17.626-33.49l23.68 7.216 2.39.716z"/>
            <path fill="#FFF" d="M317.28 76.42a28.154 28.154 0 0 1-21.194 1.846l7.4-23.15.937-2.908L317.28 76.42z" opacity=".9"/>
            <path fill="#D1D4EB" d="M317.224 70.708l-12.95-23.993-3.241-.99-23.492-7.135c2.221-6.862 7.18-12.584 13.776-15.897.725-.365 1.45-.702 2.175-.99 13.84-5.6 29.784.352 36.15 13.496s.893 28.808-12.411 35.516l-.007-.007z"/>
        </g>
        <g>
            <path fill="#FFF" d="M140.8 11h125.4v150.054H140.8z"/>
            <path fill="#EDEFF8" fill-rule="nonzero" d="M180.54 40.963h71.53v4.092h-71.53zM180.54 68.283h71.53v4.092h-71.53zM180.54 96.484h71.53v4.092h-71.53zM180.54 124.686h71.53v4.092h-71.53z"/>
            <g transform="translate(155.696 34.68)">
                <circle cx="8.426" cy="8.426" r="8.426" fill="#D1D4EB"/>
                <path stroke="#FFF" stroke-linecap="round" stroke-width="1.373" d="M5.217 8.217l2.022 2.021 4.249-4.237"/>
            </g>
            <g transform="translate(155.696 62.88)">
                <circle cx="8.426" cy="8.426" r="8.426" fill="#D1D4EB"/>
                <path stroke="#FFF" stroke-linecap="round" stroke-width="1.373" d="M5.217 8.217l2.022 2.021 4.249-4.237"/>
            </g>
            <g transform="translate(155.696 90.2)">
                <circle cx="8.426" cy="8.426" r="8.426" fill="#D1D4EB"/>
                <path stroke="#FFF" stroke-linecap="round" stroke-width="1.373" d="M5.217 8.217l2.022 2.021 4.249-4.237"/>
            </g>
            <g transform="translate(155.696 118.402)">
                <circle cx="8.426" cy="8.426" r="8.426" fill="#D1D4EB"/>
                <path stroke="#FFF" stroke-linecap="round" stroke-width="1.373" d="M5.217 8.217l2.022 2.021 4.249-4.237"/>
            </g>
        </g>
        <g transform="translate(16.5)">
            <mask id="b" fill="#fff">
                <use xlink:href="#a"/>
            </mask>
            <g mask="url(#b)">
                <path fill="#FCDCC8" d="M154.568 114.222a4551.398 4551.398 0 0 1 9.956-16.727c2.52-4.198 7.704-7.7 8.875-8.718 1.172-1.019-.445 5.402-1.031 5.911-.39.34-1.006 1.21-1.847 2.608 1.893-.977 3.846-2.674 5.858-5.092 3.018-3.626 4.686-4.073 7.615-6.62 2.929-2.545 4.38 6.223 3.617 8.893-.764 2.67-8.647 12.532-10.404 14.06-1.758 1.527-6.042 3.539-8.817 5.514-2.776 1.974-7.016 8.63-8.442 6.99-1.046-1.203-2.84-3.476-5.38-6.82z"/>
                <path fill="#F0C9B1" d="M265.166 99.956c2.032 5.682 2.54 10.59 1.524 14.721-1.016 4.133-2.286 5.682-3.81 4.649-1.44 2.583-1.44 3.874 0 3.874 2.159 0 8.382-3.874 12.955-6.198 3.048-1.55 8.636-4.133 16.765-7.748-6.605-4.132-9.907-9.04-9.907-14.721 0-5.682-5.842-3.874-17.527 5.423z"/>
                <path fill="#FFD6BD" fill-rule="nonzero" d="M249.404 62.34c-1.845 1.204-3.216 3.053-3.87 5.215a34.223 34.223 0 0 0-.718 7.746c-.223 2.788-4.817 11.34-3.366 14.089.868 1.549 2.895-1.085 4.085 0 1.19 1.084 1.215 3.717 1.76 5.163.13.376 6.255-2.153 6.255-2.153 0 1.194-2.2 4.4-4.146 6.633 0 .943.972 2.01 1.396 2.717 1.573 2.623.676 4.4 2.75 7.15 6.894 0 28.789-9.254 30.2-9.867.93-.597 12.138-27.248 3.234-36.693-8.32-8.824-36.732-.521-37.58 0z"/>
                <path fill="#0A4E8E" fill-rule="nonzero" d="M285.746 99h-2.088c-.018-.368-11.639-3.474-14.331-5.26-.279-2.792-4.083-4.363-2.577-6.252 4.272-5.358 4.272-13.682 2.577-14.338-2.734-1.058-9.793 5.344-10.77 5.408-4.35.008-.52-17.677-6.734-15.021-6.212 2.656-12.425-3.971-8.698-9.231 3.678-4.445 11.855-2.893 17.396-3.314 4.153-.74 14.812-6.523 25.772-1.946 10.959 4.576 1.442 36.094 0 44.694a23.243 23.243 0 0 0-.547 5.26z"/>
                <path fill="#F0C9B1" d="M108.834 105.456c-2.032 5.682-2.54 10.59-1.524 14.721 1.016 4.133 2.286 5.682 3.81 4.649 1.44 2.583 1.44 3.874 0 3.874-2.159 0-8.382-3.874-12.955-6.198-3.048-1.55-8.636-4.133-16.765-7.748 6.605-4.132 9.907-9.04 9.907-14.721 0-5.682 5.842-3.874 17.527 5.423z"/>
                <path fill="#2180EA" d="M103.616 124.045c19.03 5.384 29.567 7.148 31.613 5.293 2.046-1.856 9.221-10.72 21.526-26.593l13.006 14.614c-13.454 18.15-20.993 27.664-22.615 28.543-6.219 3.37-29.916 11.933-38 10.819-5.388-.742-7.232-11.634-5.53-32.676z"/>
                <path fill="#2180EA" d="M111.187 122.1c6.252 6.636 10.16 14.294 11.724 22.972 2.344 13.018 4.689 26.801 2.344 35.99-2.344 9.19 2.345 53.603 2.345 58.197 0 4.595 0 16.08-2.345 16.08-2.344 0-14.85 5.361-16.413 5.361h-5.47l-2.346-6.892v-19.143L97.9 132.055l13.287-9.955z"/>
                <path fill="#0A4E8E" d="M114.594 225.621l22.807 80.413 2.299 98.294c-14.494 3.592-21.741 4.619-21.741 3.08 0-2.31-5.808-76.716-5.808-84.022-2.881-11.869-11.298-28.612-25.251-50.23l9.774-52.056 17.92 4.521z"/>
                <path fill="#0A4E8E" d="M108.9 221.1l-6.924 93.698-15.076 73.73c-12.005 2.048-19.29 3.072-21.855 3.072-1.614 0 10.771-76.994 10.771-86.978-2.564-11.264-5.642-39.105-9.232-83.522H108.9z"/>
                <path fill="#FFF" d="M86.008 108.9c8.447 6.149 13.694 10.248 15.742 12.297 2.048 2.05 4.48 2.05 7.295 0 7.68 11.785 11.52 20.752 11.52 26.901 0 9.223 1.535 18.446 1.535 23.826 0 5.38-1.536 48.422-1.536 50.727 0 2.306-9.983 6.149-9.983 6.149h-1.536c-2.125-20.346-2.637-35.718-1.536-46.115 3.094-29.207 3.195-41.964 1.536-46.116-4.607-11.529-13.054-16.909-16.126-18.446-2.048-1.025-5.888-2.818-11.519-5.38l4.608-3.843z"/>
                <path fill="#2180EA" d="M81.029 113.3c-7.69 7.655-12.56 13.523-14.611 17.606-3.076 6.123 2.307 35.976 2.307 48.99 0 8.675-6.408 32.66-19.225 71.953 15.893 6.634 25.377 9.951 28.453 9.951 4.614 0 32.768-4.593 35.844-13.013 3.076-8.42-6.622-41.335-6.622-55.879 0-14.544 6.92-48.224 4.613-55.113-2.306-6.89-11.534-15.31-16.917-19.137-3.589-2.551-8.203-4.337-13.842-5.358z"/>
                <path fill="#F0C9B1" d="M169.2 193.562c2.098.382 4.772.744 8.022 1.086 4.875.514 10.246 3.734 11.666 4.366 1.42.632 5.151 4.69 8.7 6.27 3.55 1.58-6.457 7.808-9.203 8.243-2.745.435-13.677-1.768-15.807-2.717l-9.228-4.108 5.85-13.14z"/>
                <path fill="#1DA2DB" d="M74.57 130.268c5.673-10.404 16.802-11.536 23.268-5.506 6.466 6.03 10.794 11.112 14.095 18.375 3.3 7.263 13.658 24.245 16.352 26.758 2.694 2.512 39.62 21.252 41.236 22.759 1.617 1.507 3.806 5.642-.335 12.243-2.76 4.4-6.894 5.952-12.4 4.655-29.546-15.346-45.038-23.69-46.475-25.03-2.156-2.009-16.627-20.735-19.86-23.75-3.233-3.015-21.554-20.1-15.88-30.504z"/>
                <g fill-rule="nonzero">
                    <path fill="#FFD6BD" d="M121.674 67.497c1.586 1.061 2.765 2.692 3.327 4.598.458 2.242.665 4.534.618 6.829.192 2.458 3.779 11.052 2.531 13.476l-4.4-1.054c-.658.615-.846 3.31-2.076 4.354-.682.58-6.557-2.655-6.724-2.2 1.362 2.2 3.85 4.4 4.95 5.5-.148 1.314-1.686 3.007-2.2 4.4-.79 2.138-3.157 6.78-3.85 7.15-5.928 0-20.787-11.01-22-11.55-.8-.527-10.144-23.176-2.488-31.503 7.153-7.78 31.583-.46 32.312 0z"/>
                    <path fill="#042A58" d="M88 98.851c.012-.23 2.31 3.865 4.62 0s8.828-11.141 8.47-11.594c-3.666-4.638-1.33-10.456 0-11.23 4.62-2.684 6.862 5.763 7.7 5.819 3.732.007 2.31-17.778 10.822-13.134 8.511 4.644 17.016 4.553 13.818 0-9.24-16.239-40.81-21.65-47.74-9.282-6.93 12.367-3.547 21.157-2.31 28.6.218.994 1.758 4.602 4.62 10.821z"/>
                </g>
                <path fill="#FCDCC8" d="M197.687 189.597c-5.033 1.135-8.506 2.336-10.419 3.605-2.87 1.903-8.608 5.708-9.855 8.187-1.248 2.479.844 6.873.844 6.873s-.67.858 2.105-1.809c2.776-2.666 1.843-6.753 4.56-7.087 2.718-.334 6.904 5.68 10.148 6.832 2.163.768 4.711.455 7.643-.939 1.45-3.706 1.889-6.452 1.316-8.239-.574-1.787-2.688-4.261-6.342-7.423z"/>
                <path fill="#2180EA" d="M254.1 134.839c-11.807 23.083-18.993 35.907-21.56 38.472-2.567 2.565-15.657 7.951-39.27 16.158l12.32 17.698c14.373-6.669 23.87-10.516 28.49-11.542 6.93-1.539 13.09-10.772 18.48-16.928 3.593-4.103 4.107-18.723 1.54-43.858z"/>
                <path fill="#2180EA" d="M261.8 119.45c-6.16 6.669-10.01 14.363-11.55 23.083-2.31 13.08-4.62 26.93-2.31 36.164 2.31 9.234-2.31 53.861-2.31 58.478 0 4.617 0 16.158 2.31 16.158s14.63 5.386 16.17 5.386h5.39l2.31-6.925v-19.236l3.08-103.105-13.09-10.003z"/>
                <path fill="#0A4E8E" d="M258.977 221.935l-22.617 71.07V382.6h17.77s7.27-67.802 7.27-74.259c2.856-10.49 11.203-25.288 25.04-44.394l-9.693-46.008-17.77 3.996z"/>
                <path fill="#0A4E8E" d="M264.11 217.939l6.93 93.872 13.86 86.947c12.32 1.54 19.507 1.54 21.56 0 1.586-1.188-9.24-87.14-9.24-97.142 2.567-11.285 5.647-39.178 9.24-83.677h-42.35z"/>
                <path fill="#FFF" d="M287.21 105.6c-8.47 6.156-13.732 10.26-15.785 12.311-2.053 2.052-4.492 2.052-7.315 0-7.7 11.798-11.55 20.775-11.55 26.93 0 9.234-1.54 18.467-1.54 23.853 0 5.387 1.54 48.475 1.54 50.784 0 2.308 10.01 6.155 10.01 6.155h1.54c2.13-20.368 2.644-35.757 1.54-46.166-3.101-29.24-3.204-42.01-1.54-46.167 4.62-11.542 13.09-16.928 16.17-18.467 2.053-1.026 5.903-2.821 11.55-5.386l-4.62-3.847z"/>
                <path fill="#2180EA" d="M291.531 110.217c7.7 7.694 12.577 13.593 14.63 17.697 3.08 6.155-2.31 36.164-2.31 49.244 0 8.72 6.417 32.83 19.25 72.328-15.913 6.669-25.41 10.003-28.49 10.003-4.62 0-32.811-4.617-35.891-13.08-3.08-8.465 6.631-41.55 6.631-56.17 0-14.62-6.93-48.475-4.62-55.4 2.31-6.925 11.55-15.389 16.94-19.236 3.594-2.565 8.214-4.36 13.86-5.386z"/>
                <path fill="#FCDCC8" d="M170.17 210.244c2.567.513 4.363.77 5.39.77 1.54 0 9.24.77 10.01 1.539.513.513 1.027 1.282 1.54 2.308-5.647 1.026-8.983 1.283-10.01.77-1.027-.513-3.337-2.309-6.93-5.387z"/>
                <path fill="#1DA2DB" d="M297.096 119.46c-11.479-2.947-19.896 4.42-19.896 13.262 0 8.841.765 15.472 3.826 22.84s8.417 26.524 8.417 30.208c0 3.684-11.478 43.47-11.478 45.68 0 2.21 1.53 6.63 9.183 8.104 5.101.983 9.055-.982 11.86-5.894 8.928-32.075 13.392-49.095 13.392-51.06 0-2.946-3.826-26.301-3.826-30.722 0-4.42 0-29.47-11.478-32.418z"/>
            </g>
        </g>
    </g>
</svg>
