<svg xmlns="http://www.w3.org/2000/svg" xmlns:xlink="http://www.w3.org/1999/xlink" width="459" height="263" viewBox="0 0 459 263">
    <defs>
        <ellipse id="a" cx="33.334" cy="35.133" rx="33.31" ry="34.276"/>
        <ellipse id="c" cx="33.334" cy="35.133" rx="33.31" ry="34.276"/>
        <ellipse id="e" cx="33.334" cy="35.133" rx="33.31" ry="34.276"/>
    </defs>
    <g fill="none" fill-rule="evenodd">
        <path fill="#F7F9FF" fill-rule="nonzero" d="M265 202.48c.01-6.596-3.288-12.796-8.868-16.67-5.58-3.874-12.763-4.951-19.314-2.896-4.408-16.862-21.996-27.341-39.755-23.688-1.722-22.917-19.944-41.567-43.723-44.752-23.78-3.186-46.653 9.96-54.886 31.542-15.004-9.348-34.44-9.03-49.102.803-14.661 9.834-21.603 27.208-17.537 43.892H16.712c-9.21 0-16.683 7.13-16.712 15.941V207h264.43c.363-1.482.555-2.997.57-4.52z"/>
        <path fill="#F7F9FF" fill-rule="nonzero" d="M459 213.169c.013-8.512-4.231-16.512-11.411-21.511-7.18-4.999-16.424-6.388-24.853-3.736-5.673-21.758-28.304-35.28-51.157-30.566-2.216-29.57-25.663-53.634-56.262-57.745-30.6-4.11-60.033 12.851-70.627 40.7-19.307-12.062-44.318-11.652-63.184 1.036-18.866 12.689-27.799 35.107-22.567 56.635h-19.434c-11.851 0-21.468 9.199-21.505 20.57V219h340.265a25.57 25.57 0 0 0 .735-5.831z"/>
        <path stroke="#D1D4EB" stroke-width="3" d="M123 97l23.5 56M230 67v117.51M353.5 82.5l-30 77"/>
        <g transform="translate(83 31)">
            <mask id="b" fill="#fff">
                <use xlink:href="#a"/>
            </mask>
            <use fill="#FFF" fill-rule="nonzero" stroke="#EDEFF8" stroke-width="3" xlink:href="#a"/>
            <g fill="#D1D4EB" fill-rule="nonzero" mask="url(#b)">
                <path d="M59.65 76.019s-.524-19.831-3.736-18.313a11.46 11.46 0 0 0-2.95-1.616 58.496 58.496 0 0 1-10.303-5.117l-8.6 16.355-9.959-16.257A58.496 58.496 0 0 1 13.8 56.188c-1.063.37-2.06.915-2.95 1.616-3.212-1.494-2.237 18.313-2.237 18.313"/>
                <path d="M22.413 40.69c.758 4.656 3.826 8.565 8.09 10.308a8.501 8.501 0 0 0 5.948 0c4.242-1.78 7.303-5.669 8.113-10.308.62 0 1.428-.954 2.38-4.162 1.213-4.358 0-5.019-1.166-4.896.2-.584.358-1.18.476-1.788 1.713-11.36-1.69-15.154-6.995-12.706-.807-1.291-14.324-4.897-18.083 0-3.76 4.896-.213 13.89 0 14.47-1.118 0-2.38.538-1.19 4.896.928 3.232 1.737 4.113 2.427 4.186z"/>
            </g>
        </g>
        <g transform="translate(78.167 74.167)">
            <circle cx="12.833" cy="12.833" r="12.833" fill="#D1D4EB"/>
            <path stroke="#FFF" stroke-linecap="round" stroke-width="2.016" d="M7.947 12.516l3.078 3.078 6.473-6.454"/>
        </g>
        <g transform="translate(196)">
            <mask id="d" fill="#fff">
                <use xlink:href="#c"/>
            </mask>
            <use fill="#FFF" fill-rule="nonzero" stroke="#EDEFF8" stroke-width="3" xlink:href="#c"/>
            <g fill="#D1D4EB" fill-rule="nonzero" mask="url(#d)">
                <path d="M59.65 76.019s-.524-19.831-3.736-18.313a11.46 11.46 0 0 0-2.95-1.616 58.496 58.496 0 0 1-10.303-5.117l-8.6 16.355-9.959-16.257A58.496 58.496 0 0 1 13.8 56.188c-1.063.37-2.06.915-2.95 1.616-3.212-1.494-2.237 18.313-2.237 18.313"/>
                <path d="M22.413 40.69c.758 4.656 3.826 8.565 8.09 10.308a8.501 8.501 0 0 0 5.948 0c4.242-1.78 7.303-5.669 8.113-10.308.62 0 1.428-.954 2.38-4.162 1.213-4.358 0-5.019-1.166-4.896.2-.584.358-1.18.476-1.788 1.713-11.36-1.69-15.154-6.995-12.706-.807-1.291-14.324-4.897-18.083 0-3.76 4.896-.213 13.89 0 14.47-1.118 0-2.38.538-1.19 4.896.928 3.232 1.737 4.113 2.427 4.186z"/>
            </g>
        </g>
        <g transform="translate(191.167 43.167)">
            <circle cx="12.833" cy="12.833" r="12.833" fill="#D1D4EB"/>
            <path stroke="#FFF" stroke-linecap="round" stroke-width="2.016" d="M7.947 12.516l3.078 3.078 6.473-6.454"/>
        </g>
        <g>
            <g transform="translate(322 20)">
                <mask id="f" fill="#fff">
                    <use xlink:href="#e"/>
                </mask>
                <use fill="#FFF" fill-rule="nonzero" stroke="#EDEFF8" stroke-width="3" xlink:href="#e"/>
                <g fill="#D1D4EB" fill-rule="nonzero" mask="url(#f)">
                    <path d="M59.65 76.019s-.524-19.831-3.736-18.313a11.46 11.46 0 0 0-2.95-1.616 58.496 58.496 0 0 1-10.303-5.117l-8.6 16.355-9.959-16.257A58.496 58.496 0 0 1 13.8 56.188c-1.063.37-2.06.915-2.95 1.616-3.212-1.494-2.237 18.313-2.237 18.313"/>
                    <path d="M22.413 40.69c.758 4.656 3.826 8.565 8.09 10.308a8.501 8.501 0 0 0 5.948 0c4.242-1.78 7.303-5.669 8.113-10.308.62 0 1.428-.954 2.38-4.162 1.213-4.358 0-5.019-1.166-4.896.2-.584.358-1.18.476-1.788 1.713-11.36-1.69-15.154-6.995-12.706-.807-1.291-14.324-4.897-18.083 0-3.76 4.896-.213 13.89 0 14.47-1.118 0-2.38.538-1.19 4.896.928 3.232 1.737 4.113 2.427 4.186z"/>
                </g>
            </g>
            <g transform="translate(317.167 63.167)">
                <circle cx="12.833" cy="12.833" r="12.833" fill="#D1D4EB"/>
                <path stroke="#FFF" stroke-linecap="round" stroke-width="2.016" d="M7.947 12.516l3.078 3.078 6.473-6.454"/>
            </g>
        </g>
        <g fill-rule="nonzero">
            <path fill="#59CFFA" d="M178.978 232v-21.91a21.803 21.803 0 0 1-17.625.244 21.69 21.69 0 0 1-6.952-4.737c-4.122-4.177-6.347-9.71-6.266-15.58.08-5.68 2.35-11.032 6.397-15.07 4.047-4.04 9.405-6.304 15.088-6.375l.277-.002c3.152 0 6.251.689 9.082 1.986L179 148.83h-26.037c.63-1.101 1.562-2.472 2.632-4.033 2.07-3.019 3.611-6.511 3.561-10.466-.112-8.92-7.392-16.206-16.316-16.33a17.62 17.62 0 0 0-.234-.001c-9.142 0-16.552 7.406-16.552 16.543 0 3.867 1.518 7.284 3.552 10.24.99 1.438 2.012 2.945 2.643 4.047h-24.3a6.948 6.948 0 0 0-6.949 6.946v69.278a6.948 6.948 0 0 0 6.95 6.946h71.028z"/>
            <path fill="#2180EA" d="M245.975 149h21.99l-.003 31.89c.926-.53 2.64-1.68 4.219-2.765 2.923-2.01 6.337-3.448 10.164-3.448 9.194.114 16.529 7.414 16.653 16.364a16.486 16.486 0 0 1-2.164 8.424 16.658 16.658 0 0 1-14.49 8.41c-3.826 0-7.161-1.556-10.162-3.449-1.85-1.166-3.294-2.235-4.22-2.764V233h-5.266l-.107-.236a7.023 7.023 0 0 1-1.812.236h-76.739v-31.338c-.926.529-2.37 1.598-4.22 2.764-3 1.893-6.336 3.449-10.163 3.449a16.658 16.658 0 0 1-14.49-8.41 16.486 16.486 0 0 1-2.163-8.424c.124-8.95 7.46-16.25 16.653-16.364 3.827 0 7.24 1.438 10.164 3.448 1.578 1.085 3.293 2.236 4.22 2.764L184.034 149h21.99a21.795 21.795 0 0 0-1.997 9.386c.072 5.699 2.35 11.072 6.417 15.13 4.067 4.058 9.454 6.336 15.481 6.417 5.85 0 11.35-2.27 15.486-6.392 4.136-4.122 6.414-9.603 6.414-15.433 0-3.16-.693-6.27-2-9.108h.15z"/>
            <path fill="#59CFFA" d="M274.022 149v21.91a21.803 21.803 0 0 1 17.625-.244 21.69 21.69 0 0 1 6.952 4.737c4.122 4.177 6.347 9.71 6.266 15.58-.08 5.68-2.35 11.032-6.397 15.07-4.047 4.04-9.405 6.304-15.088 6.375a21.808 21.808 0 0 1-9.36-1.984l-.02 21.726h26.037c-.63 1.101-1.562 2.472-2.632 4.033-2.07 3.019-3.611 6.511-3.561 10.466.112 8.92 7.392 16.206 16.316 16.33l.234.001c9.142 0 16.552-7.406 16.552-16.543 0-3.867-1.518-7.284-3.552-10.24-.99-1.438-2.012-2.945-2.643-4.047h24.3c3.838 0 6.949-3.11 6.949-6.946v-69.278a6.948 6.948 0 0 0-6.95-6.946h-71.028z"/>
        </g>
    </g>
</svg>
