<svg xmlns="http://www.w3.org/2000/svg" xmlns:xlink="http://www.w3.org/1999/xlink" width="284" height="252" viewBox="0 0 284 252">
    <defs>
        <circle id="a" cx="43" cy="43" r="43"/>
    </defs>
    <g fill="none" fill-rule="evenodd">
        <path fill="#EDEFF8" fill-rule="nonzero" d="M.703 20.553h74.535V183.85H.703z"/>
        <g stroke="#EFFAFF" stroke-width="2.5" opacity=".569">
            <path d="M5.918 21.075v162.847M13.062 21.075v162.847M20.206 21.075v162.847M27.421 21.075v162.847M34.565 21.075v162.847M41.78 21.075v162.847M48.925 21.075v162.847M57.926 21.075v162.847M65.07 21.075v162.847M72.286 21.075v162.847"/>
        </g>
        <g stroke="#F2EFE4" opacity=".4">
            <path d="M.703 36.09h53.866M.703 53.137h53.866M.703 70.11h53.866M.703 87.084h53.866M.703 104.13h53.866M.703 121.105h53.866M.703 138.078h53.866M.703 155.125h53.866M.703 172.099h53.866"/>
        </g>
        <g fill-rule="nonzero">
            <path fill="#D1D4EB" d="M175.074 41.373h53.556v136.963h-53.556z"/>
            <path fill="#EDEFF8" d="M201.523 31.798v-4.959h-16.785v4.959h-11.38V184.75h56.472V31.798h-28.307zm-19.559 43.935h-3.627v-3.72h3.627v3.72zm0-7.365h-3.627v-3.72h3.627v3.72zm0-7.438h-3.627v-3.646h3.627v3.646zm0-7.365h-3.627v-3.719h3.627v3.72zm0-7.365h-3.627v-3.718h3.627V46.2zm7.184 108.941h-3.628V83.097h3.628v72.044zm0-79.408h-3.628v-3.72h3.628v3.72zm0-7.365h-3.628v-3.72h3.628v3.72zm0-7.438h-3.628v-3.646h3.628v3.646zm0-7.365h-3.628v-3.719h3.628v3.72zm0-7.365h-3.628v-3.718h3.628V46.2zm7.254 108.941h-3.627V83.097h3.627v72.044zm0-79.408h-3.627v-3.72h3.627v3.72zm0-7.365h-3.627v-3.72h3.627v3.72zm0-7.438h-3.627v-3.646h3.627v3.646zm0-7.365h-3.627v-3.719h3.627v3.72zm0-7.365h-3.627v-3.718h3.627V46.2zm7.184 108.941h-3.628V83.097h3.628v72.044zm0-79.408h-3.628v-3.72h3.628v3.72zm0-7.365h-3.628v-3.72h3.628v3.72zm0-7.438h-3.628v-3.646h3.628v3.646zm0-7.365h-3.628v-3.719h3.628v3.72zm0-7.365h-3.628v-3.718h3.628V46.2zm7.183 29.533h-3.627v-3.72h3.627v3.72zm0-7.365h-3.627v-3.72h3.627v3.72zm0-7.438h-3.627v-3.646h3.627v3.646zm0-7.365h-3.627v-3.719h3.627v3.72zm0-7.365h-3.627v-3.718h3.627V46.2zm7.255 29.533h-3.628v-3.72h3.628v3.72zm0-7.365h-3.628v-3.72h3.628v3.72zm0-7.438h-3.628v-3.646h3.628v3.646zm0-7.365h-3.628v-3.719h3.628v3.72zm0-7.365h-3.628v-3.718h3.628V46.2zm7.183 29.533h-3.627v-3.72h3.627v3.72zm0-7.365h-3.627v-3.72h3.627v3.72zm0-7.438h-3.627v-3.646h3.627v3.646zm0-7.365h-3.627v-3.719h3.627v3.72zm0-7.365h-3.627v-3.718h3.627V46.2z"/>
        </g>
        <g fill-rule="nonzero">
            <path fill="#EDEFF8" d="M71.726 148.52h39.539V96.086l-39.539-5.948z"/>
            <path fill="#D1D4EB" d="M111.265 93.888v90.789h-42.3V86.194l42.3 7.694zm-31.346-2.716h-5.076v3.686h5.076v-3.686zm0 6.142h-5.076V101h5.076v-3.686zm0 6.143h-5.076v3.685h5.076v-3.685zm0 6.206h-5.076v3.686h5.076v-3.686zm20.57 28.254h5.076v-3.685h-5.075v3.685zm0-6.077h5.076v-3.686h-5.075v3.686zm0-6.207h5.076v-3.685h-5.075v3.685zm0-6.142h5.076v-3.686h-5.075v3.686zm0-6.142h5.076v-3.686h-5.075v3.686zm0-6.207h5.076v-3.685h-5.075v3.685zm0-6.142h5.076v-3.686h-5.075V101zm-8.726 43.06h5.076v-3.686h-5.076v3.685zm0-6.143h5.076v-3.685h-5.076v3.685zm0-6.077h5.076v-3.686h-5.076v3.686zm0-6.207h5.076v-3.685h-5.076v3.685zm0-6.142h5.076v-3.686h-5.076v3.686zm0-6.142h5.076v-3.686h-5.076v3.686zm0-6.207h5.076v-3.685h-5.076v3.685zm0-6.142h5.076v-3.686h-5.076V101zm-3.117-3.686H83.57V101h5.076v-3.686zM83.48 144.06h5.076v-3.685H83.48v3.685zm0-6.142h5.076v-3.685H83.48v3.685zm0-6.077h5.076v-3.686H83.48v3.686zm0-6.207h5.076v-3.685H83.48v3.685zm0-6.142h5.076v-3.686H83.48v3.686zm-.178-6.142h5.076v-3.686h-5.076v3.686zm0-6.207h5.076v-3.685h-5.076v3.685zm-3.206 8.663h-5.076v3.686h5.076v-3.686zm-5.343 28.254h5.076v-3.685h-5.076v3.685zm0-6.142h5.076v-3.685h-5.076v3.685zm0-6.077h5.076v-3.686h-5.076v3.686zm0-6.207h5.076v-3.685h-5.076v3.685z"/>
        </g>
        <g fill-rule="nonzero">
            <path fill="#EDEFF8" d="M200.139 124.38h81.294V185h-81.294z"/>
            <path fill="#F4F6FF" d="M200.139 139.749h81.294v44.398h-81.294zM200.139 130.357h81.294v4.269h-81.294z"/>
            <g fill="#D1D4EB">
                <path d="M211.619 145.134h4.523v9.366h-4.523zM219.6 145.134h4.523v9.366H219.6zM227.669 145.134h4.523v9.366h-4.523zM235.739 145.134h4.523v9.366h-4.523zM243.809 145.134h4.523v9.366h-4.523zM251.79 145.134h4.523v9.366h-4.523zM259.859 145.134h4.523v9.366h-4.523zM267.929 145.134h4.523v9.366h-4.523zM211.619 156.776h4.523v9.366h-4.523zM219.6 156.776h4.523v9.366H219.6zM227.669 156.776h4.523v9.366h-4.523zM235.739 156.776h4.523v9.366h-4.523zM243.809 156.776h4.523v9.366h-4.523zM251.79 156.776h4.523v9.366h-4.523zM259.859 156.776h4.523v9.366h-4.523zM267.929 156.776h4.523v9.366h-4.523zM211.619 168.418h4.523v9.366h-4.523zM219.6 168.418h4.523v9.366H219.6zM227.669 168.418h4.523v9.366h-4.523zM235.739 168.418h4.523v9.366h-4.523zM243.809 168.418h4.523v9.366h-4.523zM251.79 168.418h4.523v9.366h-4.523zM259.859 168.418h4.523v9.366h-4.523zM267.929 168.418h4.523v9.366h-4.523z"/>
            </g>
            <path fill="#EDEFF8" d="M175 163.655h-64V59.783L175 48z"/>
            <path fill="#D1D4EB" d="M200.139 122.673H284v2.561h-83.861z"/>
        </g>
        <g transform="translate(102 70)">
            <path fill="#FFF" fill-rule="nonzero" d="M0 0h88l27 26v117H0z" opacity=".95"/>
            <circle cx="28" cy="35" r="13" fill="#2180EA" fill-rule="nonzero" opacity=".9"/>
            <path fill="#1DA2DB" fill-rule="nonzero" d="M55 30h45v4H55zM55 39h45v4H55zM15 63h84v4H15zM15 72h84v4H15zM15 82h84v4H15zM15 91h84v4H15zM15 101h84v4H15zM15 110h84v4H15zM15 120h84v4H15z"/>
            <path fill="#1DA2DB" d="M88 .5V26h26.519z"/>
        </g>
        <g transform="translate(45 127)">
            <mask id="b" fill="#fff">
                <use xlink:href="#a"/>
            </mask>
            <use fill="#2180EA" fill-rule="nonzero" stroke="#2180EA" stroke-width="5" xlink:href="#a"/>
            <g fill="#FFF" mask="url(#b)">
                <path fill-opacity=".1" d="M43.45 85.25V0C19.453 0 0 19.084 0 42.625S19.453 85.25 43.45 85.25z"/>
                <g fill-rule="nonzero">
                    <path d="M61.5 90.617c-7.135 13.772 18.977-18.018 15.437-16.423-.994-.718-2.633-10.702-8.558-13.932-3.952-1.428-9.568-1.727-13.167-3.875L43.691 77.054 31.512 56.387c-3.95 2.153-8.119 3.445-12.508 3.875-6.583.646-8.893 11.838-9.875 12.574-3.54-1.569-.021 25.484 5.267 17.78H61.5zM32.024 42.418c.836 4.891 4.217 8.998 8.915 10.83a9.798 9.798 0 0 0 6.555 0c4.675-1.87 8.049-5.956 8.942-10.83.681 0 1.573-1.003 2.622-4.373 1.337-4.578 0-5.273-1.285-5.144.22-.613.395-1.24.524-1.878 1.888-11.935-1.861-15.922-7.708-13.35-.889-1.357-15.785-5.145-19.928 0-4.143 5.144-.235 14.594 0 15.202-1.232 0-2.622.566-1.311 5.144 1.023 3.396 1.914 4.322 2.674 4.399z"/>
                </g>
            </g>
        </g>
    </g>
</svg>
