<svg xmlns="http://www.w3.org/2000/svg" xmlns:xlink="http://www.w3.org/1999/xlink" width="275" height="227" viewBox="0 0 275 227">
    <defs>
        <circle id="a" cx="43" cy="43" r="43"/>
    </defs>
    <g fill="none" fill-rule="evenodd">
        <path fill="#EDEFF8" fill-rule="nonzero" d="M126.383 61.674a6.93 6.93 0 0 0-.382-.855 9.673 9.673 0 0 0-.232-.41c-.111-.177-.178-.288-.258-.394a8.676 8.676 0 0 0-.281-.373c-.027-.034-.056-.066-.085-.1a7.622 7.622 0 0 0-.221-.254c-.037-.04-.075-.076-.111-.115-.071-.074-.136-.146-.216-.219l-.143-.128c-.068-.061-.136-.124-.207-.182-.07-.058-.12-.093-.18-.146-.06-.052-.124-.099-.19-.145-.064-.047-.157-.107-.237-.159-.05-.034-.1-.069-.152-.1a6.565 6.565 0 0 0-.408-.23c-.65-3.498-3.497-6.028-6.823-6.063a6.552 6.552 0 0 0-1.586.176c-.168.04-.336.088-.5.146-.892-2.348-2.877-4.012-5.216-4.374-2.34-.362-4.683.634-6.156 2.615-2.814-2.136-6.455-2.566-9.635-1.138-3.18 1.427-5.45 4.511-6.004 8.16a6.242 6.242 0 0 0-2.1-.156c-.074 0-.144.021-.22.032-.142.019-.286.036-.426.065-.087.018-.172.044-.258.064-.122.03-.246.06-.367.098-.09.03-.18.064-.272.098-.11.04-.221.08-.328.125-.108.045-.184.086-.272.13-.088.043-.2.096-.298.145-.097.05-.182.106-.271.162-.09.055-.181.112-.272.172-.091.06-.178.128-.272.195-.093.067-.16.124-.239.188a3.748 3.748 0 0 0-.258.228 9.416 9.416 0 0 1-.21.202 4.303 4.303 0 0 0-.246.262c-.08.09-.123.145-.181.21-.08.096-.158.195-.234.29-.051.07-.102.146-.152.215-.075.11-.147.218-.216.332-.042.07-.083.146-.124.214-.04.069-.062.105-.09.159-1.707.71-2.838 2.464-2.854 4.427-.023 2.648 1.953 7.259 4.416 7.283.064 0 .125 0 .187-.008 1.57 1.303 3.606 1.777 5.54 1.289.762 2.45 2.701 4.268 5.068 4.751 2.368.484 4.794-.442 6.344-2.42 1.283 1.701 3.223 2.678 5.263 2.65 2.04-.03 3.957-1.06 5.198-2.796a4 4 0 0 0 1.258-.04c.406.091.82.14 1.235.146 2.18.022 4.232-1.102 5.493-3.01a6.242 6.242 0 0 0 6.486-.1 4.154 4.154 0 0 0 2.038.564c2.445.025 4.45-4.532 4.474-7.163.018-2.303-1.505-4.29-3.617-4.715zM229.36 52.96a8.89 8.89 0 0 0-.49-1.097c-.119-.22-.208-.376-.298-.527-.143-.226-.229-.368-.332-.505-.169-.231-.263-.358-.36-.478-.035-.043-.072-.084-.108-.127a9.778 9.778 0 0 0-.285-.327c-.047-.05-.095-.097-.142-.148-.091-.095-.175-.187-.278-.28-.059-.056-.122-.109-.183-.165-.087-.078-.174-.159-.265-.233-.09-.075-.155-.12-.231-.187a3.069 3.069 0 0 0-.243-.187c-.083-.06-.202-.136-.305-.204-.064-.043-.129-.088-.195-.129a8.423 8.423 0 0 0-.523-.295c-.834-4.487-4.487-7.733-8.754-7.779-.232 0-.465.007-.697.02-.45.033-.897.102-1.337.207a6.462 6.462 0 0 0-.643.186c-1.144-3.011-3.69-5.147-6.692-5.611-3.002-.464-6.008.813-7.898 3.356-3.61-2.74-8.283-3.293-12.363-1.461-4.08 1.831-6.991 5.788-7.703 10.469a8.008 8.008 0 0 0-1.84-.237 9.18 9.18 0 0 0-.853.037c-.096 0-.186.028-.282.041-.183.024-.368.047-.547.084-.112.023-.222.056-.332.082-.157.04-.315.077-.47.126-.117.037-.232.082-.349.125-.141.052-.284.103-.422.16-.137.059-.235.11-.348.167-.114.056-.257.123-.382.187-.126.063-.234.136-.349.207a14.9 14.9 0 0 0-.348.22c-.117.077-.229.165-.349.251-.12.086-.206.16-.307.241a4.809 4.809 0 0 0-.331.294c-.108.106-.174.17-.268.258a5.52 5.52 0 0 0-.318.336c-.103.116-.157.187-.232.27-.102.123-.202.25-.3.373-.066.09-.13.187-.195.275-.095.14-.188.28-.277.426-.054.09-.106.187-.158.275-.053.087-.08.134-.117.203-2.19.912-3.64 3.162-3.66 5.68-.03 3.398 2.504 9.313 5.664 9.345.082 0 .16 0 .241-.011 2.015 1.673 4.626 2.28 7.107 1.654.979 3.144 3.466 5.476 6.503 6.096 3.038.62 6.15-.568 8.139-3.106 1.646 2.183 4.135 3.436 6.753 3.4 2.619-.037 5.076-1.359 6.67-3.587a5.133 5.133 0 0 0 1.613-.05 7.796 7.796 0 0 0 1.585.187c2.797.027 5.43-1.415 7.047-3.862a8.008 8.008 0 0 0 8.322-.129 5.33 5.33 0 0 0 2.615.724c3.137.031 5.71-5.815 5.74-9.19.024-2.955-1.931-5.504-4.64-6.05z"/>
        <path fill="#EDEFF8" d="M190 113h71v60h-71z"/>
        <path fill="#D1D4EB" fill-rule="nonzero" d="M27.621 63H10.136L6 119l25-10.258z"/>
        <path fill="#EDEFF8" fill-rule="nonzero" d="M45.792 57.026c9.807 2.319 22.43.85 29.208-8.261-17.687 1.11-42.954-12.173-56 5.44 9.03-.543 18.032.638 26.792 2.821zM33 63.46c3.534.126 6.99.831 10.314 1.866C47.038 66.44 52.008 66.379 55 63.55c-6.925-.233-16.237-5.562-22-.091zM99.86 110.62V99l-33.287 13.274V99L0 125.547V173h24.66v-16.628h56.753V173H129V99l-29.14 11.62zm-62.045 31.372H11.13v-7.13h26.685v7.13zm33.826 0H44.956v-7.13h26.685v7.13zm33.826 0H78.782v-7.13h26.685v7.13z"/>
        <g fill="#D1D4EB" fill-rule="nonzero">
            <path d="M198.742 115.002h59.516V173H275v-71.349L227.174 80 182 101.651V173h16.742z"/>
            <path d="M216 162h11v9h-11zM229 162h11v9h-11zM203 162h11v9h-11zM216 149h11v9h-11zM203 149h11v9h-11zM229 149h11v9h-11zM216 137h11v9h-11zM203 137h11v9h-11zM242 162h11v9h-11z"/>
        </g>
        <g transform="translate(99 67)">
            <path fill="#FFF" fill-rule="nonzero" d="M0 0h88l27 26v117H0z" opacity=".95"/>
            <circle cx="28" cy="35" r="13" fill="#2180EA" fill-rule="nonzero" opacity=".9"/>
            <path fill="#1DA2DB" fill-rule="nonzero" d="M55 30h45v4H55zM55 39h45v4H55zM15 63h84v4H15zM15 72h84v4H15zM15 82h84v4H15zM15 91h84v4H15zM15 101h84v4H15zM15 110h84v4H15zM15 120h84v4H15z"/>
            <path fill="#1DA2DB" d="M88 .5V26h26.519z"/>
        </g>
        <g transform="translate(42 124)">
            <mask id="b" fill="#fff">
                <use xlink:href="#a"/>
            </mask>
            <use fill="#2180EA" fill-rule="nonzero" stroke="#2180EA" stroke-width="5" xlink:href="#a"/>
            <g fill="#FFF" mask="url(#b)">
                <path fill-opacity=".1" d="M43.45 85.25V0C19.453 0 0 19.084 0 42.625S19.453 85.25 43.45 85.25z"/>
                <g fill-rule="nonzero">
                    <path d="M61.5 90.617c-7.135 13.772 18.977-18.018 15.437-16.423-.994-.718-2.633-10.702-8.558-13.932-3.952-1.428-9.568-1.727-13.167-3.875L43.691 77.054 31.512 56.387c-3.95 2.153-8.119 3.445-12.508 3.875-6.583.646-8.893 11.838-9.875 12.574-3.54-1.569-.021 25.484 5.267 17.78H61.5zM32.024 42.418c.836 4.891 4.217 8.998 8.915 10.83a9.798 9.798 0 0 0 6.555 0c4.675-1.87 8.049-5.956 8.942-10.83.681 0 1.573-1.003 2.622-4.373 1.337-4.578 0-5.273-1.285-5.144.22-.613.395-1.24.524-1.878 1.888-11.935-1.861-15.922-7.708-13.35-.889-1.357-15.785-5.145-19.928 0-4.143 5.144-.235 14.594 0 15.202-1.232 0-2.622.566-1.311 5.144 1.023 3.396 1.914 4.322 2.674 4.399z"/>
                </g>
            </g>
        </g>
    </g>
</svg>
