<svg xmlns="http://www.w3.org/2000/svg" xmlns:xlink="http://www.w3.org/1999/xlink" width="251" height="118" viewBox="0 0 251 118">
    <defs>
        <path id="a" d="M0 118h251V0H0z"/>
    </defs>
    <g fill="none" fill-rule="evenodd">
        <path fill="#0A4E8E" d="M33.044 4.453H16.586V54.5h11.821v.047h4.637c18.328 0 29.982-9.678 29.982-25.047 0-15.371-11.654-25.047-29.982-25.047"/>
        <mask id="b" fill="#fff">
            <use xlink:href="#a"/>
        </mask>
        <path fill="#0A4E8E" d="M0 37.85h16.586v-16.7H0zM0 70.132h16.586V53.434H0zM16.586 77.925h7.74v-7.793h-7.74z" mask="url(#b)"/>
        <path fill="#FFF" d="M16.586 37.85h16.586v-16.7H16.586z" mask="url(#b)"/>
        <path fill="#1DA2DB" d="M16.586 54.547h16.586V37.85H16.586zM16.586 21.15h16.586V4.454H16.586zM33.172 37.85h16.586v-16.7H33.172z" mask="url(#b)"/>
        <path fill="#0A4E8E" d="M166.965 53.434h5.528V17.811h-5.528z" mask="url(#b)"/>
        <path fill="#042A58" d="M222.251 118h5.529V82.377h-5.529z" mask="url(#b)"/>
        <path fill="#0A4E8E" d="M123.609 39.849c-4.696-4.19-8.242-7.333-10.637-9.428a690.912 690.912 0 0 1-3.666-3.216c-.287-.242-.43-.746-.43-1.518 0-.578.19-1.107.574-1.59.43-.433.982-.65 1.653-.65h9.884v-5.636h-9.884c-2.3 0-4.168.77-5.606 2.311a9.222 9.222 0 0 0-1.653 2.53 7.347 7.347 0 0 0-.648 3.035c0 2.265.815 4.19 2.444 5.781 2.3 2.071 4.648 4.154 7.045 6.25a1235.16 1235.16 0 0 0 7.116 6.178c.382.627.575 1.205.575 1.733 0 .244-.026.496-.073.76-.048.266-.168.518-.358.758-.29.144-.588.302-.899.47-.313.17-.61.254-.9.254h-15.313v5.563h15.313c2.253 0 4.097-.77 5.536-2.313 1.58-1.589 2.37-3.419 2.37-5.492 0-2.31-.814-4.237-2.443-5.78M159.861 47.882h-3.144c-1.192 0-2.3-.228-3.323-.686a8.714 8.714 0 0 1-2.68-1.839 8.304 8.304 0 0 1-1.787-2.704 8.474 8.474 0 0 1-.643-3.28V23.58h9.037v-5.625h-9.037V0h-5.645v39.373c0 1.972.369 3.81 1.106 5.516a14.441 14.441 0 0 0 3.002 4.471 13.678 13.678 0 0 0 4.467 2.992c1.715.721 3.548 1.082 5.503 1.082h6.931v-5.552h-3.787z" mask="url(#b)"/>
        <path fill="#042A58" d="M123.34 63.453v.033c-14.495.691-26.036 12.613-26.036 27.222 0 14.608 11.54 26.53 26.037 27.22V118h2.839v-5.78h-1.51v-.045c-11.904 0-21.555-9.611-21.555-21.467 0-11.857 9.65-21.468 21.556-21.468v-.007h12.44v-5.78h-13.77z" mask="url(#b)"/>
        <path fill="#0A4E8E" d="M131.581 53.434h5.53V17.811h-5.53z" mask="url(#b)"/>
        <path fill="#042A58" d="M210.088 118h4.423v-5.566h-4.423zM251 112.366h-2.366c-1.204 0-2.323-.232-3.357-.696a8.795 8.795 0 0 1-2.706-1.867 8.423 8.423 0 0 1-1.805-2.744 8.643 8.643 0 0 1-.65-3.33V87.703h8.566v-5.71h-8.566V47.869h-5.702v55.862c0 2.001.373 3.866 1.118 5.597a14.647 14.647 0 0 0 3.032 4.538 13.8 13.8 0 0 0 4.512 3.037c1.732.732 3.584 1.098 5.558 1.098H251v-5.634zM143.392 81.828c-2.236 0-4.266.566-6.094 1.674v-2.238h-5.717V117.963h2.426c.127.019.254.037.384.037.158 0 .306-.018.453-.037h2.454V93.217c.124-1.374.737-2.67 1.847-3.889a4.954 4.954 0 0 1 1.907-1.324 6.296 6.296 0 0 1 2.34-.44h3.223c1.054-2.211 2.714-4.11 4.87-5.736h-8.093z" mask="url(#b)"/>
        <path fill="#0A4E8E" d="M202.963 17.811c-1.845 4.968-4.336 11.627-5.51 14.801-1.591 4.3-3.156 8.562-4.698 12.787a720.434 720.434 0 0 1-2.423-6.663c-.746-2.089-1.482-4.143-2.204-6.158-.722-2.017-1.457-4.058-2.203-6.123-.479-1.322-1.895-5.32-3.081-8.644h-5.928l12.08 33.565c.432 1.25 1.349.9 2.746.9h2.168c1.397 0 2.288.35 2.674-.9l12.398-33.565h-6.02z" mask="url(#b)"/>
        <path fill="#0A4E8E" d="M189.635 53.365l6.446.069 1.844-4.453h-9.951zM82.93 47.877c-6.723 0-12.173-5.486-12.173-12.255 0-6.768 5.45-12.255 12.173-12.255 6.722 0 12.172 5.487 12.172 12.255 0 6.769-5.45 12.255-12.172 12.255m0-30.066c-9.771 0-17.692 7.974-17.692 17.811s7.92 17.812 17.692 17.812c9.77 0 17.691-7.975 17.691-17.812 0-9.837-7.92-17.81-17.691-17.81M227.78 23.368c5.713 0 10.494 3.968 11.804 9.313h-23.609c1.31-5.345 6.091-9.313 11.805-9.313m0-5.557c-9.771 0-17.692 7.975-17.692 17.812 0 9.837 7.92 17.811 17.692 17.811v-5.556c-5.81 0-10.661-4.102-11.874-9.583h29.345c.13-.874.22-1.761.22-2.672 0-9.837-7.92-17.812-17.691-17.812" mask="url(#b)"/>
        <path fill="#042A58" d="M164.753 87.934c5.714 0 10.495 3.968 11.805 9.313h-23.61c1.311-5.345 6.092-9.313 11.805-9.313m0-5.557c-9.77 0-17.691 7.975-17.691 17.812 0 9.837 7.92 17.811 17.691 17.811v-5.556c-5.81 0-10.66-4.102-11.873-9.583H182.224c.131-.874.22-1.761.22-2.672 0-9.837-7.92-17.812-17.69-17.812M208.916 112.285l-6.345.122c-6.808 0-12.326-5.487-12.326-12.253 0-6.768 5.518-12.253 12.326-12.253l6.345.074v24.31zm0-44.38v14.426h-6.345v.014c-9.894 0-17.915 7.973-17.915 17.809 0 9.835 8.021 17.808 17.915 17.808l9.178.038c.774 0 1.429-.266 1.963-.796.387-.434.617-.807.69-1.12.072-.313.109-.616.109-.905V67.906h-5.595z" mask="url(#b)"/>
    </g>
</svg>
