<svg xmlns="http://www.w3.org/2000/svg" xmlns:xlink="http://www.w3.org/1999/xlink" width="504" height="410" viewBox="0 0 504 410">
    <defs>
        <circle id="a" cx="27.054" cy="27.71" r="27.034"/>
        <circle id="c" cx="27.054" cy="27.71" r="27.034"/>
        <circle id="e" cx="27.054" cy="27.71" r="27.034"/>
    </defs>
    <g fill="none" fill-rule="evenodd">
        <path d="M0 0h504v410H0z"/>
        <g fill="#EDEFF8" fill-rule="nonzero" opacity=".6">
            <path d="M267 99h73v73h-73zM340 172h72v72h-72zM340 27h72v72h-72zM412 99h73v73h-73z"/>
        </g>
        <g fill="#EDEFF8" fill-rule="nonzero" opacity=".7">
            <path d="M35 172h30v30H35zM65 202h30v29H65zM65 143h30v29H65zM94 172h30v30H94z"/>
        </g>
        <path fill="#EDEFF8" fill-rule="nonzero" d="M20.023 349.766h448.254v19.05H20.023z"/>
        <path fill="#CDDEFF" fill-rule="nonzero" d="M390.15 301.442c-.885-.408-3.93.163-3.988.664-.058.5 2.87 1.933 3.313 1.863 1.387-.198 1.387-1.921.676-2.527z"/>
        <path fill="#D1D4EB" fill-rule="nonzero" d="M440.626 310.269c.089-.832.136-1.668.14-2.504 1.236-.082 3.032-.664 3.043-1.048.012-.384-2.239-1.397-3.137-1.572a40.04 40.04 0 0 0-.396-3.295c1.166-.431 2.694-1.48 2.6-1.852-.093-.372-2.076-.664-3.137-.64a25.915 25.915 0 0 0-.863-2.679c1.05-.349 3.01-2.2 2.81-2.62-.197-.419-3.498-.128-3.801.163l-.07.082a20.875 20.875 0 0 0-2.123-3.295c.747-.979 1.446-2.492 1.167-2.748-.28-.257-1.89.372-2.846.908a21.388 21.388 0 0 0-5.376-3.866c.35-.757 2.39-4.53 2.39-4.53s-3.265 2.853-3.976 3.4c-.712.548 2.577-5.752 2.577-5.752s-3.825 3.82-4.408 4.308c-1.073.909 4.011-7.429 4.011-7.429s-3.428-.302-5.236 1.165c-.711.559-.828 2.876-1.563 3.435-.944.71-1.924-7.592-1.924-7.592l-1.773 8.011s-2.694-6.987-2.88-6.859c.303 4.425-.303 6.23-.152 7.465-1.982-3.715-3.499-4.658-3.685-4.658-.665.337.525 4.32.828 5.822-.77 0-1.505.128-2.216.233-.105-1.165-1.341-3.412-1.784-3.33-.444.081-1.027 3.295-.84 3.702.025.04.052.08.082.117-13.424 3.377-18.322 17.036-18.462 20.483-.198 4.716 0 10.212 2.333 14.427 1.959 3.423 6.262 4.716 9.89 5.45a67.04 67.04 0 0 0 13.061 1.35c12.059 0 17.015-2.387 20.024-3.621 2.1-.85 4.187-3.773 5.167-7.988 1.166.128 3.603-.594 3.627-1.048.023-.454-2.228-1.432-3.102-1.595z"/>
        <path fill="#EDEFF8" fill-rule="nonzero" d="M440.045 334.52c-1.675 6.771-4.951 19.47-6.312 20.964-1.866 2.05-13.05 3.027-18.765 3.027-5.714 0-18.31-1.898-19.966-4.25-1.281-1.82-3.702-13.205-5.158-19.775-1.838-.216-2.999-.477-3.227-.789-1.667-2.282-2.702-17.495-2.659-17.595.07-.223 20.075.059 32.005.315 13.132.29 31.986 0 31.986 0 .35 5.775-4.035 16.337-6.076 17.734-.193.133-.83.256-1.828.37z"/>
        <path fill="#CDDEFF" fill-rule="nonzero" d="M398.408 288.12c-.572-.791-3.499-1.77-3.814-1.362-.315.408 1.563 3.086 1.983 3.238 1.283.477 2.11-1.025 1.83-1.875z"/>
        <path fill="#1DA2DB" fill-rule="nonzero" d="M179.984 229.91h99.818v99.665h-99.818z" opacity=".9"/>
        <path fill="#D1D4EB" fill-rule="nonzero" d="M75.14 316.778l-14.952-2.33-.91-.139-.979-.198c-1.248-.268-4.35.513-5.038.687l17.622 3.948h8.245l-3.988-1.968z"/>
        <path fill="#D1D4EB" fill-rule="nonzero" d="M61.016 293.011l-.98-.197a9.505 9.505 0 0 0-7.126 1.417 9.478 9.478 0 0 0-4.034 6.035l-.432 2.19a9.465 9.465 0 0 0 6.053 10.735v.093l20.852 5.438 3.79-22.997-18.123-2.714z"/>
        <path fill="#D1D4EB" d="M86.37 295.678l-21.05-3.563s-4.665.303-7.184.524l17.12 3.074 11.114-.035z"/>
        <path fill="#D1D4EB" fill-rule="nonzero" d="M62.65 335.409l-.98-.198c-5.14-1.013-10.129 2.322-11.15 7.452l-.431 2.19a9.465 9.465 0 0 0 6.064 10.77v.094l20.853 5.438 3.79-22.998-18.147-2.748z"/>
        <path fill="#EEF1FC" fill-rule="nonzero" d="M161.278 342.535a17.745 17.745 0 0 0 .42 15.278H76.561l-.42-16.302 85.136 1.024z"/>
        <path fill="#D1D4EB" fill-rule="nonzero" d="M77.262 348.218v-2.166c0-3.854 3.126-3.493 3.126-3.493h82.592v-4.425H79.478a5.592 5.592 0 0 0-3.814 1.234l-.21.198-.116.116c-1.575 1.596-7.686 8.815-.653 19.016a5.11 5.11 0 0 0 4.793 2.457h83.502v-4.425H80.388s-3.126.314-3.126-3.493v-5.02z"/>
        <path fill="#EEF1FC" fill-rule="nonzero" d="M157.686 300.103a17.768 17.768 0 0 0 .42 15.277H73.063l-.42-16.302 85.042 1.025z"/>
        <path fill="#D1D4EB" fill-rule="nonzero" d="M73.775 305.809v-2.166c0-3.854 3.126-3.493 3.126-3.493h82.487v-4.425H76.05a5.592 5.592 0 0 0-3.813 1.234l-.21.198-.117.116c-1.574 1.596-7.674 8.815-.653 19.016a5.099 5.099 0 0 0 4.817 2.457h83.339v-4.425H76.9s-3.126.314-3.126-3.494v-5.018z"/>
        <path fill="#EDEFF8" fill-rule="nonzero" d="M86.172 276.337V295.725h73.24V276.337z"/>
        <path fill="#D1D4EB" fill-rule="nonzero" d="M79.093 337.458l-14.951-2.329-.91-.14-.98-.197c-1.247-.268-4.35.512-5.037.687l13.318 4.53 8.49-2.027.07-.524z"/>
        <path fill="#EDEFF8" fill-rule="nonzero" d="M70.871 318.722V338.11h92.646V318.722zM53.25 332.114l17.621 5.996V318.77l-17.622-3.97zM65.32 292.115l21.05 3.563v-19.341L65.32 274.8z"/>
        <path fill="#D1D4EB" fill-rule="nonzero" d="M86.37 276.337h61.846l-21.436-.897-61.46-.64z"/>
        <path fill="#2180EA" fill-rule="nonzero" d="M389.37 154.559H178.28c-3.864 0-6.997 3.128-6.997 6.987v153.706c0 3.859 3.133 6.987 6.997 6.987H389.37c3.864 0 6.997-3.128 6.997-6.987V161.546c0-3.859-3.133-6.987-6.997-6.987z"/>
        <path fill="#0A4E8E" fill-rule="nonzero" d="M181.255 154.559h211.088c3.865 0 6.998 3.128 6.998 6.987v131.582H174.258V161.546c0-3.859 3.133-6.987 6.997-6.987z"/>
        <path fill="#FFF" fill-rule="nonzero" d="M183.588 162.71h206.423v118.773H183.588z"/>
        <path fill="#D3F1FE" fill-rule="nonzero" d="M392.343 322.239H181.255c-3.864 0-6.997-3.128-6.997-6.987v-22.124H399.34v22.124c0 3.859-3.133 6.987-6.998 6.987z"/>
        <path fill="#2180EA" fill-rule="nonzero" d="M257.259 322.239h46.649s-4.42 22.124-3.499 27.947c.467 2.957 4.665 5.822 4.665 5.822H257.26a15.862 15.862 0 0 1-3.5-6.987c-.897-3.575 3.523-26.992 3.5-26.782z"/>
        <path fill="#D3F1FE" fill-rule="nonzero" d="M259.474 322.239h46.65s-4.42 22.124-3.499 27.947c.467 2.957 4.665 5.822 4.665 5.822h-47.816a15.862 15.862 0 0 1-3.498-6.987c-.898-3.575 3.522-26.992 3.498-26.782z"/>
        <path fill="#2180EA" fill-rule="nonzero" d="M305.949 323.695l-47.524 2.037 1.166-3.493h46.65z"/>
        <path fill="#59CFFA" fill-rule="nonzero" d="M378.943 364.904H216.627l-11.546-10.165H362.64z"/>
        <path fill="#2180EA" fill-rule="nonzero" d="M378.943 368.724l-162.316 1.269v-5.089h162.316zM205.081 358.57l11.546 11.423v-5.089l-11.546-10.154z"/>
        <path fill="#1D8ADB" fill-rule="nonzero" d="M334.615 362.168l-115.854.908v-1.083l115.854-.21zM210.516 354.925l8.245 8.151v-1.083l-8.245-7.254z"/>
        <path fill="#D3F1FE" fill-rule="nonzero" d="M334.615 361.784l-115.854.21-8.245-7.244h115.329z"/>
        <path fill="#1D8ADB" fill-rule="nonzero" d="M369.217 361.364l-31.815.548v-.92l31.815.105zM330.44 355.018l6.962 6.894v-.92l-6.962-6.137z"/>
        <path fill="#D3F1FE" fill-rule="nonzero" d="M369.217 361.097l-31.815.337-6.962-6.579h29.61z"/>
        <path fill="#0A4E8E" fill-rule="nonzero" d="M288.315 183.274h-16.992v50.828h17.027c18.917 0 30.952-9.84 30.952-25.466 0-15.627-12.059-25.362-30.987-25.362z"/>
        <path fill="#0A4E8E" fill-rule="nonzero" d="M254.331 200.252h17.004v16.978h-17.004zM254.331 234.207h17.004v16.978h-17.004z"/>
        <path fill="#0A4E8E" fill-rule="nonzero" d="M271.323 251.173h8.502v8.489h-8.502z"/>
        <path fill="#FFF" fill-rule="nonzero" d="M271.323 200.252h17.004v16.978h-17.004z"/>
        <path fill="#59CFFA" fill-rule="nonzero" d="M271.323 217.229h17.004v16.978h-17.004zM271.323 183.274h17.004v16.978h-17.004zM288.327 200.252h17.004v16.978h-17.004z" opacity=".9"/>
        <path fill="#FFF" fill-rule="nonzero" d="M271.323 200.252h17.004v16.978h-17.004z"/>
        <g fill-rule="nonzero" transform="translate(365 113)">
            <path fill="#FFF" d="M.625.582H72.15v89.127H.625z" opacity=".95"/>
            <ellipse cx="18.305" cy="22.416" fill="#2180EA" opacity=".9" rx="8.164" ry="8.151"/>
            <path fill="#1DA2DB" d="M34.632 19.609h27.99v2.329h-27.99zM34.632 25.234h27.99v2.329h-27.99zM10.142 39.731h52.481v2.329H10.142zM10.142 45.67h52.481v2.329H10.142zM10.142 51.608h52.481v2.329H10.142zM10.142 57.535h52.481v2.329H10.142zM10.142 63.474h52.481v2.329H10.142zM10.142 69.413h52.481v2.329H10.142zM10.142 75.351h52.481v2.329H10.142z"/>
        </g>
        <path fill="#0A4E8E" fill-rule="nonzero" d="M388.168 365.684s0 1.002 1.715 1.712a62.13 62.13 0 0 0 11.662 3.156c3.93.5 17.494 2.934 20.34 3.19 7.486.676 18.04-1.234 19.557-4.075 1.061-1.991-17.062-8.629-24.106-8.407-7.044.22-29.716.791-29.168 4.424z"/>
        <path fill="#040A2F" fill-rule="nonzero" d="M388.262 364.94a1.57 1.57 0 0 0 0 1.059l.221.477s1.085-2.235 7.173-2.13c6.087.104 7.522.64 17.062 4.739 9.54 4.098 12.07 4.657 18.111 3.772 6.041-.885 8.619-1.967 9.33-2.503a2.84 2.84 0 0 0 1.166-2.131c-.058-.757-.07-1.991-.07-1.991l-12.607 5.077-19.919-6.707-14.543-1.759s-4.933 1.083-5.924 2.096z"/>
        <path fill="#D3F1FE" fill-rule="nonzero" d="M388.168 364.87a1.686 1.686 0 0 0 0 1.164l.222.5s1.446-2.596 7.592-2.491c6.146.104 7.592.663 17.237 4.925s12.199 4.81 18.287 3.924c6.087-.885 8.7-2.05 9.33-2.596a2.968 2.968 0 0 0 1.224-2.213c-.058-.792-.07-2.06-.07-2.06l-12.642 5.216-20.117-6.987-14.683-1.828s-5.377 1.397-6.38 2.445z"/>
        <path fill="#2180EA" fill-rule="nonzero" d="M388.168 364.87s10.415-6.533 27.99-6.754c17.575-.222 25.715 6.194 25.715 7.196 0 1.001 1.936 4.087-7.149 5.484-9.085 1.398-12.828.443-16.793-1.164-3.966-1.607-20.538-10.655-29.763-4.763z"/>
        <g>
            <g transform="translate(143 123)">
                <mask id="b" fill="#fff">
                    <use xlink:href="#a"/>
                </mask>
                <use fill="#EEF5FD" fill-rule="nonzero" xlink:href="#a"/>
                <g fill="#2180EA" fill-rule="nonzero" mask="url(#b)">
                    <path d="M48.411 59.959s-.425-15.642-3.032-14.445a9.385 9.385 0 0 0-2.394-1.274 48.044 48.044 0 0 1-8.362-4.036l-6.979 12.9-8.083-12.823a48.044 48.044 0 0 1-8.361 4.036 8.342 8.342 0 0 0-2.394 1.275C6.199 44.414 6.99 60.036 6.99 60.036"/>
                    <path d="M18.19 32.094a10.64 10.64 0 0 0 6.566 8.13 7.087 7.087 0 0 0 4.827 0 10.852 10.852 0 0 0 6.585-8.13c.502 0 1.159-.753 1.931-3.283.985-3.437 0-3.959-.946-3.862.162-.46.291-.931.386-1.41 1.39-8.96-1.37-11.953-5.677-10.022-.654-1.018-11.625-3.862-14.676 0-3.05 3.862-.173 10.956 0 11.413-.907 0-1.93.424-.965 3.862.753 2.549 1.41 3.244 1.97 3.302z"/>
                </g>
            </g>
        </g>
        <g>
            <g transform="translate(143 199)">
                <mask id="d" fill="#fff">
                    <use xlink:href="#c"/>
                </mask>
                <use fill="#EEF5FD" fill-rule="nonzero" xlink:href="#c"/>
                <g fill="#2180EA" fill-rule="nonzero" mask="url(#d)">
                    <path d="M48.411 59.959s-.425-15.642-3.032-14.445a9.385 9.385 0 0 0-2.394-1.274 48.044 48.044 0 0 1-8.362-4.036l-6.979 12.9-8.083-12.823a48.044 48.044 0 0 1-8.361 4.036 8.342 8.342 0 0 0-2.394 1.275C6.199 44.414 6.99 60.036 6.99 60.036"/>
                    <path d="M18.19 32.094a10.64 10.64 0 0 0 6.566 8.13 7.087 7.087 0 0 0 4.827 0 10.852 10.852 0 0 0 6.585-8.13c.502 0 1.159-.753 1.931-3.283.985-3.437 0-3.959-.946-3.862.162-.46.291-.931.386-1.41 1.39-8.96-1.37-11.953-5.677-10.022-.654-1.018-11.625-3.862-14.676 0-3.05 3.862-.173 10.956 0 11.413-.907 0-1.93.424-.965 3.862.753 2.549 1.41 3.244 1.97 3.302z"/>
                </g>
            </g>
        </g>
        <g>
            <g transform="translate(143 274)">
                <mask id="f" fill="#fff">
                    <use xlink:href="#e"/>
                </mask>
                <use fill="#EEF5FD" fill-rule="nonzero" xlink:href="#e"/>
                <g fill="#2180EA" fill-rule="nonzero" mask="url(#f)">
                    <path d="M48.411 59.959s-.425-15.642-3.032-14.445a9.385 9.385 0 0 0-2.394-1.274 48.044 48.044 0 0 1-8.362-4.036l-6.979 12.9-8.083-12.823a48.044 48.044 0 0 1-8.361 4.036 8.342 8.342 0 0 0-2.394 1.275C6.199 44.414 6.99 60.036 6.99 60.036"/>
                    <path d="M18.19 32.094a10.64 10.64 0 0 0 6.566 8.13 7.087 7.087 0 0 0 4.827 0 10.852 10.852 0 0 0 6.585-8.13c.502 0 1.159-.753 1.931-3.283.985-3.437 0-3.959-.946-3.862.162-.46.291-.931.386-1.41 1.39-8.96-1.37-11.953-5.677-10.022-.654-1.018-11.625-3.862-14.676 0-3.05 3.862-.173 10.956 0 11.413-.907 0-1.93.424-.965 3.862.753 2.549 1.41 3.244 1.97 3.302z"/>
                </g>
            </g>
        </g>
    </g>
</svg>
