<svg xmlns="http://www.w3.org/2000/svg" width="504" height="400" viewBox="0 0 504 400">
    <g fill="none" fill-rule="evenodd">
        <path d="M0 0h504v400H0z"/>
        <g fill="#EDEFF8" fill-rule="nonzero">
            <path d="M40 115.819h15.857v15.857H40z"/>
            <path d="M55.857 131.666H71.5v15.643H55.857zM55.857 100.167H71.5v15.643H55.857z" opacity=".9"/>
            <path d="M71.499 115.819h15.857v15.857H71.499z" opacity=".9"/>
        </g>
        <g fill="#EDEFF8" fill-rule="nonzero">
            <path d="M356 41.868h20.917v20.917H356z"/>
            <path d="M376.917 62.773h20.635v20.635h-20.635zM376.917 21.221h20.635v20.635h-20.635zM397.552 41.868h20.917v20.917h-20.917z" opacity=".9"/>
        </g>
        <path fill="#EDEFF8" fill-rule="nonzero" d="M454.2 222.83c-.47-1.269-.98-2.517-1.53-3.744a77.055 77.055 0 0 0-1.827-3.758 84.835 84.835 0 0 0-2.043-3.605c-.98-1.546-1.565-2.518-2.27-3.45-1.158-1.586-1.803-2.455-2.472-3.273-.24-.294-.49-.575-.741-.87a66.916 66.916 0 0 0-1.947-2.236c-.323-.345-.657-.665-.98-1.01-.62-.652-1.194-1.278-1.899-1.917-.406-.383-.836-.741-1.254-1.125-.598-.537-1.195-1.086-1.816-1.598-.621-.51-1.063-.818-1.589-1.278-.525-.46-1.087-.869-1.66-1.278-.574-.409-1.386-.933-2.09-1.393-.443-.294-.885-.6-1.339-.882a57.754 57.754 0 0 0-3.583-2.02c-5.718-30.685-30.75-52.883-59.99-53.198-1.594 0-3.186.047-4.78.14a57.713 57.713 0 0 0-9.161 1.407c-1.49.349-2.959.775-4.408 1.278-7.836-20.597-25.29-35.204-45.86-38.378-20.57-3.174-41.17 5.561-54.125 22.95-24.738-18.743-56.758-22.52-84.717-9.992-27.96 12.527-47.912 39.59-52.788 71.6a54.985 54.985 0 0 0-12.615-1.622 63.04 63.04 0 0 0-5.841.255c-.657 0-1.278.192-1.935.281-1.255.167-2.52.32-3.751.576-.765.153-1.517.383-2.27.562-1.075.268-2.162.524-3.225.856-.8.256-1.589.563-2.39.857-.967.358-1.946.703-2.89 1.099-.944.396-1.613.754-2.39 1.138-.776.383-1.755.843-2.615 1.278-.86.434-1.601.933-2.39 1.419-.788.485-1.588.984-2.389 1.508-.8.524-1.564 1.125-2.389 1.713-.824.588-1.41 1.086-2.102 1.648a32.93 32.93 0 0 0-2.27 2.007 82.717 82.717 0 0 1-1.84 1.764c-.644.6-1.469 1.508-2.173 2.3-.705.793-1.076 1.28-1.59 1.841-.704.844-1.385 1.713-2.054 2.557-.454.613-.896 1.278-1.338 1.879a66.17 66.17 0 0 0-1.9 2.914c-.37.614-.728 1.278-1.086 1.879-.359.6-.55.92-.8 1.393-15.006 6.232-24.944 21.622-25.086 38.844-.203 23.238 17.166 63.693 38.823 63.91.561 0 1.099 0 1.648-.077 13.807 11.441 31.705 15.598 48.702 11.312 6.71 21.506 23.756 37.453 44.57 41.695 20.814 4.242 42.146-3.883 55.773-21.244 11.28 14.932 28.338 23.502 46.28 23.253 17.943-.25 34.787-9.291 45.701-24.53 3.683.467 7.41.351 11.062-.346a53.531 53.531 0 0 0 10.858 1.278c19.169.19 37.21-9.674 48.296-26.407 17.855 10.358 39.461 10.024 57.028-.882 5.51 3.181 11.66 4.879 17.919 4.946 21.502.218 39.133-39.764 39.337-62.848.162-20.212-13.235-37.643-31.8-41.375z"/>
        <path fill="#FFF" d="M162 75h171.146v205.214H162z"/>
        <path fill="#D1D4EB" fill-rule="nonzero" d="M216 112h93.944v4.643H216zM216 143h93.944v4.643H216zM216 175h93.944v4.643H216zM216 207h93.944v4.643H216z"/>
        <g transform="translate(187.814 104.814)">
            <circle cx="8.959" cy="8.959" r="8.959" fill="#D1D4EB"/>
            <path stroke="#FFF" stroke-linecap="round" stroke-width="1.56" d="M5.548 8.737l2.149 2.149 4.518-4.506"/>
        </g>
        <g transform="translate(187.814 136.814)">
            <circle cx="8.959" cy="8.959" r="8.959" fill="#D1D4EB"/>
            <path stroke="#FFF" stroke-linecap="round" stroke-width="1.56" d="M5.548 8.737l2.149 2.149 4.518-4.506"/>
        </g>
        <g transform="translate(187.814 167.814)">
            <circle cx="8.959" cy="8.959" r="8.959" fill="#D1D4EB"/>
            <path stroke="#FFF" stroke-linecap="round" stroke-width="1.56" d="M5.548 8.737l2.149 2.149 4.518-4.506"/>
        </g>
        <g transform="translate(187.814 199.814)">
            <circle cx="8.959" cy="8.959" r="8.959" fill="#D1D4EB"/>
            <path stroke="#FFF" stroke-linecap="round" stroke-width="1.56" d="M5.548 8.737l2.149 2.149 4.518-4.506"/>
        </g>
        <path fill="#59CFFA" d="M402.287 284.286l26.974-19.5h40.927l-31.625 20.893c-.324.8-.324 1.265 0 1.392.324.128 10.865 7.247 31.625 21.358H429.26l-26.974-18.108v-6.035z"/>
        <path fill="#0A4E8E" d="M399.14 283.526h32.633l8.428 1.666a.93.93 0 0 1 .249 1.738l-7.765 4.04-33.545.762v-8.206z"/>
        <path fill="#0A4E8E" d="M356.934 284.41l42.566-.91c2.973 1.344 4.471 2.65 4.493 3.914.022 1.265-.57 2.668-1.777 4.208l-45.149.437-.133-7.648z"/>
        <g transform="translate(305 231)">
            <ellipse cx="35.583" cy="55.908" fill="#2180EA" rx="35.583" ry="35.168"/>
            <path fill="#0A4E8E" d="M32.609 4.649c-2.663-3.666 3.675-2.67 3.675-2.67s-.37 16.815 1.063 18.789c.445.612-2.386 1.07-2.38.013.01-1.767-.772-13.949-2.358-16.132z"/>
            <path fill="#0A4E8E" d="M74.445 23.499c-4.69-.062-8.274-.124-10.753-.187-3.719-.094-4.411-.963-7.598-3.278-3.188-2.316-5.576-5.651-8.602-5.704-3.026-.052-8.704 6.735-11.112 7.072-2.409.336 9.714-15.57 18.036-12.131 5.549 2.292 12.225 7.035 20.03 14.228z"/>
        </g>
        <path fill="#0A4E8E" d="M271.928 284.417l45.477-.472c1.573.618 2.36 2.085 2.359 4.4 0 1.396-.738 2.712-2.213 3.949l-45.477.472-.146-8.349z"/>
        <g transform="translate(202 225)">
            <ellipse cx="44.566" cy="59.788" fill="#1DA2DB" rx="37.319" ry="36.876"/>
            <path fill="#0A4E8E" d="M33.94 31.353c.084-.507 5.8 2.587 6.021 1.244.105-.638-1.677-20.329-4.104-22.864C24.999-1.606 40.694 6.22 40.694 6.22s-.953 23.729.918 26.303c.58.798 2.929.12 4.208.314.31.047-2.805 1.612-6.174 1.676-1.874.035-5.789-2.652-5.706-3.16z"/>
            <path fill="#0A4E8E" d="M.678 33.701c4.898-.016 8.64-.044 11.23-.084 3.883-.06 4.597-.966 7.902-3.367 3.305-2.401 5.765-5.883 8.925-5.907 3.16-.023 9.16 7.17 11.68 7.55 2.519.378-10.308-16.469-18.965-12.94C15.68 21.305 8.755 26.22.678 33.7z"/>
        </g>
        <path fill="#0A4E8E" d="M179.913 284.554l39.11-.682c2.605.902 3.9 2.363 3.886 4.382-.014 2.019-1.26 3.343-3.74 3.973l-39.11.683-.146-8.356z"/>
        <g transform="translate(109 230)">
            <ellipse cx="36.929" cy="55.985" fill="#2180EA" rx="36.929" ry="36.606"/>
            <path fill="#0A4E8E" d="M45.67 26.429c.362-.352 3.31 5.76 4.094 4.433C56.588 19.336 61.512 3.062 62.956.716c2.73-4.433 5.004 13.3 2.73 9.753-2.275-3.546-12.738 19.063-14.557 21.28-.471.573 2.274 1.773 3.184 2.66.221.215-3.181-.336-5.913-2.217-1.52-1.046-3.091-5.411-2.73-5.763z"/>
            <path fill="#0A4E8E" d="M22.447 13.966c5.74-1.504 9.666-1.504 11.781 0 3.172 2.257 8.156 2.708 12.234 2.708 4.078 0 9.063.903 9.063 2.257s6.797 1.354 8.61 3.16c1.812 1.805-4.532-12.187-13.595-14.443-6.041-1.505-15.406.601-28.093 6.318z"/>
        </g>
        <path fill="#59CFFA" d="M70.228 277.786l-4.158 9.75v6.964c0 .698 3.234 5.571 4.158 9.286-3.61-.37-20.106-3.673-49.49-9.906a.93.93 0 0 1-.064-1.803l49.554-14.291z"/>
        <path fill="#0A4E8E" d="M66.908 286.982l51.948-1.616c1.956.77 2.934 2.183 2.934 4.237 0 2.055-.928 3.466-2.786 4.236l-52.094 1.616c-30.62-.922-45.937-1.826-45.953-2.71-.015-.884 15.302-2.805 45.951-5.763z"/>
    </g>
</svg>
