<svg xmlns="http://www.w3.org/2000/svg" xmlns:xlink="http://www.w3.org/1999/xlink" width="504" height="400" viewBox="0 0 504 400">
    <defs>
        <ellipse id="a" cx="33.334" cy="35.133" rx="33.31" ry="34.276"/>
        <ellipse id="c" cx="33.334" cy="35.133" rx="33.31" ry="34.276"/>
        <ellipse id="e" cx="33.334" cy="35.133" rx="33.31" ry="34.276"/>
    </defs>
    <g fill="none" fill-rule="evenodd">
        <path d="M0 0h504v400H0z"/>
        <path fill="#EDEFF8" fill-rule="nonzero" d="M493 326.74c.018-12.059-5.98-23.393-16.13-30.475-10.148-7.081-23.214-9.05-35.129-5.293-8.018-30.822-40.007-49.979-72.309-43.301-3.133-41.89-36.275-75.982-79.527-81.805-43.252-5.823-84.855 18.205-99.83 57.658-27.29-17.088-62.643-16.507-89.31 1.468s-39.293 49.734-31.899 80.233h-27.47c-16.75 0-30.344 13.031-30.396 29.14V335h480.962a36.3 36.3 0 0 0 1.038-8.26z"/>
        <path stroke="#2180EA" stroke-width="2" d="M320 120l-94 115 158-42"/>
        <g transform="translate(307 70)">
            <mask id="b" fill="#fff">
                <use xlink:href="#a"/>
            </mask>
            <use fill="#EEF5FD" fill-rule="nonzero" xlink:href="#a"/>
            <g fill="#2180EA" fill-rule="nonzero" mask="url(#b)">
                <path d="M59.65 76.019s-.524-19.831-3.736-18.313a11.46 11.46 0 0 0-2.95-1.616 58.496 58.496 0 0 1-10.303-5.117l-8.6 16.355-9.959-16.257A58.496 58.496 0 0 1 13.8 56.188c-1.063.37-2.06.915-2.95 1.616-3.212-1.494-2.237 18.313-2.237 18.313"/>
                <path d="M22.413 40.69c.758 4.656 3.826 8.565 8.09 10.308a8.501 8.501 0 0 0 5.948 0c4.242-1.78 7.303-5.669 8.113-10.308.62 0 1.428-.954 2.38-4.162 1.213-4.358 0-5.019-1.166-4.896.2-.584.358-1.18.476-1.788 1.713-11.36-1.69-15.154-6.995-12.706-.807-1.291-14.324-4.897-18.083 0-3.76 4.896-.213 13.89 0 14.47-1.118 0-2.38.538-1.19 4.896.928 3.232 1.737 4.113 2.427 4.186z"/>
            </g>
        </g>
        <g transform="translate(355 151)">
            <mask id="d" fill="#fff">
                <use xlink:href="#c"/>
            </mask>
            <use fill="#EEF5FD" fill-rule="nonzero" xlink:href="#c"/>
            <g fill="#2180EA" fill-rule="nonzero" mask="url(#d)">
                <path d="M59.65 76.019s-.524-19.831-3.736-18.313a11.46 11.46 0 0 0-2.95-1.616 58.496 58.496 0 0 1-10.303-5.117l-8.6 16.355-9.959-16.257A58.496 58.496 0 0 1 13.8 56.188c-1.063.37-2.06.915-2.95 1.616-3.212-1.494-2.237 18.313-2.237 18.313"/>
                <path d="M22.413 40.69c.758 4.656 3.826 8.565 8.09 10.308a8.501 8.501 0 0 0 5.948 0c4.242-1.78 7.303-5.669 8.113-10.308.62 0 1.428-.954 2.38-4.162 1.213-4.358 0-5.019-1.166-4.896.2-.584.358-1.18.476-1.788 1.713-11.36-1.69-15.154-6.995-12.706-.807-1.291-14.324-4.897-18.083 0-3.76 4.896-.213 13.89 0 14.47-1.118 0-2.38.538-1.19 4.896.928 3.232 1.737 4.113 2.427 4.186z"/>
            </g>
        </g>
        <g fill="#EDEFF8" fill-rule="nonzero" opacity=".501">
            <path d="M92 102.355h37.443v37.443H92z"/>
            <path d="M129.443 139.776h36.938v36.938h-36.938zM129.443 65.395h36.938v36.938h-36.938z" opacity=".9"/>
            <path d="M166.381 102.355h37.443v37.443h-37.443z" opacity=".9"/>
        </g>
        <path stroke="#2180EA" stroke-width="2" d="M381 279l-147-25"/>
        <g transform="translate(367 240)">
            <mask id="f" fill="#fff">
                <use xlink:href="#e"/>
            </mask>
            <use fill="#EEF5FD" fill-rule="nonzero" xlink:href="#e"/>
            <g fill="#2180EA" fill-rule="nonzero" mask="url(#f)">
                <path d="M59.65 76.019s-.524-19.831-3.736-18.313a11.46 11.46 0 0 0-2.95-1.616 58.496 58.496 0 0 1-10.303-5.117l-8.6 16.355-9.959-16.257A58.496 58.496 0 0 1 13.8 56.188c-1.063.37-2.06.915-2.95 1.616-3.212-1.494-2.237 18.313-2.237 18.313"/>
                <path d="M22.413 40.69c.758 4.656 3.826 8.565 8.09 10.308a8.501 8.501 0 0 0 5.948 0c4.242-1.78 7.303-5.669 8.113-10.308.62 0 1.428-.954 2.38-4.162 1.213-4.358 0-5.019-1.166-4.896.2-.584.358-1.18.476-1.788 1.713-11.36-1.69-15.154-6.995-12.706-.807-1.291-14.324-4.897-18.083 0-3.76 4.896-.213 13.89 0 14.47-1.118 0-2.38.538-1.19 4.896.928 3.232 1.737 4.113 2.427 4.186z"/>
            </g>
        </g>
        <g transform="translate(167 140)">
            <path fill="#FFF" d="M0 0h124v132.848L90.902 160H0z"/>
            <g fill="#1DA2DB" fill-rule="nonzero" transform="translate(15 17)">
                <ellipse cx="13.097" cy="13.353" rx="13.097" ry="13.353"/>
                <path d="M43.032 8.584h49.58v3.815h-49.58zM43.032 17.168h49.58v3.815h-49.58zM0 41.013h92.613v3.815H0zM0 50.551h92.613v3.815H0zM0 59.135h92.613v3.815H0zM0 68.673h92.613v3.815H0zM0 77.257h92.613v3.815H0zM0 87.749h92.613v3.815H0zM0 97.287h92.613v3.815H0z"/>
            </g>
            <path fill="#0A4E8E" d="M26.585 146L15 189.125l9.732-6.23 5.56 9.105L34 147.437zM43.415 146L55 189.125l-9.732-6.23-5.56 9.105L36 147.437z"/>
            <path fill="#2180EA" d="M32.874 159.977l-1.572.667a4.489 4.489 0 0 1-6.076-2.92l-.524-1.868a8 8 0 0 0-3.79-4.816l-1.565-.878a4.63 4.63 0 0 1-1.53-6.691l1.102-1.577a8 8 0 0 0 1.33-5.913l-.333-1.978a4.55 4.55 0 0 1 4.235-5.3l1.715-.094a8 8 0 0 0 5.585-2.726l1.166-1.335a4.492 4.492 0 0 1 6.767 0l1.166 1.335a8 8 0 0 0 5.584 2.726l1.715.095a4.55 4.55 0 0 1 4.235 5.299l-.333 1.978a8 8 0 0 0 1.33 5.913l1.102 1.577a4.63 4.63 0 0 1-1.53 6.69l-1.565.879a8 8 0 0 0-3.79 4.816l-.524 1.868a4.489 4.489 0 0 1-6.076 2.92l-1.571-.667a8 8 0 0 0-6.253 0z"/>
            <circle cx="36" cy="142" r="8" fill="#FFF"/>
            <path fill="#0A4E8E" d="M91 160l33-26.623L96.577 131z"/>
        </g>
        <g fill="#EDEFF8" fill-rule="nonzero">
            <path d="M25 234.341h13.373v13.373H25z"/>
            <path d="M38.373 247.706h13.192v13.192H38.373zM38.373 221.141h13.192v13.192H38.373zM51.565 234.341h13.373v13.373H51.565z" opacity=".9"/>
        </g>
        <g fill="#EDEFF8" fill-rule="nonzero">
            <path d="M444 212.342h15.378v15.378H444z"/>
            <path d="M459.378 227.712h15.171v15.171h-15.171zM459.378 197.162h15.171v15.171h-15.171zM474.549 212.342h15.378v15.378h-15.378z" opacity=".9"/>
        </g>
        <g transform="translate(301 108)">
            <circle cx="14" cy="14" r="14" fill="#2180EA"/>
            <path stroke="#FFF" stroke-linecap="round" stroke-width="2.8" d="M8.902 14.019l3.448 3.448 7.25-7.23"/>
        </g>
        <g transform="translate(343 187)">
            <circle cx="14" cy="14" r="14" fill="#2180EA"/>
            <path stroke="#FFF" stroke-linecap="round" stroke-width="2.8" d="M8.902 14.019l3.448 3.448 7.25-7.23"/>
        </g>
        <g transform="translate(353 264)">
            <circle cx="14" cy="14" r="14" fill="#2180EA"/>
            <path stroke="#FFF" stroke-linecap="round" stroke-width="2.8" d="M8.902 14.019l3.448 3.448 7.25-7.23"/>
        </g>
    </g>
</svg>
