<svg xmlns="http://www.w3.org/2000/svg" width="504" height="400" viewBox="0 0 504 400">
    <g fill="none" fill-rule="evenodd">
        <path d="M0 0h504v400H0z"/>
        <path fill="#EDEFF8" d="M175.56 161.923c5.71-9.959 21.802-10.483 25.954-15.724 4.153-5.241 5.71-11.531 11.94-11.531 6.228 0 3.114 3.669 14.014 0 10.9-3.669 8.824-3.669 18.168-7.862 9.343-4.193 19.206 0 19.206 0h8.824c5.19 0 7.786-5.765 15.053-5.765 7.267 0 20.244-5.766 20.244 0 0 5.765 10.9 0 16.61 0 5.71 0 22.84-5.766 26.992 0 4.153 5.765 34.778-3.67 41.007-3.67 6.23 0 3.115-2.096 20.244 3.67 17.13 5.765 49.312 15.352 57.098 18.42 7.786 3.069 9.863 14.6 9.863 14.6s4.671 3.669 4.671 7.862-6.748 13.627-14.534 13.627c-7.786 0-18.167 20.441-18.167 20.441h-5.71l5.71-16.772c-5.883-2.795-11.42-.699-16.61 6.29-7.787 10.482-15.054 11.53-15.054 17.296v13.627s-14.534 1.048-7.267 8.91-1.557 15.2-9.343 15.2-11.939 8.386-15.053 8.386c-3.115 0-32.183-12.579-41.007-20.44-8.825-7.863-14.015-7.863-14.015-12.056 0-4.193 3.893-13.627 0-13.627s-8.825-4.717-19.206-8.386c-3.414-1.207 17.869 23.473 15.032 24.11-5.127 1.15-8.718 12.918-15.032 9.958-3.706-1.737-11.068-16.986-12.977-19.917-1.269-1.948-2.913-16.73-3.634-17.296-4.671-3.669-11.42-12.055-24.915-12.055-13.496 0-20.763 6.814-28.03-3.669-7.267-10.483-7.267-16.772-21.801-13.627-14.535 3.144-53.984 9.958-48.274 0z"/>
        <path fill="#EDEFF8" d="M218.572 182.58c9.863-5.765 17.13-3.668 19.206 0 2.076 3.67 9.343 11.007 16.61 8.91 7.267-2.096 16.61 0 22.32 0 5.71 0 16.611-4.716 21.283 0 4.671 4.718 0 14.676 0 14.676s9.862 18.869 12.458 20.966c2.595 2.096 6.748 7.337 6.748 7.337s8.824 15.2 10.9 21.49c2.076 6.29-9.343 30.4-13.496 33.544-4.152 3.145-14.015 9.958-16.61 15.724-2.596 5.765-1.038 12.055-7.786 16.248-6.748 4.193-7.911 17.82-9.863 22.013-1.951 4.193-24.396-1.048-30.625-16.248-6.23-15.2-20.763-33.978-14.534-49.792 6.229-15.814 4.671-37.737-4.672-37.737S203 233.945 203 224.51s5.71-36.165 15.572-41.93zM375.02 315.798c-12.458-6.814 1.558-19.917 6.748-27.255 5.191-7.338 10.382-10.482 26.473-8.91 16.091 1.572 22.32-8.91 26.473 0 4.153 8.91 5.19 12.09 17.13 16.266 11.938 4.175 27.51 5.748 27.51 15.706 0 9.958-6.229 22.013-18.686 25.682-12.458 3.67-25.954 9.435-25.954 13.628s-23.358 4.717-31.664-6.814c-8.305-11.53-15.572-21.49-28.03-28.303zM61.916 162.409c0-6.29-24.916-11.531-24.916-23.062 0-11.53 0-20.965 12.458-20.965s25.954-6.814 32.182-6.814c6.23 0 14.015-8.386 34.26-8.386 20.243 0 25.434.524 22.839-4.193-2.596-4.717-18.168-.524-18.168-9.958 0-9.435 12.458-15.724 18.168-15.724h14.015c8.305 0 7.786-5.241 19.725-5.241 11.938 0 16.09-1.049 24.396 5.24 8.305 6.29 8.824 5.766 8.824 15.725 0 9.958-9.862 22.013-15.053 14.151-5.19-7.862-18.167-4.193-18.167-4.193h-19.725c-7.786 0 7.267 8.943 13.496 12.58 6.229 3.635 13.496-4.718 0 11.53-13.496 16.248 5.19 17.82 0 24.11-5.191 6.29-16.61 4.717-27.511 9.959-10.9 5.24-17.39 9.434-17.39 19.917 0 10.482-5.45 12.055-5.45 16.772 0 4.717 9.344 20.44 4.672 20.44s-4.672 3.146-4.672 5.766-10.9-2.096-6.748 5.766c4.153 7.862 2.077 6.29 12.199 6.29s8.045-12.58 14.274-6.29c6.23 6.29 26.473 34.068 33.221 34.068 6.748 0 11.939 7.338 11.939 11.53 0 4.194-2.076 10.483-2.076 10.483s-6.23 3.145-3.115 8.387c3.115 5.24 3.115 12.579-3.114 12.579-6.23 0-9.344-2.621-14.534 4.717-5.191 7.338-19.206 24.634-19.206 33.02 0 8.386 6.229 9.434 3.114 14.152-3.114 4.717-8.824 7.337-8.824 15.2 0 7.861-10.9 0-11.68-18.345-.778-18.345-5.45-17.297-5.45-27.255 0-9.958 8.825-19.917 8.825-34.068 0-14.152-14.275-15.724-8.825-23.062 5.45-7.338 9.344-13.103 4.672-17.82-4.672-4.718-2.595-11.531-4.672-11.531-2.076 0-12.457-5.766-12.457-9.959s1.557-7.862 3.633-7.862 1.557-4.193-6.748-7.338c-8.305-3.144-22.84-15.2-22.84-23.061 0-7.862-15.571-20.966-15.571-27.255z"/>
        <path stroke="#2180EA" stroke-dasharray="4,2" stroke-width="3" d="M71 172.46c42.333-29.64 96.167-42.96 161.5-39.96S361 161 422 209"/>
        <g transform="translate(399 133)">
            <path fill="#1DA2DB" d="M26.152 75.648C40.05 49.371 47 32.1 47 23.834 47 10.67 36.479 0 23.5 0S0 10.67 0 23.834c0 8.265 6.95 25.537 20.848 51.814a3 3 0 0 0 5.304 0z"/>
            <ellipse cx="22.978" cy="23.189" fill="#FFF" stroke="#0A4E8E" stroke-width="4" rx="12.533" ry="12.649"/>
        </g>
        <path stroke="#D1D4EB" stroke-dasharray="4,2" stroke-width="2" d="M84.095 201.62c20.417-6.988 46.544-15.199 73.19-9.958 26.646 5.242 42.737 19.218 57.617 39.834"/>
        <g transform="translate(57 128)">
            <path fill="#1DA2DB" d="M17.174 45.834C25.058 30.344 29 20.092 29 15.078 29 6.751 22.508 0 14.5 0S0 6.75 0 15.078c0 5.014 3.942 15.266 11.826 30.756a3 3 0 0 0 5.348 0z"/>
            <ellipse cx="14.5" cy="15" fill="#FFF" stroke="#0A4E8E" stroke-width="4" rx="7.5" ry="8"/>
        </g>
        <path stroke="#D1D4EB" stroke-dasharray="4,2" stroke-width="2" d="M80.095 197c28.723 5.94 49.312 15.724 61.77 29.351 12.458 13.628 17.476 29.526 15.053 47.696 8.998-18.869 17.649-30.4 25.954-34.592 8.305-4.194 19.552-5.504 33.74-3.931 12.458-19.044 25.954-29.44 40.488-31.186 14.534-1.747 30.28 1.048 47.236 8.386 32.46-4.717 57.515 2.883 75.164 22.8 17.649 19.916 23.482 50.909 17.5 92.976-35.922-43.41-73.088-67.91-111.5-73.5-57.617-8.386-87.056 10.137-124.948 19.047M235 175.968c29.667-13.314 59.167-18.303 88.5-14.968 29.333 3.335 61.5 18.669 96.5 46"/>
        <g transform="translate(69.095 186)">
            <circle cx="11" cy="11" r="11" fill="#D1D4EB"/>
            <path stroke="#FFF" stroke-linecap="round" stroke-width="2.016" d="M6.812 10.728l2.638 2.638 5.548-5.532"/>
        </g>
        <g transform="translate(146.095 263)">
            <circle cx="11" cy="11" r="11" fill="#D1D4EB"/>
            <path stroke="#FFF" stroke-linecap="round" stroke-width="2.016" d="M6.812 10.728l2.638 2.638 5.548-5.532"/>
        </g>
        <g transform="translate(206.095 224)">
            <circle cx="11" cy="11" r="11" fill="#D1D4EB"/>
            <path stroke="#FFF" stroke-linecap="round" stroke-width="2.016" d="M6.812 10.728l2.638 2.638 5.548-5.532"/>
        </g>
        <g transform="translate(230 159)">
            <circle cx="11" cy="11" r="11" fill="#D1D4EB"/>
            <path stroke="#FFF" stroke-linecap="round" stroke-width="2.016" d="M6.812 10.728l2.638 2.638 5.548-5.532"/>
        </g>
        <g transform="translate(300 200)">
            <circle cx="11" cy="11" r="11" fill="#D1D4EB"/>
            <path stroke="#FFF" stroke-linecap="round" stroke-width="2.016" d="M6.812 10.728l2.638 2.638 5.548-5.532"/>
        </g>
        <g transform="translate(385 316)">
            <circle cx="11" cy="11" r="11" fill="#D1D4EB"/>
            <path stroke="#FFF" stroke-linecap="round" stroke-width="2.016" d="M6.812 10.728l2.638 2.638 5.548-5.532"/>
        </g>
        <path fill="#F9F9FD" fill-rule="nonzero" d="M144.41 27.058a5.49 5.49 0 0 0-1.7.27 8.61 8.61 0 0 0-10.18-6.32 13 13 0 0 0-25.15-3.53 11.15 11.15 0 0 0-6.13-1.82c-.39 0-.781.02-1.17.06a9.8 9.8 0 0 0-18.07.68 8.45 8.45 0 0 0-12.84 9h-2.95a3.22 3.22 0 0 0-3.22 3.22v.07h27.21c0 .25.07.5.13.74h-3.91a4.27 4.27 0 0 0-4.27 4.27v.09h67.59a5.49 5.49 0 0 0-5.36-6.73h.02z"/>
        <path fill="#EFFAFF" fill-rule="nonzero" d="M358.536 25.385c-.396 0-.79.062-1.166.185a5.905 5.905 0 0 0-6.981-4.335 8.916 8.916 0 0 0-17.248-2.42 7.647 7.647 0 0 0-4.204-1.249 7.77 7.77 0 0 0-.803.041 6.72 6.72 0 0 0-12.392.467 5.795 5.795 0 0 0-8.806 6.172h-2.023a2.208 2.208 0 0 0-2.209 2.208v.048h18.661c0 .172.048.343.09.508h-2.682a2.928 2.928 0 0 0-2.929 2.928V30h46.354a3.765 3.765 0 0 0-3.676-4.615h.014zM284.832 57.385c-.396 0-.79.062-1.166.185a5.905 5.905 0 0 0-6.982-4.335 8.916 8.916 0 0 0-17.248-2.42 7.647 7.647 0 0 0-4.204-1.249 7.77 7.77 0 0 0-.802.041 6.72 6.72 0 0 0-12.393.467 5.795 5.795 0 0 0-8.806 6.172h-2.023A2.208 2.208 0 0 0 229 58.454v.048h18.66c0 .172.049.343.09.508h-2.681a2.928 2.928 0 0 0-2.929 2.928V62h46.354a3.765 3.765 0 0 0-3.676-4.615h.014z"/>
        <path fill="#EDEFF8" fill-rule="nonzero" d="M182.493 12.501a7.89 7.89 0 0 1 2.512-.501 7.654 7.654 0 0 1 2.51.501.647.647 0 0 1 .232.04c3.617 1.37 7.262 4.706 7.253 9.077 0 3.299-2.21 6.635-4.15 9.58a20.488 20.488 0 0 0-2.381 4.184 1.99 1.99 0 0 1-1.462 1.346v2.764h.668c.368 0 .667.309.667.69v4.128c0 .381-.299.69-.667.69h-5.332a.679.679 0 0 1-.667-.69v-4.128c0-.381.299-.69.667-.69h.668v-2.771a1.99 1.99 0 0 1-1.47-1.348 20.497 20.497 0 0 0-2.382-4.184c-1.949-2.945-4.159-6.282-4.159-9.58 0-4.362 3.654-7.699 7.262-9.068a.647.647 0 0 1 .231-.04zm1.853 24.297v2.694h1.326V36.8h-1.29l-.036-.001z" opacity=".801"/>
        <g fill="#2180EA" fill-rule="nonzero">
            <path d="M306.853 117.31c.221-3.647-8.539-9.101-14.054-9.45-3.634-.23-14.542-.81-14.542-.81l-23.613-1.32-26.83-1.496-11.92-13.452a.8.8 0 0 0-1.014-.15.808.808 0 0 0-.344.97l5.56 15.32c-.77 1.048-.652 1.945-.652 1.945a2.003 2.003 0 0 0-2.01 1.877 1.98 1.98 0 0 0 1.783 2.092c.051.158.35.96.673 1.81a3.741 3.741 0 0 0 3.275 2.416l35.704 2.159-11.088 4.606a1.53 1.53 0 0 0-.854 1.915l.38 1.074a1.505 1.505 0 0 0 1.738.966l33.73-7.31 9.397.561c9.034.677 14.462-.076 14.681-3.724z"/>
            <path d="M248.919 101.08l7.23 4.066 20.895.917-26.324-8.896c-.719-.242-1.515.1-1.868.806-.177.352-.353.706-.527 1.059-.37.753-.11 1.653.594 2.047z"/>
        </g>
        <g fill="#EDEFF8">
            <g fill-rule="nonzero">
                <path d="M19 281.344h18.387v18.387H19z"/>
                <path d="M37.387 299.721h18.139v18.139H37.387zM37.387 263.194h18.139v18.139H37.387zM55.526 281.344h18.387v18.387H55.526z" opacity=".9"/>
            </g>
        </g>
        <g fill="#EDEFF8">
            <g fill-rule="nonzero">
                <path d="M319 361.009h15.044v15.044H319z"/>
                <path d="M334.044 376.044h14.841v14.841h-14.841zM334.044 346.159h14.841V361h-14.841zM348.885 361.009h15.044v15.044h-15.044z" opacity=".9"/>
            </g>
        </g>
        <g fill="#EDEFF8" opacity=".597">
            <g fill-rule="nonzero">
                <path d="M354 66.339h10.364v10.364H354z"/>
                <path d="M364.364 76.697h10.224v10.224h-10.224zM364.364 56.109h10.224v10.224h-10.224zM374.588 66.339h10.364v10.364h-10.364z" opacity=".9"/>
            </g>
        </g>
    </g>
</svg>
