<svg xmlns="http://www.w3.org/2000/svg" xmlns:xlink="http://www.w3.org/1999/xlink" width="504" height="400" viewBox="0 0 504 400">
    <defs>
        <rect id="a" width="46.484" height="46.484" x="5.914" y="5.565" rx="3.478"/>
        <rect id="c" width="46.484" height="46.484" x="5.914" y="5.565" rx="3.478"/>
    </defs>
    <g fill="none" fill-rule="evenodd">
        <path d="M0 0h504v400H0z"/>
        <g transform="translate(57 6)">
            <circle cx="205.5" cy="176.5" r="148.5" stroke="#EFFAFF" stroke-width="2"/>
            <g transform="translate(0 1)">
                <g fill="#EDEFF8" fill-rule="nonzero">
                    <path d="M42 52.341h13.373v13.373H42z"/>
                    <path d="M55.373 65.706h13.192v13.192H55.373zM55.373 39.141h13.192v13.192H55.373zM68.565 52.341h13.373v13.373H68.565z" opacity=".9"/>
                </g>
                <g fill="#EDEFF8" fill-rule="nonzero">
                    <path d="M319 21.346h21.396v21.396H319z"/>
                    <path d="M340.396 42.729h21.107v21.107h-21.107zM340.396.226h21.107v21.107h-21.107zM361.504 21.346H382.9v21.396h-21.396z" opacity=".9"/>
                </g>
                <g fill="#EDEFF8" fill-rule="nonzero">
                    <path d="M179 351.01h17.05v17.05H179z"/>
                    <path d="M196.05 368.05h16.82v16.82h-16.82zM196.05 334.18h16.82V351h-16.82zM212.87 351.01h17.05v17.05h-17.05z" opacity=".9"/>
                </g>
                <g fill="#EDEFF8" fill-rule="nonzero" opacity=".4">
                    <path d="M16.22 313.66h10.1v10.1h-10.1z"/>
                    <path d="M26.32 323.76h9.97v9.97h-9.97zM26.32 303.69h9.97v9.97h-9.97zM36.29 313.66h10.1v10.1h-10.1z" opacity=".9"/>
                </g>
                <path fill="#EDEFF8" fill-rule="nonzero" d="M93.41 161.447a7.59 7.59 0 0 0-9.93-7.22c-1.555-6.205-7.744-10.064-14-8.73a17.95 17.95 0 0 0-34.69-4.87 15.46 15.46 0 0 0-23.5 16.51h-5.4a5.89 5.89 0 0 0-5.89 5.89v.12h93.25a7.59 7.59 0 0 0 .16-1.7z"/>
                <circle cx="289.18" cy="294.73" r="38.33" fill="#EDEFF8" fill-rule="nonzero"/>
                <path fill="#D1D4EB" fill-rule="nonzero" d="M303 292.18l-6.13 6.12a8.56 8.56 0 0 1-13.56-1.75l2.85-2.85a2 2 0 0 1 .46-.31 4.26 4.26 0 0 0 1.07 1.84 4.34 4.34 0 0 0 6.12 0l6.12-6.12a4.33 4.33 0 0 0-6.12-6.12l-2.18 2.18a10.86 10.86 0 0 0-5.52-.6l4.64-4.64A8.662 8.662 0 0 1 303 292.18zm-16.19 10.07l-2.18 2.18a4.331 4.331 0 1 1-6.12-6.13l6.12-6.12a4.33 4.33 0 0 1 6.12 0 4.29 4.29 0 0 1 1.07 1.84c.166-.079.32-.18.46-.3l2.85-2.85a8.52 8.52 0 0 0-1.32-1.75 8.66 8.66 0 0 0-12.25 0l-6.12 6.12a8.662 8.662 0 0 0 12.25 12.25l4.64-4.64a10.86 10.86 0 0 1-5.52-.6zM82.06 162.817a4.14 4.14 0 0 0-5.43-3.94 6.49 6.49 0 0 0-7.66-4.77 9.81 9.81 0 0 0-19-2.66 8.45 8.45 0 0 0-12.84 9h-2.91a3.22 3.22 0 0 0-3.22 3.21v.07h50.95a4.15 4.15 0 0 0 .11-.91z"/>
            </g>
            <g fill-rule="nonzero" transform="rotate(15 -189.462 879.365)">
                <path fill="#EFFAFF" d="M0 0h80.571v100.935H0z" opacity=".95"/>
                <circle cx="19.921" cy="24.348" r="9.297" fill="#2180EA" opacity=".9"/>
                <path fill="#1DA2DB" d="M38.072 21.249h31.874v2.656H38.072zM38.072 27.447h31.874v2.656H38.072zM10.625 44.27h59.321v2.656H10.625zM10.625 51.353h59.321v2.656H10.625zM10.625 57.55h59.321v2.656H10.625zM10.625 64.634h59.321v2.656H10.625zM10.625 70.831h59.321v2.656H10.625zM10.625 77.914h59.321v2.656H10.625zM10.625 84.998h59.321v2.656H10.625z"/>
            </g>
            <g fill="#D1D4EB" fill-rule="nonzero">
                <path d="M170.686 15.515l20.93 9.051a5.652 5.652 0 0 0 5.826-1.561l13.589-18.3c1.082-1.458.536-2.264-1.217-1.794l-38.971 10.442c-1.753.47-1.835 1.444-.157 2.162z"/>
                <path d="M213.756 7.833L198.738 27.24a4.708 4.708 0 0 1-5.104 1.368l-22.71-9.298c-1.695-.688-2.676.197-2.206 1.95l6.305 23.53a3.322 3.322 0 0 0 4.042 2.343l41.541-11.13a3.322 3.322 0 0 0 2.329-4.052l-6.299-23.506c-.47-1.753-1.818-2.051-2.885-.585l.005-.027z"/>
            </g>
            <g transform="translate(329.2 129.2)">
                <mask id="b" fill="#fff">
                    <use xlink:href="#a"/>
                </mask>
                <use fill="#EDEFF8" fill-rule="nonzero" transform="rotate(-15 29.156 28.807)" xlink:href="#a"/>
                <g fill="#D1D4EB" fill-rule="nonzero" mask="url(#b)">
                    <path d="M50.204 54.623s-.367-13.524-2.621-12.489a8.114 8.114 0 0 0-2.07-1.102 41.539 41.539 0 0 1-7.23-3.489L32.25 48.696 25.26 37.61a41.539 41.539 0 0 1-7.23 3.49 7.213 7.213 0 0 0-2.07 1.101c-2.254-1.018-5.31 22.762-2.048 16.234"/>
                    <path d="M24.075 30.53a9.2 9.2 0 0 0 5.677 7.03 6.127 6.127 0 0 0 4.174 0 9.383 9.383 0 0 0 5.693-7.03c.434 0 1.002-.65 1.67-2.837.85-2.972 0-3.423-.819-3.34.14-.397.252-.805.334-1.218 1.202-7.747-1.185-10.335-4.908-8.665-.566-.88-10.051-3.34-12.689 0-2.638 3.339-.15 9.472 0 9.867-.785 0-1.67.367-.835 3.339.651 2.204 1.219 2.805 1.703 2.855z"/>
                </g>
            </g>
            <g transform="translate(56.2 238.2)">
                <mask id="d" fill="#fff">
                    <use xlink:href="#c"/>
                </mask>
                <use fill="#EDEFF8" fill-rule="nonzero" transform="rotate(-15 29.156 28.807)" xlink:href="#c"/>
                <g fill="#D1D4EB" fill-rule="nonzero" mask="url(#d)">
                    <path d="M50.204 54.623s-.367-13.524-2.621-12.489a8.114 8.114 0 0 0-2.07-1.102 41.539 41.539 0 0 1-7.23-3.489L32.25 48.696 25.26 37.61a41.539 41.539 0 0 1-7.23 3.49 7.213 7.213 0 0 0-2.07 1.101c-2.254-1.018-5.31 22.762-2.048 16.234"/>
                    <path d="M24.075 30.53a9.2 9.2 0 0 0 5.677 7.03 6.127 6.127 0 0 0 4.174 0 9.383 9.383 0 0 0 5.693-7.03c.434 0 1.002-.65 1.67-2.837.85-2.972 0-3.423-.819-3.34.14-.397.252-.805.334-1.218 1.202-7.747-1.185-10.335-4.908-8.665-.566-.88-10.051-3.34-12.689 0-2.638 3.339-.15 9.472 0 9.867-.785 0-1.67.367-.835 3.339.651 2.204 1.219 2.805 1.703 2.855z"/>
                </g>
            </g>
            <g fill-rule="nonzero">
                <path fill="#2180EA" d="M190.424 120.094l-51.216 18.17a3.75 3.75 0 0 0-2.496 3.535v43.873c0 24.293 10.813 47.721 30.39 62.732 6.93 5.314 15.102 9.884 24.576 12.627 9.474-2.743 17.644-7.313 24.575-12.627 19.578-15.01 30.391-38.439 30.391-62.732V141.8c0-1.588-1-3.003-2.496-3.534l-51.216-18.17a3.75 3.75 0 0 0-2.508 0z"/>
                <path fill="#FFF" fill-opacity=".174" d="M192.212 258.449c-8.709-2.643-16.238-6.958-22.638-11.96-18.42-14.388-28.593-36.844-28.593-60.13v-44.594l51.23-18.517v135.2z"/>
            </g>
            <path fill="#FFF" fill-rule="nonzero" d="M206.667 184.813V173.75c0-8.131-6.578-14.75-14.667-14.75-8.087 0-14.667 6.619-14.667 14.75v11.063c-4.05 0-7.333 3.302-7.333 7.374v18.438c0 4.073 3.283 7.375 7.333 7.375h29.334c4.049 0 7.333-3.302 7.333-7.375v-18.438c0-4.072-3.284-7.374-7.333-7.374zm-12.834 17.871v6.097c0 1.02-.82 1.844-1.833 1.844a1.837 1.837 0 0 1-1.833-1.844v-6.097c-1.076-.64-1.833-1.771-1.833-3.121 0-2.039 1.641-3.688 3.666-3.688s3.667 1.649 3.667 3.688c0 1.35-.758 2.48-1.834 3.121zm5.5-17.871h-14.666V173.75c0-4.07 3.288-7.375 7.333-7.375 4.043 0 7.333 3.306 7.333 7.375v11.063z"/>
        </g>
    </g>
</svg>
