<svg xmlns="http://www.w3.org/2000/svg" xmlns:xlink="http://www.w3.org/1999/xlink" width="504" height="400" viewBox="0 0 504 400">
    <defs>
        <rect id="a" width="29.053" height="29.053" x="3.696" y="3.478" rx="3.478"/>
        <rect id="c" width="29.053" height="29.053" x="3.696" y="3.478" rx="3.478"/>
        <rect id="e" width="29.053" height="29.053" x="3.696" y="3.478" rx="3.478"/>
        <rect id="g" width="29.053" height="29.053" x="3.696" y="3.478" rx="3.478"/>
        <rect id="i" width="68.106" height="68.133" x="13.964" y="13.934" rx="17"/>
    </defs>
    <g fill="none" fill-rule="evenodd">
        <path d="M0 0h504v400H0z"/>
        <path fill="#EDEFF8" fill-rule="nonzero" d="M413 183.716a51.005 51.005 0 0 0-1.28-3.141 64.69 64.69 0 0 0-1.53-3.152 71.201 71.201 0 0 0-1.71-3.024c-.82-1.297-1.31-2.112-1.9-2.895-.97-1.33-1.51-2.058-2.07-2.744-.2-.247-.41-.483-.62-.73a56.097 56.097 0 0 0-1.63-1.876c-.27-.29-.55-.557-.82-.847-.52-.547-1-1.072-1.59-1.608-.34-.322-.7-.622-1.05-.944-.5-.45-1-.911-1.52-1.34-.52-.429-.89-.686-1.33-1.072-.44-.386-.91-.73-1.39-1.072-.48-.343-1.16-.783-1.75-1.169-.37-.247-.74-.504-1.12-.74a48.32 48.32 0 0 0-3-1.694c-4.787-25.74-25.742-44.36-50.22-44.624-1.333 0-2.667.04-4 .118-2.58.186-5.145.58-7.67 1.18-1.247.292-2.477.65-3.69 1.072-6.56-17.278-21.17-29.53-38.39-32.193-17.22-2.662-34.465 4.665-45.31 19.251-20.71-15.722-47.514-18.89-70.92-8.381-23.406 10.508-40.108 33.208-44.19 60.06a45.942 45.942 0 0 0-10.56-1.361c-1.65 0-3.28.064-4.89.214-.55 0-1.07.161-1.62.236-1.05.14-2.11.268-3.14.483-.64.128-1.27.321-1.9.471-.9.225-1.81.44-2.7.719-.67.214-1.33.471-2 .718-.81.3-1.63.59-2.42.922-.79.333-1.35.633-2 .954-.65.322-1.47.708-2.19 1.073-.72.364-1.34.782-2 1.19-.66.407-1.33.825-2 1.265-.67.44-1.31.943-2 1.437-.69.493-1.18.91-1.76 1.383-.58.471-1.28 1.072-1.9 1.683-.62.611-1 .976-1.54 1.48s-1.23 1.265-1.82 1.93c-.59.664-.9 1.072-1.33 1.543-.59.708-1.16 1.437-1.72 2.145-.38.514-.75 1.072-1.12 1.576-.55.804-1.08 1.608-1.59 2.445-.31.514-.61 1.072-.91 1.576-.3.504-.46.772-.67 1.168-12.561 5.228-20.881 18.138-21 32.584-.17 19.492 14.37 53.427 32.5 53.609.47 0 .92 0 1.38-.064 11.558 9.597 26.54 13.084 40.77 9.488 5.616 18.04 19.886 31.417 37.31 34.975 17.425 3.558 35.282-3.257 46.69-17.82 9.443 12.525 23.723 19.714 38.743 19.505 15.02-.209 29.12-7.793 38.257-20.577 3.083.393 6.203.295 9.26-.29a44.726 44.726 0 0 0 9.09 1.073c16.047.16 31.15-8.115 40.43-22.151 14.947 8.688 33.034 8.408 47.74-.74 4.612 2.668 9.76 4.092 15 4.15 18 .181 32.76-33.356 32.93-52.72.136-16.954-11.079-31.576-26.62-34.707z"/>
        <g fill="#000" fill-rule="nonzero" opacity=".05">
            <path d="M313.01 122.78l.99.13M436.53 238.62l.15.99M188.68 288.32l-.34-.94M53 272.75l-.98.2M74.01 98.8l.99.1M123.32 173.38l.37.93"/>
        </g>
        <g fill="#D1D4EB" fill-rule="nonzero">
            <path d="M170.399 295.51l.202.98L58.5 319.634V257.52l32.02-112.157.96.274L59.5 257.59v60.816z"/>
            <path d="M31.225 176.946l-.45-.892 61.5-31 .45.892zM379.389 146.031l-57.503-39.848 27.15-66.871.927.376-26.85 66.13 56.498 39.15 38.474-7.494 62.16 35.09-.49.871-61.84-34.909z"/>
            <path d="M323.05 108.897l81.703-46.332.494.87-82.297 46.668-70.764-57.214.628-.778zM91.5 144.291l86.332-30.762.336.942L90.5 145.709V83.297l39.642-40.646.716.698L91.5 83.703zM171.614 297.318l.772-.636 37.494 45.6-58.75 15.701-.26-.966 57.25-15.3zM415.742 347.308l-.933.36L393 291.125 443.668 280l.215.977-49.53 10.875zM212.23 338.443l61.088-39.489.543.84-61.088 39.49z"/>
            <path d="M273.504 298.873l118.907-7.817.206.979-118.908 7.817z"/>
            <path d="M356.025 191.975l.974-.226L393 291.5l-.974.226zM62.94 258.1l-.86-.51 68.7-29.5.86.51z"/>
            <path d="M356.177 191.5l54.984-51.022.68.733-54.984 51.022zM84.908 84.832l.197-.98 94.998 19-.196.98z"/>
            <path d="M179.493 103.162l21.05-53.992.932.364-21.05 53.991z"/>
        </g>
        <path stroke="#0A4E8E" stroke-width="2" d="M273.59 299.35l-24.58-107M249.01 192.35h108M131.21 228.35l117.8-36M249.01 192.35l75-84M180.01 103.35l69 89"/>
        <circle cx="5.985" cy="5.985" r="5.985" fill="#D1D4EB" fill-rule="nonzero" transform="translate(196 43)"/>
        <circle cx="5.985" cy="5.985" r="5.985" fill="#D1D4EB" fill-rule="nonzero" transform="translate(243 43)"/>
        <circle cx="5.985" cy="5.985" r="5.985" fill="#D1D4EB" fill-rule="nonzero" transform="translate(397 58)"/>
        <g transform="translate(43 241)">
            <mask id="b" fill="#fff">
                <use xlink:href="#a"/>
            </mask>
            <use fill="#EDEFF8" fill-rule="nonzero" transform="rotate(-15 18.222 18.005)" xlink:href="#a"/>
            <g fill="#D1D4EB" fill-rule="nonzero" mask="url(#b)">
                <path d="M31.377 34.14s-.23-8.453-1.638-7.806a5.071 5.071 0 0 0-1.294-.689 25.962 25.962 0 0 1-4.518-2.18l-3.771 6.97-4.368-6.929a25.962 25.962 0 0 1-4.518 2.181c-.466.157-.904.39-1.294.689-1.409-.637-3.319 14.226-1.28 10.146"/>
                <path d="M15.047 19.082a5.75 5.75 0 0 0 3.548 4.393 3.83 3.83 0 0 0 2.608 0 5.864 5.864 0 0 0 3.559-4.393c.271 0 .626-.407 1.043-1.774.532-1.858 0-2.14-.511-2.087.087-.249.157-.503.209-.762.75-4.842-.741-6.459-3.068-5.416-.354-.55-6.282-2.086-7.93 0-1.65 2.087-.094 5.92 0 6.167-.491 0-1.044.23-.522 2.087.407 1.378.761 1.753 1.064 1.785z"/>
            </g>
        </g>
        <circle cx="5.985" cy="5.985" r="5.985" fill="#D1D4EB" fill-rule="nonzero" transform="translate(24 171)"/>
        <g transform="translate(398 122)">
            <mask id="d" fill="#fff">
                <use xlink:href="#c"/>
            </mask>
            <use fill="#EDEFF8" fill-rule="nonzero" transform="rotate(-15 18.222 18.005)" xlink:href="#c"/>
            <g fill="#D1D4EB" fill-rule="nonzero" mask="url(#d)">
                <path d="M31.377 34.14s-.23-8.453-1.638-7.806a5.071 5.071 0 0 0-1.294-.689 25.962 25.962 0 0 1-4.518-2.18l-3.771 6.97-4.368-6.929a25.962 25.962 0 0 1-4.518 2.181c-.466.157-.904.39-1.294.689-1.409-.637-3.319 14.226-1.28 10.146"/>
                <path d="M15.047 19.082a5.75 5.75 0 0 0 3.548 4.393 3.83 3.83 0 0 0 2.608 0 5.864 5.864 0 0 0 3.559-4.393c.271 0 .626-.407 1.043-1.774.532-1.858 0-2.14-.511-2.087.087-.249.157-.503.209-.762.75-4.842-.741-6.459-3.068-5.416-.354-.55-6.282-2.086-7.93 0-1.65 2.087-.094 5.92 0 6.167-.491 0-1.044.23-.522 2.087.407 1.378.761 1.753 1.064 1.785z"/>
            </g>
        </g>
        <g transform="translate(78 61)">
            <mask id="f" fill="#fff">
                <use xlink:href="#e"/>
            </mask>
            <use fill="#EDEFF8" fill-rule="nonzero" transform="rotate(-15 18.222 18.005)" xlink:href="#e"/>
            <g fill="#D1D4EB" fill-rule="nonzero" mask="url(#f)">
                <path d="M31.377 34.14s-.23-8.453-1.638-7.806a5.071 5.071 0 0 0-1.294-.689 25.962 25.962 0 0 1-4.518-2.18l-3.771 6.97-4.368-6.929a25.962 25.962 0 0 1-4.518 2.181c-.466.157-.904.39-1.294.689-1.409-.637-3.319 14.226-1.28 10.146"/>
                <path d="M15.047 19.082a5.75 5.75 0 0 0 3.548 4.393 3.83 3.83 0 0 0 2.608 0 5.864 5.864 0 0 0 3.559-4.393c.271 0 .626-.407 1.043-1.774.532-1.858 0-2.14-.511-2.087.087-.249.157-.503.209-.762.75-4.842-.741-6.459-3.068-5.416-.354-.55-6.282-2.086-7.93 0-1.65 2.087-.094 5.92 0 6.167-.491 0-1.044.23-.522 2.087.407 1.378.761 1.753 1.064 1.785z"/>
            </g>
        </g>
        <circle cx="3.99" cy="3.99" r="3.99" fill="#D1D4EB" fill-rule="nonzero" transform="translate(476 169)"/>
        <g fill="#D1D4EB" fill-rule="nonzero" transform="translate(376 141)">
            <circle cx="3.99" cy="3.99" r="3.99"/>
        </g>
        <g fill="#D1D4EB" fill-rule="nonzero" transform="translate(345 37)">
            <circle cx="3.99" cy="3.99" r="3.99"/>
        </g>
        <g fill="#D1D4EB" fill-rule="nonzero" transform="translate(442 276)">
            <circle cx="3.99" cy="3.99" r="3.99"/>
        </g>
        <g fill="#D1D4EB" fill-rule="nonzero" transform="translate(412 344)">
            <circle cx="3.99" cy="3.99" r="3.99"/>
        </g>
        <g fill="#D1D4EB" fill-rule="nonzero" transform="translate(143 354)">
            <circle cx="3.99" cy="3.99" r="3.99"/>
        </g>
        <g fill="#D1D4EB" fill-rule="nonzero" transform="translate(167 292)">
            <circle cx="3.99" cy="3.99" r="3.99"/>
        </g>
        <g fill="#D1D4EB" fill-rule="nonzero" transform="translate(55 316)">
            <circle cx="3.99" cy="3.99" r="3.99"/>
        </g>
        <g fill="#D1D4EB" fill-rule="nonzero" transform="translate(86 142)">
            <circle cx="3.99" cy="3.99" r="3.99"/>
        </g>
        <g fill="#D1D4EB" fill-rule="nonzero" transform="translate(129 37)">
            <circle cx="3.99" cy="3.99" r="3.99"/>
        </g>
        <g fill="#D1D4EB" fill-rule="nonzero" transform="translate(387 286)">
            <circle cx="5.985" cy="5.985" r="5.985"/>
        </g>
        <g>
            <g transform="translate(193 320)">
                <mask id="h" fill="#fff">
                    <use xlink:href="#g"/>
                </mask>
                <use fill="#EDEFF8" fill-rule="nonzero" transform="rotate(-15 18.222 18.005)" xlink:href="#g"/>
                <g fill="#D1D4EB" fill-rule="nonzero" mask="url(#h)">
                    <path d="M31.377 34.14s-.23-8.453-1.638-7.806a5.071 5.071 0 0 0-1.294-.689 25.962 25.962 0 0 1-4.518-2.18l-3.771 6.97-4.368-6.929a25.962 25.962 0 0 1-4.518 2.181c-.466.157-.904.39-1.294.689-1.409-.637-3.319 14.226-1.28 10.146"/>
                    <path d="M15.047 19.082a5.75 5.75 0 0 0 3.548 4.393 3.83 3.83 0 0 0 2.608 0 5.864 5.864 0 0 0 3.559-4.393c.271 0 .626-.407 1.043-1.774.532-1.858 0-2.14-.511-2.087.087-.249.157-.503.209-.762.75-4.842-.741-6.459-3.068-5.416-.354-.55-6.282-2.086-7.93 0-1.65 2.087-.094 5.92 0 6.167-.491 0-1.044.23-.522 2.087.407 1.378.761 1.753 1.064 1.785z"/>
                </g>
            </g>
        </g>
        <g transform="translate(202 140)">
            <mask id="j" fill="#fff">
                <use xlink:href="#i"/>
            </mask>
            <use fill="#FFF" fill-rule="nonzero" transform="rotate(-57 48.017 48)" xlink:href="#i"/>
            <g mask="url(#j)">
                <path fill="#FCDCC8" d="M39 59l8.47 11.2 2.92-2.67 5.11-6.03v-7l-16-.5z"/>
                <path fill="#FFE4D4" fill-rule="nonzero" d="M60.25 38.82c-.18-2.28-2.37-3.93-4.47-4.8a11.72 11.72 0 0 0-6.71-.49l-.38.09a11.72 11.72 0 0 0-7.1-.32c-2.17.66-4.52 2.08-4.93 4.33-.29 1.61.42 3.24.16 4.89-.07.43-2.382-.838-2.32 2.14.062 2.978 1.67 3.1 2.32 3.84.65.74.17 5 1.18 6 .152.634 7.903 5.56 8.84 5.5h3.66c.802.11 6.5-4 7.5-5s.84-6.5 1.5-6.5c1.5 0 3.5-5.98 1.5-5-2 .98-.62-3.04-.75-4.68z"/>
                <path fill="#042A58" fill-rule="nonzero" d="M35.69 43.68v.52l1.28.06a5.92 5.92 0 0 0 0-.63 15.91 15.91 0 0 1 .12-1.91c.1-.91 0-1.86.17-2.76a5.1 5.1 0 0 1 5.1-4c1.79 0 3.57.39 5.36.49 2.21.12 3.26-.83 5.06-1.75.48-.25.21-.3.69-.16.31.09.7.51 1 .69 1.61 1 4.54 2.12 4.92 4.14a18.11 18.11 0 0 1 0 4.78 16.42 16.42 0 0 0-.28 2.23l1 .05c.37-.95.86-2.24 1-2.74a24.29 24.29 0 0 0 .61-3.76c.52-3 .38-6.55-.61-9.43-1.72-5-11.879-3.899-12.73-4-4-1.1-9.99-2.32-13.04 0-3.22 2.47.01 14.432.18 15.59a6.91 6.91 0 0 1 .17 2.59z"/>
                <path fill="#FFF" fill-rule="nonzero" d="M42.56 88.05h15.77c-.26-1.87-.55-3.74-.93-5.59-.81-3.92 5.49-14.16 2.6-16.96-1.23-1.18-26.09-1.27-26.5 0-.141.416 7.848 10.47 7.83 10.91a31.05 31.05 0 0 0 .59 3.68c.3 2.64.47 5.3.64 7.96z"/>
                <path fill="#2180EA" fill-rule="nonzero" d="M46.55 88.5h5.95l.6-5.15a.31.31 0 0 0 0-.18L49 70.5a1.74 1.74 0 0 1 .06-1.15L50 67c.033-.124-.131-1.907-.22-2-1.307-.48-2.067-.647-2.28-.5-.213.147-.713.147-1.5 0-.065.104-.415 2.716-.35 2.82l.61 2.01a2 2 0 0 1 .24 1.17l-.98 11.78a.33.33 0 0 0 0 .28l1.03 5.94z"/>
                <path fill="#FFF" fill-rule="nonzero" d="M55.5 59l-7.595 5a.3.3 0 0 1-.42 0L39 58.5l-3.25 6.69L45 69l1.69-4c.055-.088.691 0 .795 0 .104 0 .96-.088 1.015 0l2 4 7-4-2-6z"/>
                <path fill="#2180EA" fill-rule="nonzero" d="M80 69.5c-1.69-2.12-22.56-8.198-24-9L51.5 87 45 90l1.5 4.5L77 90c-.18-1.64 4.54-18.61 3-20.5z"/>
                <path fill="#2180EA" fill-rule="nonzero" d="M42.08 72.36l-1-2.66L38 60.35c-1.796 1.575-18.12 8.8-21.5 9.35C9.76 70.79 19.12 82.65 19 90l18.81 3.71.19.29 10.25 1.29-.11-.29H49c-1.73-5.29-5.07-17.47-6.92-22.64z"/>
            </g>
        </g>
        <g transform="translate(164 85)">
            <rect width="40" height="40" fill="#2180EA" rx="4"/>
            <g fill="#FFF">
                <path fill-rule="nonzero" d="M20.162 5.743a6.13 6.13 0 0 0 0 12.257 6.13 6.13 0 0 0 0-12.257zm1.762 8.546a1.94 1.94 0 0 1-1.02.655c-.18.046-.258.14-.25.327.007.18 0 .359 0 .546 0 .164-.086.25-.242.25-.195.007-.39.007-.585 0-.171 0-.25-.102-.25-.266v-.397c0-.289-.015-.305-.296-.351a3.677 3.677 0 0 1-1.037-.297c-.257-.124-.288-.187-.21-.46.054-.202.109-.405.171-.6.07-.234.133-.257.351-.148.367.187.749.296 1.154.343.257.031.515.008.756-.101.453-.195.523-.718.14-1.03a1.582 1.582 0 0 0-.428-.25c-.398-.17-.811-.303-1.177-.53-.609-.358-.99-.857-.944-1.598.047-.834.523-1.349 1.287-1.63.312-.116.32-.109.32-.436V7.98c.007-.25.046-.289.296-.297h.226c.53 0 .53 0 .53.53 0 .375 0 .375.374.43a3.4 3.4 0 0 1 .819.241c.148.062.203.164.156.32-.063.226-.125.46-.203.678-.07.21-.14.242-.343.148a2.574 2.574 0 0 0-1.294-.257 1.036 1.036 0 0 0-.343.07c-.39.172-.46.608-.125.873.171.133.359.234.561.32.351.14.694.28 1.03.468 1.029.57 1.317 1.887.576 2.784z"/>
                <path d="M8 23h4v9H8zM15 25h4v7h-4zM22 23h4v9h-4zM29 17h4v15h-4z"/>
            </g>
        </g>
        <g transform="rotate(32 15.566 596.83)">
            <rect width="40" height="40" fill="#2180EA" rx="4"/>
            <g fill="#FFF" fill-rule="nonzero">
                <path d="M12.04 13.017c-.04 0-3.704-.409-5.168-.439-.132.01-.264.019-.387.16-.123.14-.237.412-.228.543l1.827 10.822c.027.394.31.638.707.61l1.026.207a.73.73 0 0 0 .634-.44c-.028-.394 1.865-7.522 1.891-10.956-.01-.131-.028-.394-.301-.507zM26.41 15.18c-1.35-.301-2.577-.744-3.662-1.064-2.454-.884-3.475-.285-5.444 1.965-.86.984-1.43 2.344-1.261 2.86.009.131.009.131.283.244.68.217 1.614.283 2.439-1.226.123-.14.246-.281.51-.3.397-.028.52-.168.907-.327.256-.15.51-.3.898-.46.133-.008.133-.008.265-.018.132-.009.406.104.538.095.707.61 1.961 1.447 3.225 2.414 1.952 1.316 3.914 2.762 4.922 3.88l.132-.01c-1.109-2.562-3.008-6.917-3.752-8.053zM33.526 12.975C28.5 13 28.132 12.99 28 13c-.87 0-.916.417-1.039.558.01.131.028.394.169.516.885 1.258 4.035 8.297 4.56 10.109.15.253.434.497.698.479l1.027.206c.396-.028.642-.309.615-.703l.203-10.58c-.028-.394-.309-.612-.707-.61z"/>
                <path d="M29.196 24.621c-.611-1.145-2.979-2.696-5.072-4.133-1.122-.846-2.235-1.56-3.075-2.161-.123.14-.387.159-.378.29-.388.16-.51.3-1.04.337-.966 1.388-2.251 2.005-3.742 1.582-.67-.085-1.104-.583-1.273-1.1-.357-1.294.705-3.216 1.566-4.2l-2.644.184c-.346 2.664-1.032 6.144-1.565 8.03.566.488 1.14 1.108 1.556 1.343 2.66 1.926 5.715 3.824 6.272 4.18.415.236 1.226.443 1.623.415l.397-.027-2.263-1.954a.633.633 0 0 1-.064-.92.644.644 0 0 1 .925-.064l2.829 2.442c.283.244.538.094.802.076.388-.16.502-.431.606-.835l-3.252-2.808a.633.633 0 0 1-.064-.92.644.644 0 0 1 .925-.064l3.536 3.052c.141.122.67.085 1.057-.074.123-.14.379-.29.493-.562l-3.96-3.419a.633.633 0 0 1-.064-.92.644.644 0 0 1 .925-.064l4.101 3.54c.274.114.53-.036.785-.186.123-.14.36-.553.058-1.06z"/>
            </g>
        </g>
        <g transform="rotate(-16 794.381 -1110.852)">
            <rect width="40" height="40" fill="#2180EA" rx="4"/>
            <g fill="#FFF" fill-rule="nonzero">
                <path d="M24.633 13.651a6.255 6.255 0 0 0-4.624-1.765c-3.328.133-6.041 2.961-6.052 6.311a6.335 6.335 0 0 0 1.46 4.067 9.204 9.204 0 0 1 2.116 5.86s-.143.978.55.978h4.36c.708 0 .55-.979.55-.979 0-2.084.761-4.147 2.206-5.965a6.299 6.299 0 0 0 1.37-3.94 6.29 6.29 0 0 0-1.936-4.567zM27.52 10.02a.544.544 0 0 0-.777 0L25.4 11.37a.55.55 0 0 0 0 .782.549.549 0 0 0 .777 0l1.344-1.35a.55.55 0 0 0 0-.782zM22.464 29.857h-4.402c-.307 0-.55.25-.55.552 0 .309.249.553.55.553h4.402c.306 0 .55-.25.55-.553a.555.555 0 0 0-.55-.552zM21.633 31.94h-2.735c-.307 0-.55.25-.55.554 0 .308.248.553.55.553h2.735c.307 0 .55-.25.55-.553a.555.555 0 0 0-.55-.553zM20.263 10.015c.307 0 .55-.25.55-.553v-1.91a.551.551 0 0 0-.55-.552c-.302 0-.55.25-.55.553v1.909c0 .308.243.553.55.553zM15.126 12.157a.55.55 0 0 0 0-.781l-1.344-1.35a.544.544 0 0 0-.777 0 .556.556 0 0 0 0 .78l1.343 1.351a.554.554 0 0 0 .778 0zM29.976 16.761h-1.9c-.306 0-.55.25-.55.553 0 .303.249.553.55.553h1.9c.306 0 .55-.25.55-.553a.555.555 0 0 0-.55-.553zM12.45 16.761h-1.9c-.307 0-.55.25-.55.553 0 .303.249.553.55.553h1.9c.306 0 .55-.25.55-.553a.551.551 0 0 0-.55-.553z"/>
            </g>
        </g>
        <g transform="rotate(5 -3035.623 3090.682)">
            <rect width="40" height="40" fill="#2180EA" rx="4"/>
            <path fill="#FFF" fill-rule="nonzero" d="M20.03 27.031c-3.89 0-7.045-3.148-7.045-7.031 0-3.883 3.154-7.031 7.045-7.031s7.046 3.148 7.046 7.031c0 3.883-3.155 7.031-7.046 7.031zm0-2.812A4.223 4.223 0 0 0 24.258 20a4.223 4.223 0 0 0-4.228-4.219A4.223 4.223 0 0 0 15.803 20a4.223 4.223 0 0 0 4.227 4.219z"/>
            <path fill="#FFF" fill-rule="nonzero" d="M20.03 34.531C11.99 34.531 5.47 28.025 5.47 20S11.989 5.469 20.03 5.469c2.112 0 4.163.45 6.044 1.307a14.595 14.595 0 0 1 7.272 7.337A14.46 14.46 0 0 1 34.591 20c0 8.025-6.52 14.531-14.56 14.531zm0-2.812c6.485 0 11.743-5.247 11.743-11.719 0-1.658-.345-3.266-1.003-4.747a11.78 11.78 0 0 0-5.867-5.919 11.713 11.713 0 0 0-4.873-1.053C13.545 8.281 8.288 13.528 8.288 20c0 6.472 5.257 11.719 11.742 11.719z"/>
            <path fill="#2180EA" d="M20.03 16.719l5.167-5.625-.47-1.875L27.545 5 36 6.406l-.94 5.625h-.939l-3.757 3.281h-2.349l-4.697 5.157-3.757.937z"/>
            <path fill="#FFF" fill-rule="nonzero" d="M31.984 9.777l.69-.684a.792.792 0 0 0 0-1.128l-.478-.477a.806.806 0 0 0-1.135 0l-.79.784-.163-2.087a.267.267 0 0 0-.272-.248.266.266 0 0 0-.19.079l-3.108 3.082c-.28.278-.424.663-.394 1.056l.008.121.15 1.93-1.125 1.115-2.022 2.006-.046.046-1.958 1.941-.869.862a.662.662 0 0 0-.195.422l-.054.676a.675.675 0 0 0 .676.727h.035l.72-.035a.671.671 0 0 0 .445-.197l.86-.853 1.958-1.941.046-.046 2.023-2.006 1.221-1.212 1.776.135.079.006c.035.002.07.002.103.002.358 0 .703-.14.961-.393l3.106-3.08a.268.268 0 0 0-.171-.458l-1.887-.145z"/>
        </g>
        <g transform="rotate(-25 544.114 -124.089)">
            <rect width="40" height="40" fill="#2180EA" rx="4"/>
            <path fill="#FFF" fill-rule="nonzero" d="M21.537 25.085l2.335-2.335c5.21-5.21 6.305-10.408 6.535-12.354a.674.674 0 0 0-.185-.559.675.675 0 0 0-.558-.19c-1.958.213-7.198 1.267-12.413 6.482l-2.335 2.335-.692-.11c-1.335-.214-2.737.26-3.74 1.263l-2.787 2.787a.647.647 0 0 0-.176.616c.058.215.231.37.451.406l2.238.371a3.005 3.005 0 0 1 1.637.835l.96.958-1.351 1.351c-.249.249-.263.637-.032.868l.768.768c.23.23.619.216.867-.032l1.351-1.35.958.958c.44.44.732 1.01.835 1.64l.371 2.235c.036.22.191.393.406.451a.647.647 0 0 0 .616-.176l2.787-2.787c1.002-1.002 1.475-2.404 1.264-3.74l-.11-.691zm-.037-6.583c-.995-.995-.936-2.67.133-3.737 1.069-1.07 2.742-1.128 3.737-.133.994.994.936 2.667-.133 3.736-1.069 1.069-2.743 1.128-3.737.134z"/>
        </g>
    </g>
</svg>
