<svg xmlns="http://www.w3.org/2000/svg" width="504" height="400" viewBox="0 0 504 400">
    <g fill="none" fill-rule="evenodd">
        <g fill-rule="nonzero" transform="translate(43 66)">
            <path fill="#EDEFF8" d="M.09 248.21h417.58v20.6H.09z"/>
            <g fill="#EDEFF8">
                <path d="M11.23 65.998h65.272v65.892H11.23zM76.502 131.922h64.426v65.038H76.502zM76.502.96h64.426v65.038H76.502zM140.958 65.998h65.272v65.892h-65.272z"/>
            </g>
            <path fill="#D1D4EB" d="M83.3 246.44c8.3-.33 12-4.11 12-8.73 0-4-2.79-7.39-9-8.43V225H47c0 8.79 0 21.56 7.91 27.66-4.79.37-7.91 1-7.91 1.61 0 1.11 8.81 2 19.68 2s19.68-.9 19.68-2c0-.66-3.12-1.24-7.91-1.61a16.61 16.61 0 0 0 4.85-6.22zm2.88-13.34c3.46.8 4.08 2.5 4 4.7 0 2.5-.77 4.19-5.49 4.77a45.5 45.5 0 0 0 1.49-9.46v-.01z"/>
            <path fill="#EDEFF8" d="M80.813 215.25c-3.05.72-5.84 2-6.79 5.23a1.17 1.17 0 0 0 2.25.62c1-3.54 5.7-3.6 8.67-4.46 3.19-.93 5-3.14 4.58-6.53-.19-1.47-2.52-1.49-2.33 0 .57 4.1-3.24 4.4-6.38 5.14zM74.55 211.683c-2.83 1.34-5.29 3.2-5.55 6.54a1.17 1.17 0 0 0 2.33.14c.29-3.68 4.83-4.71 7.55-6.18 2.93-1.57 4.25-4.11 3.11-7.34-.49-1.4-2.78-.93-2.28.49 1.38 3.89-2.25 4.98-5.16 6.35zM64.029 212.77c-2.36 1.7-4.29 3.76-4 6.63.13 1.29 2.26.93 2.13-.35-.32-3.17 3.63-4.95 5.87-6.73 2.41-1.92 3.21-4.33 1.67-6.82-.67-1.08-2.66-.23-2 .87 1.89 3.01-1.25 4.65-3.67 6.4z"/>
            <path fill="#D1D4EB" d="M117.71 132.32h181a6 6 0 0 1 6 6v113h-193v-113a6 6 0 0 1 6-6z"/>
            <path fill="#FFF" d="M119.71 139.32h177v102h-177z"/>
            <path fill="#D1D4EB" d="M322.3 262H126.12a.71.71 0 0 1-.47-.18l-13.95-12.31h193.1l17.88 11.17a.71.71 0 0 1-.38 1.32z"/>
            <path fill="#D1D4EB" d="M323 265.84l-.22.21a2.32 2.32 0 0 1-1.75.54l-192.77 1.69V262l192.74-.11a3.38 3.38 0 0 0 2-.45v4.4z"/>
            <path fill="#D1D4EB" d="M111.71 252.94l13.63 14.17c.364.344.802.6 1.28.75l1.67.42V262a4.55 4.55 0 0 1-2.71-.67c-1.72-1.41-14-11.91-14-11.91l.13 3.52z"/>
            <path fill="#DFEFEF" d="M313.78 258.69l-182.43 1.11v-1.34l182.43-.25z"/>
            <path fill="#DFEFEF" d="M118.37 249.79l12.98 10.01v-1.34l-12.98-8.9z"/>
            <path fill="#EDEFF8" d="M313.78 258.21l-182.43.25-12.98-8.88h181.6z"/>
            <path fill="#EFFAFF" d="M337.13 92.52v-.46-.33c0-.11 0-.3-.06-.45-.06-.15 0-.22-.07-.32s-.06-.29-.09-.43-.06-.21-.09-.32a4.73 4.73 0 0 0-.13-.41c-.05-.13-.08-.21-.12-.31-.04-.1-.1-.26-.16-.39l-.14-.3c-.06-.13-.12-.25-.19-.37l-.17-.29-.21-.35-.19-.28-.18-.27.18.26a9.31 9.31 0 0 0-7.65-4H170.22a9.34 9.34 0 0 0-9.34 9.34v97.79a9.34 9.34 0 0 0 9.34 9.34H327.8a9.34 9.34 0 0 0 9.34-9.34V92.85c0-.11-.01-.22-.01-.33zm0-.33v-.13c0-.05-.02.09-.02.14l.02-.01zm-.06-.59v-.31c-.07.11-.07.21-.07.32l.07-.01zm-.13-.72c0-.12 0-.23-.07-.35.01.12.03.24.05.36l.02-.01zm-.19-.73c0-.12-.07-.23-.11-.35.03.13.06.2.1.36l.01-.01zm-.24-.71c0-.12-.09-.23-.14-.35.04.13.08.25.12.37l.02-.02zm-.3-.68l-.17-.35.17.35zm-.35-.65l-.2-.34.2.34z"/>
            <path fill="#FFF" d="M305.94 148.88h-51.06v41.77h72.11v-41.77z"/>
            <path fill="#2180EA" d="M337.14 92.85v-.83-.29c0-.09-.05-.38-.09-.57-.04-.19 0-.21-.07-.32-.07-.11-.09-.35-.14-.53-.05-.18-.06-.2-.09-.3-.03-.1-.14-.39-.21-.58l-.08-.21a7.578 7.578 0 0 0-.36-.74l-.12-.21c-.1-.17-.2-.34-.31-.5l-.18-.25-.16-.23-.12-.14-.23-.28-.32-.35-.25-.26-.36-.33-.26-.23-.47-.35-.33-.23c-.18-.12-.36-.23-.55-.33l-.34-.17-.41-.2-.39-.16-.39-.14-.43-.13c-.57-.073-.857-.13-1.15-.17a21.2 21.2 0 0 0-1.4-.08H170.22a9.34 9.34 0 0 0-9.34 9.34v6.29h176.26v-6.52z"/>
            <path fill="#125191" d="M171.58 104.77h46.16v6.42h-46.16z"/>
            <path fill="#0A4E8E" d="M171.58 104.77h72.11v6.42h-72.11z"/>
            <circle cx="171.87" cy="91.01" r="4" fill="#AFE5FF"/>
            <circle cx="187.4" cy="91.01" r="4" fill="#FFF"/>
            <path fill="#1DA2DB" d="M268.23 181.04h-9.89v6.42h65.61v-6.42z" opacity=".9"/>
            <path fill="#B9F1FF" d="M264.44 171.62h-6.1v6.42h8.15v-6.42z"/>
            <path fill="#59CFFA" d="M260.65 161.2h-2.31v6.42h33v-6.42z"/>
            <path fill="#125191" d="M307.4 151.78h-49.06v6.42h56.68v-6.42z"/>
            <path fill="#9F9F9F" d="M323.24 83.51h-67.55 67.55"/>
            <path fill="#FFF" d="M288.495 125.159l-.958 2.955-4.569 13.844c-9.751-2.914-15.175-12.798-12.113-22.077l15.498 4.634 2.142.644z"/>
            <path fill="#1DA2DB" d="M298.113 142.495c-4.35 2.168-9.43 2.596-14.113 1.19l4.928-14.93.623-1.874 8.562 15.614z" opacity=".9"/>
            <path fill="#0A4E8E" d="M298.236 139.11l-8.562-15.6-2.142-.643-15.532-4.64c1.468-4.461 4.747-8.182 9.108-10.336.48-.237.959-.456 1.438-.643 9.15-3.64 19.691.229 23.9 8.775 4.21 8.546.59 18.73-8.205 23.092l-.005-.005z"/>
            <path fill="#FFF" d="M243.13 118.54h-72.11v72.11h72.11v-72.11"/>
            <path fill="#B9F1FF" d="M191.58 151.64H177.6v34.94h13.98v-34.94" opacity=".9"/>
            <path fill="#59CFFA" d="M214.06 139.99h-13.97v46.59h13.97v-46.59"/>
            <path fill="#1DA2DB" d="M236.55 127.18h-13.98v59.4h13.98v-59.4"/>
            <path fill="#2180EA" d="M231.55 179.5h-81.31v50.08H244.51V179.5z"/>
            <path fill="#D3F1FE" d="M188.07 185.32h-32.01v38.44h82.63v-38.44z"/>
            <path fill="#0A4E8E" d="M160.33 202.4h10.48v4.27h-10.48zM160.33 212.89h10.48v4.27h-10.48zM226.22 190.33l-2.84-1.6-5.36 9.56-5.36 9.56-9.14-14.69-5.24 9.46-6.75 12.2-7.64-8.28-5.74 7.79 2.63 1.93 3.39-4.6 8.02 8.69 11.49-20.75 9.13 14.66zM160.33 191.92h10.48v4.27h-10.48z"/>
            <path fill="#D1D4EB" d="M340.507 189.58l-1.201.21a.42.42 0 0 0-.343.417l.008 3.268 4.726 26.807 3.122-.55-4.707-26.699-1.135-3.15a.42.42 0 0 0-.47-.304zM348.934 186.455l-1.68-3.766a.18.18 0 0 0-.325.057l-1.182 4.067 3.438 35.391 3.185-.369-3.436-35.38z"/>
            <g fill="#D1D4EB">
                <path d="M352 229l2.55 1.59 16.82-27-2.55-1.59s-2.23 5.83-5.29 4.07l-1.54 5.58L352 229z"/>
                <path d="M356 232.53l3 .34 4.16-26.85c-2.71-.68-.33-6.68-.33-6.68l-3-.34-3.83 33.53z"/>
                <path d="M366.875 196.739l.76-4a5 5 0 0 0-9.82-1.85l-.76 4a5 5 0 0 0 9.82 1.85zm-5.42 1.78a3.56 3.56 0 0 1-2.84-4.15l.46-2.46a3.562 3.562 0 0 1 7 1.32l-.46 2.46a3.55 3.55 0 0 1-4.15 2.84l-.01-.01z"/>
                <path d="M375.347 201.529l1.77-3.7a5 5 0 0 0-9-4.3l-1.77 3.7a5 5 0 0 0 9 4.3zm-5.73.31a3.56 3.56 0 0 1-1.68-4.74l1.08-2.26a3.56 3.56 0 1 1 6.42 3.06l-1.08 2.26a3.55 3.55 0 0 1-4.74 1.68z"/>
            </g>
            <path fill="#D1D4EB" d="M339 213l4.162 40.59c0 1.574 25.009 1.574 25.009 0l4.162-40.59H339z"/>
        </g>
        <path d="M0 0h504v400H0z"/>
        <g fill="#EDEFF8" fill-rule="nonzero">
            <path d="M410 166.01h17.05v17.05H410z"/>
            <path d="M427.05 183.05h16.82v16.82h-16.82zM427.05 149.18h16.82V166h-16.82zM443.87 166.01h17.05v17.05h-17.05z" opacity=".9"/>
        </g>
    </g>
</svg>
